<mxfile host="app.diagrams.net" agent="Mozilla/5.0 (Windows NT 10.0; Win64; x64) AppleWebKit/537.36 (KHTML, like Gecko) Chrome/136.0.0.0 Safari/537.36 Edg/136.0.0.0" version="27.0.3" pages="2">
  <diagram name="Page-1" id="c7558073-3199-34d8-9f00-42111426c3f3">
    <mxGraphModel dx="1408" dy="748" grid="1" gridSize="10" guides="1" tooltips="1" connect="1" arrows="1" fold="1" page="1" pageScale="1" pageWidth="826" pageHeight="1169" background="none" math="0" shadow="0">
      <root>
        <mxCell id="0" />
        <mxCell id="1" parent="0" />
        <mxCell id="2" value="&lt;p style=&quot;margin: 0px; margin-top: 4px; text-align: center; text-decoration: underline;&quot;&gt;&lt;strong&gt;Process 1&lt;br /&gt;&lt;/strong&gt;&lt;/p&gt;&lt;hr /&gt;&lt;p style=&quot;margin: 0px; margin-left: 8px;&quot;&gt;System Study&lt;/p&gt;&lt;p style=&quot;margin: 0px; margin-left: 8px;&quot;&gt;Preparation&lt;/p&gt;" style="verticalAlign=middle;align=center;overflow=fill;fontSize=12;fontFamily=Helvetica;html=1;rounded=1;fontStyle=1;strokeWidth=3;fillColor=#E6FFCC" parent="1" vertex="1">
          <mxGeometry x="236" y="236" width="110" height="90" as="geometry" />
        </mxCell>
        <mxCell id="3" value="Engineering" style="whiteSpace=wrap;align=center;verticalAlign=middle;fontStyle=1;strokeWidth=3;fillColor=#FFFFCC" parent="1" vertex="1">
          <mxGeometry x="246" y="126" width="90" height="60" as="geometry" />
        </mxCell>
        <mxCell id="4" value="Investors" style="whiteSpace=wrap;align=center;verticalAlign=middle;fontStyle=1;strokeWidth=3;fillColor=#FFFFCC" parent="1" vertex="1">
          <mxGeometry x="40" y="251" width="90" height="60" as="geometry" />
        </mxCell>
        <mxCell id="5" value="ON-DEMAND SYSTEM DEVELOPMENT" style="shape=process;whiteSpace=wrap;align=center;verticalAlign=middle;size=0.0475;fontStyle=1;strokeWidth=3;fillColor=#FFCCCC" parent="1" vertex="1">
          <mxGeometry x="200.99999999999991" y="391" width="400" height="50" as="geometry" />
        </mxCell>
        <mxCell id="6" value="&lt;p style=&quot;margin: 0px; margin-top: 4px; text-align: center; text-decoration: underline;&quot;&gt;&lt;strong&gt;Process 2&lt;br /&gt;&lt;/strong&gt;&lt;/p&gt;&lt;hr /&gt;&lt;p style=&quot;margin: 0px; margin-left: 8px;&quot;&gt;System Analysis&lt;/p&gt;" style="verticalAlign=middle;align=center;overflow=fill;fontSize=12;fontFamily=Helvetica;html=1;rounded=1;fontStyle=1;strokeWidth=3;fillColor=#E6FFCC" parent="1" vertex="1">
          <mxGeometry x="390" y="146" width="110" height="90" as="geometry" />
        </mxCell>
        <mxCell id="7" value="&lt;p style=&quot;margin: 0px; margin-top: 4px; text-align: center; text-decoration: underline;&quot;&gt;&lt;strong&gt;&lt;strong&gt;Process&lt;/strong&gt; 3&lt;br /&gt;&lt;/strong&gt;&lt;/p&gt;&lt;hr /&gt;&lt;p style=&quot;margin: 0px; margin-left: 8px;&quot;&gt;List Possible&lt;/p&gt;&lt;p style=&quot;margin: 0px; margin-left: 8px;&quot;&gt;System Solutions&lt;/p&gt;" style="verticalAlign=middle;align=center;overflow=fill;fontSize=12;fontFamily=Helvetica;html=1;rounded=1;fontStyle=1;strokeWidth=3;fillColor=#E6FFCC" parent="1" vertex="1">
          <mxGeometry x="681" y="371" width="110" height="90" as="geometry" />
        </mxCell>
        <mxCell id="8" value="&lt;p style=&quot;margin: 0px; margin-top: 4px; text-align: center; text-decoration: underline;&quot;&gt;&lt;strong&gt;&lt;strong&gt;Process&lt;/strong&gt; 4&lt;br /&gt;&lt;/strong&gt;&lt;/p&gt;&lt;hr /&gt;&lt;p style=&quot;margin: 0px; margin-left: 8px;&quot;&gt;Detail Chosen&lt;/p&gt;&lt;p style=&quot;margin: 0px; margin-left: 8px;&quot;&gt;Solution&lt;/p&gt;" style="verticalAlign=middle;align=center;overflow=fill;fontSize=12;fontFamily=Helvetica;html=1;rounded=1;fontStyle=1;strokeWidth=3;fillColor=#E6FFCC" parent="1" vertex="1">
          <mxGeometry x="560" y="241" width="110" height="90" as="geometry" />
        </mxCell>
        <mxCell id="9" value="&lt;p style=&quot;margin: 0px; margin-top: 4px; text-align: center; text-decoration: underline;&quot;&gt;&lt;strong&gt;&lt;strong&gt;Process&lt;/strong&gt; 5&lt;br /&gt;&lt;/strong&gt;&lt;/p&gt;&lt;hr /&gt;&lt;p style=&quot;margin: 0px; margin-left: 8px;&quot;&gt;New System&lt;/p&gt;&lt;p style=&quot;margin: 0px; margin-left: 8px;&quot;&gt;Design&lt;/p&gt;" style="verticalAlign=middle;align=center;overflow=fill;fontSize=12;fontFamily=Helvetica;html=1;rounded=1;fontStyle=1;strokeWidth=3;fillColor=#E6FFCC" parent="1" vertex="1">
          <mxGeometry x="540" y="510" width="110" height="90" as="geometry" />
        </mxCell>
        <mxCell id="10" value="&lt;p style=&quot;margin: 0px; margin-top: 4px; text-align: center; text-decoration: underline;&quot;&gt;&lt;strong&gt;&lt;strong&gt;Process&lt;/strong&gt; 6&lt;br /&gt;&lt;/strong&gt;&lt;/p&gt;&lt;hr /&gt;&lt;p style=&quot;margin: 0px; margin-left: 8px;&quot;&gt;New&lt;/p&gt;&lt;p style=&quot;margin: 0px; margin-left: 8px;&quot;&gt;System&lt;/p&gt;&lt;p style=&quot;margin: 0px; margin-left: 8px;&quot;&gt;Construction&lt;/p&gt;" style="verticalAlign=middle;align=center;overflow=fill;fontSize=12;fontFamily=Helvetica;html=1;rounded=1;fontStyle=1;strokeWidth=3;fillColor=#E6FFCC" parent="1" vertex="1">
          <mxGeometry x="188.49999999999991" y="510" width="110" height="90" as="geometry" />
        </mxCell>
        <mxCell id="12" value="Management" style="whiteSpace=wrap;align=center;verticalAlign=middle;fontStyle=1;strokeWidth=3;fillColor=#FFFFCC" parent="1" vertex="1">
          <mxGeometry x="691" y="60.00000000000002" width="90" height="60" as="geometry" />
        </mxCell>
        <mxCell id="13" value="Management" style="whiteSpace=wrap;align=center;verticalAlign=middle;fontStyle=1;strokeWidth=3;fillColor=#FFFFCC" parent="1" vertex="1">
          <mxGeometry x="353.50000000000006" y="650" width="90" height="60" as="geometry" />
        </mxCell>
        <mxCell id="14" value="Engineering" style="whiteSpace=wrap;align=center;verticalAlign=middle;fontStyle=1;strokeWidth=3;fillColor=#FFFFCC" parent="1" vertex="1">
          <mxGeometry x="34.99999999999997" y="524.9999999999999" width="90" height="60" as="geometry" />
        </mxCell>
        <mxCell id="15" value="Vendors" style="whiteSpace=wrap;align=center;verticalAlign=middle;fontStyle=1;strokeWidth=3;fillColor=#FFFFCC" parent="1" vertex="1">
          <mxGeometry x="549.9999999999999" y="650" width="90" height="60" as="geometry" />
        </mxCell>
        <mxCell id="36" value="" style="edgeStyle=none;noEdgeStyle=1;strokeColor=#990000;strokeWidth=2" parent="1" source="3" target="2" edge="1">
          <mxGeometry width="100" height="100" relative="1" as="geometry">
            <mxPoint x="20" y="250" as="sourcePoint" />
            <mxPoint x="120" y="150" as="targetPoint" />
          </mxGeometry>
        </mxCell>
        <mxCell id="37" value="" style="edgeStyle=none;noEdgeStyle=1;strokeColor=#990000;strokeWidth=2" parent="1" source="4" target="2" edge="1">
          <mxGeometry width="100" height="100" relative="1" as="geometry">
            <mxPoint x="280" y="190" as="sourcePoint" />
            <mxPoint x="380" y="90" as="targetPoint" />
          </mxGeometry>
        </mxCell>
        <mxCell id="11" value="&lt;p style=&quot;margin: 0px; margin-top: 4px; text-align: center; text-decoration: underline;&quot;&gt;&lt;strong&gt;&lt;strong&gt;Process&lt;/strong&gt; 7&lt;br /&gt;&lt;/strong&gt;&lt;/p&gt;&lt;hr /&gt;&lt;p style=&quot;margin: 0px; margin-left: 8px;&quot;&gt;New System&lt;/p&gt;&lt;p style=&quot;margin: 0px; margin-left: 8px;&quot;&gt;Startup and&lt;/p&gt;&lt;p style=&quot;margin: 0px; margin-left: 8px;&quot;&gt;Testing&lt;/p&gt;" style="verticalAlign=middle;align=center;overflow=fill;fontSize=12;fontFamily=Helvetica;html=1;rounded=1;fontStyle=1;strokeWidth=3;fillColor=#E6FFCC" parent="1" vertex="1">
          <mxGeometry x="343.49999999999994" y="510" width="110" height="90" as="geometry" />
        </mxCell>
        <mxCell id="51" value="" style="endArrow=none;noEdgeStyle=1;strokeColor=#990000;strokeWidth=2" parent="1" source="9" target="11" edge="1">
          <mxGeometry relative="1" as="geometry">
            <mxPoint x="205.00819672131135" y="481" as="sourcePoint" />
            <mxPoint x="400.32786885245895" y="650" as="targetPoint" />
          </mxGeometry>
        </mxCell>
        <mxCell id="52" value="Desired &#xa;functionality" style="text;spacingTop=-5;align=center" parent="1" vertex="1">
          <mxGeometry x="165" y="251" width="30" height="20" as="geometry" />
        </mxCell>
        <mxCell id="53" value="Desired &#xa;functionality" style="text;spacingTop=-5;align=center" parent="1" vertex="1">
          <mxGeometry x="241" y="196" width="30" height="20" as="geometry" />
        </mxCell>
        <mxCell id="54" value="Documentation&#xa;from similar projects" style="text;spacingTop=-5;align=center" parent="1" vertex="1">
          <mxGeometry x="186" y="341" width="30" height="20" as="geometry" />
        </mxCell>
        <mxCell id="55" value="" style="edgeStyle=elbowEdgeStyle;elbow=horizontal;strokeColor=#990000;strokeWidth=2" parent="1" source="5" target="2" edge="1">
          <mxGeometry width="100" height="100" relative="1" as="geometry">
            <mxPoint x="50" y="530" as="sourcePoint" />
            <mxPoint x="150" y="430" as="targetPoint" />
            <Array as="points">
              <mxPoint x="260" y="370" />
            </Array>
          </mxGeometry>
        </mxCell>
        <mxCell id="56" value="" style="edgeStyle=elbowEdgeStyle;elbow=horizontal;strokeColor=#990000;strokeWidth=2" parent="1" source="2" target="5" edge="1">
          <mxGeometry width="100" height="100" relative="1" as="geometry">
            <mxPoint x="50" y="500" as="sourcePoint" />
            <mxPoint x="150" y="400" as="targetPoint" />
            <Array as="points">
              <mxPoint x="280" y="360" />
            </Array>
          </mxGeometry>
        </mxCell>
        <mxCell id="57" value="Elaborate&#xa;cost/benefit&#xa;ratio" style="text;spacingTop=-5;align=center" parent="1" vertex="1">
          <mxGeometry x="306" y="341" width="30" height="20" as="geometry" />
        </mxCell>
        <mxCell id="58" value="" style="edgeStyle=elbowEdgeStyle;elbow=horizontal;strokeColor=#990000;strokeWidth=2" parent="1" source="5" target="6" edge="1">
          <mxGeometry width="100" height="100" relative="1" as="geometry">
            <mxPoint x="380" y="370" as="sourcePoint" />
            <mxPoint x="480" y="270" as="targetPoint" />
            <Array as="points">
              <mxPoint x="440" y="310" />
            </Array>
          </mxGeometry>
        </mxCell>
        <mxCell id="59" value="" style="edgeStyle=elbowEdgeStyle;elbow=horizontal;strokeColor=#990000;strokeWidth=2" parent="1" source="6" target="5" edge="1">
          <mxGeometry width="100" height="100" relative="1" as="geometry">
            <mxPoint x="350" y="370" as="sourcePoint" />
            <mxPoint x="450" y="270" as="targetPoint" />
            <Array as="points">
              <mxPoint x="460" y="320" />
            </Array>
          </mxGeometry>
        </mxCell>
        <mxCell id="60" value="Existing&#xa;documentation" style="text;spacingTop=-5;align=center" parent="1" vertex="1">
          <mxGeometry x="380.0000000000001" y="280.99999999999983" width="30" height="20" as="geometry" />
        </mxCell>
        <mxCell id="61" value="Necessary&#xa;resources" style="text;spacingTop=-5;align=center" parent="1" vertex="1">
          <mxGeometry x="481.0000000000002" y="251.00000000000006" width="30" height="20" as="geometry" />
        </mxCell>
        <mxCell id="62" value="Progress&#xa;reports" style="text;spacingTop=-5;align=center" parent="1" vertex="1">
          <mxGeometry x="545.0000000000001" y="100.00000000000003" width="30" height="20" as="geometry" />
        </mxCell>
        <mxCell id="63" value="Progress&#xa;reports" style="text;spacingTop=-5;align=center" parent="1" vertex="1">
          <mxGeometry x="640" y="146.0000000000001" width="30" height="20" as="geometry" />
        </mxCell>
        <mxCell id="64" value="Progress&#xa;reports" style="text;spacingTop=-5;align=center" parent="1" vertex="1">
          <mxGeometry x="751.0000000000001" y="261.0000000000001" width="30" height="20" as="geometry" />
        </mxCell>
        <mxCell id="65" value="" style="edgeStyle=elbowEdgeStyle;elbow=horizontal;strokeColor=#990000;strokeWidth=2" parent="1" source="6" target="12" edge="1">
          <mxGeometry width="100" height="100" relative="1" as="geometry">
            <mxPoint x="260" y="180.0000000000001" as="sourcePoint" />
            <mxPoint x="360" y="80.00000000000011" as="targetPoint" />
            <Array as="points">
              <mxPoint x="445" y="140" />
            </Array>
          </mxGeometry>
        </mxCell>
        <mxCell id="66" value="" style="edgeStyle=elbowEdgeStyle;elbow=vertical;entryX=0.25;entryY=1;strokeColor=#990000;strokeWidth=2" parent="1" source="8" target="12" edge="1">
          <mxGeometry width="100" height="100" relative="1" as="geometry">
            <mxPoint x="530" y="250" as="sourcePoint" />
            <mxPoint x="630" y="150" as="targetPoint" />
          </mxGeometry>
        </mxCell>
        <mxCell id="67" value="" style="edgeStyle=elbowEdgeStyle;elbow=horizontal;strokeColor=#990000;strokeWidth=2" parent="1" source="7" target="12" edge="1">
          <mxGeometry width="100" height="100" relative="1" as="geometry">
            <mxPoint x="660.0000000000002" y="360" as="sourcePoint" />
            <mxPoint x="760.0000000000002" y="260" as="targetPoint" />
          </mxGeometry>
        </mxCell>
        <mxCell id="68" value="" style="edgeStyle=elbowEdgeStyle;elbow=horizontal;strokeColor=#990000;strokeWidth=2" parent="1" source="8" target="5" edge="1">
          <mxGeometry width="100" height="100" relative="1" as="geometry">
            <mxPoint x="570" y="380" as="sourcePoint" />
            <mxPoint x="510" y="250" as="targetPoint" />
            <Array as="points">
              <mxPoint x="570" y="360" />
            </Array>
          </mxGeometry>
        </mxCell>
        <mxCell id="69" value="" style="edgeStyle=segmentEdgeStyle;strokeColor=#990000;strokeWidth=2" parent="1" source="5" target="8" edge="1">
          <mxGeometry width="100" height="100" relative="1" as="geometry">
            <mxPoint x="340" y="360" as="sourcePoint" />
            <mxPoint x="440" y="260" as="targetPoint" />
            <Array as="points">
              <mxPoint x="520" y="286" />
            </Array>
          </mxGeometry>
        </mxCell>
        <mxCell id="70" value="Existing&#xa;Models" style="text;spacingTop=-5;align=center" parent="1" vertex="1">
          <mxGeometry x="530.0000000000002" y="340.9999999999999" width="30" height="20" as="geometry" />
        </mxCell>
        <mxCell id="71" value="Equipment&#xa;specification" style="text;spacingTop=-5;align=center" parent="1" vertex="1">
          <mxGeometry x="615" y="341" width="30" height="20" as="geometry" />
        </mxCell>
        <mxCell id="72" value="" style="edgeStyle=elbowEdgeStyle;elbow=vertical;strokeColor=#990000;strokeWidth=2" parent="1" source="5" target="7" edge="1">
          <mxGeometry width="100" height="100" relative="1" as="geometry">
            <mxPoint x="500" y="500" as="sourcePoint" />
            <mxPoint x="600" y="400" as="targetPoint" />
            <Array as="points">
              <mxPoint x="650" y="410" />
            </Array>
          </mxGeometry>
        </mxCell>
        <mxCell id="73" value="" style="edgeStyle=elbowEdgeStyle;elbow=vertical;strokeColor=#990000;strokeWidth=2" parent="1" source="7" target="5" edge="1">
          <mxGeometry width="100" height="100" relative="1" as="geometry">
            <mxPoint x="460" y="500" as="sourcePoint" />
            <mxPoint x="560" y="400" as="targetPoint" />
            <Array as="points">
              <mxPoint x="650" y="430" />
            </Array>
          </mxGeometry>
        </mxCell>
        <mxCell id="74" value="Resources" style="text;spacingTop=-5;align=center" parent="1" vertex="1">
          <mxGeometry x="621" y="390.99999999999994" width="30" height="20" as="geometry" />
        </mxCell>
        <mxCell id="75" value="System &#xa;Advantages &#xa;and Limitations" style="text;spacingTop=-5;align=center" parent="1" vertex="1">
          <mxGeometry x="630" y="431.0000000000001" width="30" height="20" as="geometry" />
        </mxCell>
        <mxCell id="76" value="" style="edgeStyle=elbowEdgeStyle;elbow=horizontal;strokeColor=#990000;strokeWidth=2" parent="1" source="9" target="5" edge="1">
          <mxGeometry width="100" height="100" relative="1" as="geometry">
            <mxPoint x="420" y="580" as="sourcePoint" />
            <mxPoint x="520" y="480" as="targetPoint" />
            <Array as="points">
              <mxPoint x="570" y="470" />
            </Array>
          </mxGeometry>
        </mxCell>
        <mxCell id="77" value="" style="edgeStyle=elbowEdgeStyle;elbow=horizontal;strokeColor=#990000;strokeWidth=2" parent="1" source="5" target="9" edge="1">
          <mxGeometry width="100" height="100" relative="1" as="geometry">
            <mxPoint x="400" y="590" as="sourcePoint" />
            <mxPoint x="500" y="490" as="targetPoint" />
            <Array as="points">
              <mxPoint x="560" y="480" />
            </Array>
          </mxGeometry>
        </mxCell>
        <mxCell id="78" value="" style="edgeStyle=elbowEdgeStyle;elbow=horizontal;strokeColor=#990000;strokeWidth=2" parent="1" source="15" target="9" edge="1">
          <mxGeometry width="100" height="100" relative="1" as="geometry">
            <mxPoint x="430" y="700" as="sourcePoint" />
            <mxPoint x="530" y="600" as="targetPoint" />
          </mxGeometry>
        </mxCell>
        <mxCell id="79" value="Hardware and&#xa;Software specs" style="text;spacingTop=-5;align=center" parent="1" vertex="1">
          <mxGeometry x="625" y="610" width="30" height="20" as="geometry" />
        </mxCell>
        <mxCell id="81" value="" style="edgeStyle=elbowEdgeStyle;elbow=horizontal;exitX=0;exitY=0.75;strokeColor=#990000;strokeWidth=2" parent="1" source="9" target="13" edge="1">
          <mxGeometry width="100" height="100" relative="1" as="geometry">
            <mxPoint x="420" y="730" as="sourcePoint" />
            <mxPoint x="520" y="630" as="targetPoint" />
            <Array as="points">
              <mxPoint x="470" y="630" />
            </Array>
          </mxGeometry>
        </mxCell>
        <mxCell id="82" value="Progress&#xa;Reports" style="text;spacingTop=-5;align=center" parent="1" vertex="1">
          <mxGeometry x="481.0000000000004" y="610.0000000000001" width="30" height="20" as="geometry" />
        </mxCell>
        <mxCell id="83" value="" style="edgeStyle=elbowEdgeStyle;elbow=horizontal;strokeColor=#990000;strokeWidth=2" parent="1" source="11" target="13" edge="1">
          <mxGeometry width="100" height="100" relative="1" as="geometry">
            <mxPoint x="200" y="660.0000000000002" as="sourcePoint" />
            <mxPoint x="230.0000000000001" y="650" as="targetPoint" />
          </mxGeometry>
        </mxCell>
        <mxCell id="84" value="Progress&#xa;Reports" style="text;spacingTop=-5;align=center" parent="1" vertex="1">
          <mxGeometry x="410.00000000000017" y="610.0000000000002" width="30" height="20" as="geometry" />
        </mxCell>
        <mxCell id="85" value="" style="edgeStyle=elbowEdgeStyle;elbow=horizontal;strokeColor=#990000;strokeWidth=2" parent="1" source="10" target="13" edge="1">
          <mxGeometry width="100" height="100" relative="1" as="geometry">
            <mxPoint x="130.0000000000001" y="740" as="sourcePoint" />
            <mxPoint x="230.0000000000001" y="640" as="targetPoint" />
            <Array as="points">
              <mxPoint x="244" y="630" />
            </Array>
          </mxGeometry>
        </mxCell>
        <mxCell id="86" value="Progress&#xa;Reports" style="text;spacingTop=-5;align=center" parent="1" vertex="1">
          <mxGeometry x="255.99999999999994" y="650.0000000000001" width="30" height="20" as="geometry" />
        </mxCell>
        <mxCell id="87" value="" style="edgeStyle=elbowEdgeStyle;elbow=vertical;strokeColor=#990000;strokeWidth=2" parent="1" source="10" target="14" edge="1">
          <mxGeometry width="100" height="100" relative="1" as="geometry">
            <mxPoint x="70" y="740" as="sourcePoint" />
            <mxPoint x="170" y="640" as="targetPoint" />
          </mxGeometry>
        </mxCell>
        <mxCell id="88" value="" style="edgeStyle=elbowEdgeStyle;elbow=horizontal;strokeColor=#990000;strokeWidth=2" parent="1" source="5" target="11" edge="1">
          <mxGeometry width="100" height="100" relative="1" as="geometry">
            <mxPoint x="50" y="500" as="sourcePoint" />
            <mxPoint x="150" y="400" as="targetPoint" />
            <Array as="points">
              <mxPoint x="390" y="470" />
            </Array>
          </mxGeometry>
        </mxCell>
        <mxCell id="89" value="" style="edgeStyle=elbowEdgeStyle;elbow=horizontal;strokeColor=#990000;strokeWidth=2" parent="1" source="11" target="5" edge="1">
          <mxGeometry width="100" height="100" relative="1" as="geometry">
            <mxPoint x="59.999999999999886" y="510" as="sourcePoint" />
            <mxPoint x="159.9999999999999" y="410" as="targetPoint" />
            <Array as="points">
              <mxPoint x="410" y="470" />
            </Array>
          </mxGeometry>
        </mxCell>
        <mxCell id="90" value="Version&#xa;specs" style="text;spacingTop=-5;align=center" parent="1" vertex="1">
          <mxGeometry x="261" y="461" width="30" height="20" as="geometry" />
        </mxCell>
        <mxCell id="91" value="Certificates,&#xa;system&#xa;libraries" style="text;spacingTop=-5;align=center" parent="1" vertex="1">
          <mxGeometry x="180" y="461.0000000000002" width="30" height="20" as="geometry" />
        </mxCell>
        <mxCell id="92" value="" style="edgeStyle=elbowEdgeStyle;elbow=horizontal;strokeColor=#990000;strokeWidth=2" parent="1" source="5" target="10" edge="1">
          <mxGeometry width="100" height="100" relative="1" as="geometry">
            <mxPoint x="30.000000000000114" y="500" as="sourcePoint" />
            <mxPoint x="130.0000000000001" y="400" as="targetPoint" />
            <Array as="points">
              <mxPoint x="250" y="470" />
            </Array>
          </mxGeometry>
        </mxCell>
        <mxCell id="93" value="" style="edgeStyle=elbowEdgeStyle;elbow=horizontal;strokeColor=#990000;strokeWidth=2" parent="1" source="10" target="5" edge="1">
          <mxGeometry width="100" height="100" relative="1" as="geometry">
            <mxPoint x="40" y="510" as="sourcePoint" />
            <mxPoint x="140" y="410" as="targetPoint" />
            <Array as="points">
              <mxPoint x="230" y="470" />
            </Array>
          </mxGeometry>
        </mxCell>
        <mxCell id="94" value="System&#xa;specs" style="text;spacingTop=-5;align=center" parent="1" vertex="1">
          <mxGeometry x="139.99999999999994" y="565.0000000000001" width="30" height="20" as="geometry" />
        </mxCell>
        <mxCell id="95" value="Design&#xa;specs" style="text;spacingTop=-5;align=center" parent="1" vertex="1">
          <mxGeometry x="423.49999999999994" y="461.0000000000002" width="30" height="20" as="geometry" />
        </mxCell>
        <mxCell id="96" value="System&#xa;version" style="text;spacingTop=-5;align=center" parent="1" vertex="1">
          <mxGeometry x="350.9999999999998" y="461" width="30" height="20" as="geometry" />
        </mxCell>
      </root>
    </mxGraphModel>
  </diagram>
  <diagram id="0Q9Pg7XEjYBUEZscO0C4" name="Page-2">
    <mxGraphModel dx="1273" dy="570" grid="1" gridSize="10" guides="1" tooltips="1" connect="1" arrows="1" fold="1" page="1" pageScale="1" pageWidth="850" pageHeight="1100" math="0" shadow="0">
      <root>
        <mxCell id="0" />
        <mxCell id="1" parent="0" />
        <mxCell id="G9hAGLQ0QLvyj3-e32F3-1" value="&lt;p style=&quot;margin: 0px; margin-top: 4px; text-align: center; text-decoration: underline;&quot;&gt;&lt;strong&gt;Research&lt;/strong&gt;&lt;/p&gt;&lt;p style=&quot;margin: 0px; margin-top: 4px; text-align: center; text-decoration: underline;&quot;&gt;&lt;strong&gt;Agent&lt;br&gt;&lt;/strong&gt;&lt;/p&gt;&lt;hr&gt;&lt;p style=&quot;margin: 0px; margin-left: 8px;&quot;&gt;&lt;br&gt;&lt;/p&gt;" style="verticalAlign=middle;align=center;overflow=fill;fontSize=12;fontFamily=Helvetica;html=1;rounded=1;fontStyle=1;strokeWidth=3;fillColor=#E6FFCC" parent="1" vertex="1">
          <mxGeometry x="120" y="60" width="110" height="90" as="geometry" />
        </mxCell>
        <mxCell id="G9hAGLQ0QLvyj3-e32F3-2" value="&lt;p style=&quot;margin: 0px; margin-top: 4px; text-align: center; text-decoration: underline;&quot;&gt;&lt;strong&gt;Math Agent&lt;br&gt;&lt;/strong&gt;&lt;/p&gt;&lt;hr&gt;&lt;p style=&quot;margin: 0px; margin-left: 8px;&quot;&gt;&lt;br&gt;&lt;/p&gt;" style="verticalAlign=middle;align=center;overflow=fill;fontSize=12;fontFamily=Helvetica;html=1;rounded=1;fontStyle=1;strokeWidth=3;fillColor=#E6FFCC" parent="1" vertex="1">
          <mxGeometry x="440" y="60" width="110" height="90" as="geometry" />
        </mxCell>
        <mxCell id="G9hAGLQ0QLvyj3-e32F3-4" value="good at finding information" style="text;html=1;align=center;verticalAlign=middle;whiteSpace=wrap;rounded=0;" parent="1" vertex="1">
          <mxGeometry x="145" y="110" width="60" height="30" as="geometry" />
        </mxCell>
        <mxCell id="G9hAGLQ0QLvyj3-e32F3-5" value="good at calculations" style="text;html=1;align=center;verticalAlign=middle;whiteSpace=wrap;rounded=0;" parent="1" vertex="1">
          <mxGeometry x="465" y="110" width="60" height="30" as="geometry" />
        </mxCell>
        <mxCell id="G9hAGLQ0QLvyj3-e32F3-6" value="&lt;p style=&quot;margin: 0px; margin-top: 4px; text-align: center; text-decoration: underline;&quot;&gt;&lt;strong&gt;Research&lt;/strong&gt;&lt;/p&gt;&lt;p style=&quot;margin: 0px; margin-top: 4px; text-align: center; text-decoration: underline;&quot;&gt;&lt;strong&gt;Agent&lt;br&gt;&lt;/strong&gt;&lt;/p&gt;&lt;hr&gt;&lt;p style=&quot;margin: 0px; margin-left: 8px;&quot;&gt;&lt;br&gt;&lt;/p&gt;" style="verticalAlign=middle;align=center;overflow=fill;fontSize=12;fontFamily=Helvetica;html=1;rounded=1;fontStyle=1;strokeWidth=3;" parent="1" vertex="1">
          <mxGeometry x="70" y="250" width="430" height="320" as="geometry" />
        </mxCell>
        <mxCell id="G9hAGLQ0QLvyj3-e32F3-8" value="&lt;p style=&quot;margin: 0px; margin-top: 4px; text-align: center; text-decoration: underline;&quot;&gt;&lt;strong&gt;Math&lt;/strong&gt;&lt;/p&gt;&lt;p style=&quot;margin: 0px; margin-top: 4px; text-align: center; text-decoration: underline;&quot;&gt;&lt;strong&gt;Agent&lt;br&gt;&lt;/strong&gt;&lt;/p&gt;&lt;hr&gt;&lt;p style=&quot;margin: 0px; margin-left: 8px;&quot;&gt;&lt;br&gt;&lt;/p&gt;" style="verticalAlign=middle;align=center;overflow=fill;fontSize=12;fontFamily=Helvetica;html=1;rounded=1;fontStyle=1;strokeWidth=3;" parent="1" vertex="1">
          <mxGeometry x="1470" y="250" width="250" height="290" as="geometry" />
        </mxCell>
        <mxCell id="G9hAGLQ0QLvyj3-e32F3-9" value="1" style="ellipse;whiteSpace=wrap;html=1;aspect=fixed;rotation=0;gradientColor=#223548;strokeColor=none;gradientDirection=east;fillColor=#5b738b;rounded=0;pointerEvents=0;fontFamily=Helvetica;fontSize=16;fontColor=#FFFFFF;spacingTop=4;spacingBottom=4;spacingLeft=4;spacingRight=4;points=[];fontStyle=1" parent="1" vertex="1">
          <mxGeometry x="80" y="310" width="30" height="30" as="geometry" />
        </mxCell>
        <mxCell id="G9hAGLQ0QLvyj3-e32F3-10" value="Declare Capabilities" style="text;html=1;align=center;verticalAlign=middle;whiteSpace=wrap;rounded=0;" parent="1" vertex="1">
          <mxGeometry x="110" y="310" width="120" height="30" as="geometry" />
        </mxCell>
        <UserObject label="&lt;font style=&quot;font-size: 10px; color: rgb(255, 0, 0);&quot;&gt;&lt;span id=&quot;__span-1-1&quot; style=&quot;box-sizing: inherit; font-family: &amp;quot;Roboto Mono&amp;quot;, SFMono-Regular, Consolas, Menlo, monospace; font-style: normal; font-variant-ligatures: none; font-variant-caps: normal; font-weight: 400; letter-spacing: normal; orphans: 2; text-align: start; text-indent: 0px; text-transform: none; widows: 2; word-spacing: 0px; -webkit-text-stroke-width: 0px; white-space: pre; text-decoration-thickness: initial; text-decoration-style: initial; text-decoration-color: initial;&quot;&gt;&lt;span class=&quot;p&quot; style=&quot;box-sizing: inherit;&quot;&gt;{&lt;/span&gt;&lt;br&gt;&lt;/span&gt;&lt;span id=&quot;__span-1-2&quot; style=&quot;box-sizing: inherit; font-family: &amp;quot;Roboto Mono&amp;quot;, SFMono-Regular, Consolas, Menlo, monospace; font-style: normal; font-variant-ligatures: none; font-variant-caps: normal; font-weight: 400; letter-spacing: normal; orphans: 2; text-align: start; text-indent: 0px; text-transform: none; widows: 2; word-spacing: 0px; -webkit-text-stroke-width: 0px; white-space: pre; text-decoration-thickness: initial; text-decoration-style: initial; text-decoration-color: initial;&quot;&gt;&lt;a id=&quot;__codelineno-1-2&quot; name=&quot;__codelineno-1-2&quot; href=&quot;https://google.github.io/A2A/tutorials/python/4-agent-skills/#__codelineno-1-2&quot; style=&quot;box-sizing: inherit; -webkit-tap-highlight-color: transparent; text-decoration: none; word-break: break-word; transition: color 125ms; position: absolute; visibility: hidden;&quot;&gt;&lt;/a&gt;&lt;span class=&quot;w&quot; style=&quot;box-sizing: inherit;&quot;&gt;  &lt;/span&gt;&lt;span class=&quot;nx&quot; style=&quot;box-sizing: inherit;&quot;&gt;id&lt;/span&gt;&lt;span class=&quot;o&quot; style=&quot;box-sizing: inherit;&quot;&gt;:&lt;/span&gt;&lt;span class=&quot;w&quot; style=&quot;box-sizing: inherit;&quot;&gt; &lt;/span&gt;&lt;span class=&quot;kt&quot; style=&quot;box-sizing: inherit;&quot;&gt;string&lt;/span&gt;&lt;span class=&quot;p&quot; style=&quot;box-sizing: inherit;&quot;&gt;;&lt;/span&gt;&lt;span class=&quot;w&quot; style=&quot;box-sizing: inherit;&quot;&gt; &lt;/span&gt;&lt;span class=&quot;c1&quot; style=&quot;box-sizing: inherit;&quot;&gt;// unique identifier for the agent&#39;s skill&lt;/span&gt;&lt;br&gt;&lt;/span&gt;&lt;span id=&quot;__span-1-3&quot; style=&quot;box-sizing: inherit; font-family: &amp;quot;Roboto Mono&amp;quot;, SFMono-Regular, Consolas, Menlo, monospace; font-style: normal; font-variant-ligatures: none; font-variant-caps: normal; font-weight: 400; letter-spacing: normal; orphans: 2; text-align: start; text-indent: 0px; text-transform: none; widows: 2; word-spacing: 0px; -webkit-text-stroke-width: 0px; white-space: pre; text-decoration-thickness: initial; text-decoration-style: initial; text-decoration-color: initial;&quot;&gt;&lt;a id=&quot;__codelineno-1-3&quot; name=&quot;__codelineno-1-3&quot; href=&quot;https://google.github.io/A2A/tutorials/python/4-agent-skills/#__codelineno-1-3&quot; style=&quot;box-sizing: inherit; -webkit-tap-highlight-color: transparent; text-decoration: none; word-break: break-word; transition: color 125ms; position: absolute; visibility: hidden;&quot;&gt;&lt;/a&gt;&lt;span class=&quot;w&quot; style=&quot;box-sizing: inherit;&quot;&gt;  &lt;/span&gt;&lt;span class=&quot;nx&quot; style=&quot;box-sizing: inherit;&quot;&gt;name&lt;/span&gt;&lt;span class=&quot;o&quot; style=&quot;box-sizing: inherit;&quot;&gt;:&lt;/span&gt;&lt;span class=&quot;w&quot; style=&quot;box-sizing: inherit;&quot;&gt; &lt;/span&gt;&lt;span class=&quot;kt&quot; style=&quot;box-sizing: inherit;&quot;&gt;string&lt;/span&gt;&lt;span class=&quot;p&quot; style=&quot;box-sizing: inherit;&quot;&gt;;&lt;/span&gt;&lt;span class=&quot;w&quot; style=&quot;box-sizing: inherit;&quot;&gt; &lt;/span&gt;&lt;span class=&quot;c1&quot; style=&quot;box-sizing: inherit;&quot;&gt;//human readable name of the skill&lt;/span&gt;&lt;br&gt;&lt;/span&gt;&lt;span id=&quot;__span-1-4&quot; style=&quot;box-sizing: inherit; font-family: &amp;quot;Roboto Mono&amp;quot;, SFMono-Regular, Consolas, Menlo, monospace; font-style: normal; font-variant-ligatures: none; font-variant-caps: normal; font-weight: 400; letter-spacing: normal; orphans: 2; text-align: start; text-indent: 0px; text-transform: none; widows: 2; word-spacing: 0px; -webkit-text-stroke-width: 0px; white-space: pre; text-decoration-thickness: initial; text-decoration-style: initial; text-decoration-color: initial;&quot;&gt;&lt;a id=&quot;__codelineno-1-4&quot; name=&quot;__codelineno-1-4&quot; href=&quot;https://google.github.io/A2A/tutorials/python/4-agent-skills/#__codelineno-1-4&quot; style=&quot;box-sizing: inherit; -webkit-tap-highlight-color: transparent; text-decoration: none; word-break: break-word; transition: color 125ms; position: absolute; visibility: hidden;&quot;&gt;&lt;/a&gt;&lt;span class=&quot;w&quot; style=&quot;box-sizing: inherit;&quot;&gt;  &lt;/span&gt;&lt;span class=&quot;c1&quot; style=&quot;box-sizing: inherit;&quot;&gt;// description of the skill - will be used by the client or a human&lt;/span&gt;&lt;br&gt;&lt;/span&gt;&lt;span id=&quot;__span-1-5&quot; style=&quot;box-sizing: inherit; font-family: &amp;quot;Roboto Mono&amp;quot;, SFMono-Regular, Consolas, Menlo, monospace; font-style: normal; font-variant-ligatures: none; font-variant-caps: normal; font-weight: 400; letter-spacing: normal; orphans: 2; text-align: start; text-indent: 0px; text-transform: none; widows: 2; word-spacing: 0px; -webkit-text-stroke-width: 0px; white-space: pre; text-decoration-thickness: initial; text-decoration-style: initial; text-decoration-color: initial;&quot;&gt;&lt;a id=&quot;__codelineno-1-5&quot; name=&quot;__codelineno-1-5&quot; href=&quot;https://google.github.io/A2A/tutorials/python/4-agent-skills/#__codelineno-1-5&quot; style=&quot;box-sizing: inherit; -webkit-tap-highlight-color: transparent; text-decoration: none; word-break: break-word; transition: color 125ms; position: absolute; visibility: hidden;&quot;&gt;&lt;/a&gt;&lt;span class=&quot;w&quot; style=&quot;box-sizing: inherit;&quot;&gt;  &lt;/span&gt;&lt;span class=&quot;c1&quot; style=&quot;box-sizing: inherit;&quot;&gt;// as a hint to understand what the skill does.&lt;/span&gt;&lt;br&gt;&lt;/span&gt;&lt;span id=&quot;__span-1-6&quot; style=&quot;box-sizing: inherit; font-family: &amp;quot;Roboto Mono&amp;quot;, SFMono-Regular, Consolas, Menlo, monospace; font-style: normal; font-variant-ligatures: none; font-variant-caps: normal; font-weight: 400; letter-spacing: normal; orphans: 2; text-align: start; text-indent: 0px; text-transform: none; widows: 2; word-spacing: 0px; -webkit-text-stroke-width: 0px; white-space: pre; text-decoration-thickness: initial; text-decoration-style: initial; text-decoration-color: initial;&quot;&gt;&lt;a id=&quot;__codelineno-1-6&quot; name=&quot;__codelineno-1-6&quot; href=&quot;https://google.github.io/A2A/tutorials/python/4-agent-skills/#__codelineno-1-6&quot; style=&quot;box-sizing: inherit; -webkit-tap-highlight-color: transparent; text-decoration: none; word-break: break-word; transition: color 125ms; position: absolute; visibility: hidden;&quot;&gt;&lt;/a&gt;&lt;span class=&quot;w&quot; style=&quot;box-sizing: inherit;&quot;&gt;  &lt;/span&gt;&lt;span class=&quot;nx&quot; style=&quot;box-sizing: inherit;&quot;&gt;description&lt;/span&gt;&lt;span class=&quot;o&quot; style=&quot;box-sizing: inherit;&quot;&gt;:&lt;/span&gt;&lt;span class=&quot;w&quot; style=&quot;box-sizing: inherit;&quot;&gt; &lt;/span&gt;&lt;span class=&quot;kt&quot; style=&quot;box-sizing: inherit;&quot;&gt;string&lt;/span&gt;&lt;span class=&quot;p&quot; style=&quot;box-sizing: inherit;&quot;&gt;;&lt;/span&gt;&lt;br&gt;&lt;/span&gt;&lt;span id=&quot;__span-1-7&quot; style=&quot;box-sizing: inherit; font-family: &amp;quot;Roboto Mono&amp;quot;, SFMono-Regular, Consolas, Menlo, monospace; font-style: normal; font-variant-ligatures: none; font-variant-caps: normal; font-weight: 400; letter-spacing: normal; orphans: 2; text-align: start; text-indent: 0px; text-transform: none; widows: 2; word-spacing: 0px; -webkit-text-stroke-width: 0px; white-space: pre; text-decoration-thickness: initial; text-decoration-style: initial; text-decoration-color: initial;&quot;&gt;&lt;a id=&quot;__codelineno-1-7&quot; name=&quot;__codelineno-1-7&quot; href=&quot;https://google.github.io/A2A/tutorials/python/4-agent-skills/#__codelineno-1-7&quot; style=&quot;box-sizing: inherit; -webkit-tap-highlight-color: transparent; text-decoration: none; word-break: break-word; transition: color 125ms; position: absolute; visibility: hidden;&quot;&gt;&lt;/a&gt;&lt;span class=&quot;w&quot; style=&quot;box-sizing: inherit;&quot;&gt;  &lt;/span&gt;&lt;span class=&quot;c1&quot; style=&quot;box-sizing: inherit;&quot;&gt;// Set of tag words describing classes of capabilities for this specific&lt;/span&gt;&lt;br&gt;&lt;/span&gt;&lt;span id=&quot;__span-1-8&quot; style=&quot;box-sizing: inherit; font-family: &amp;quot;Roboto Mono&amp;quot;, SFMono-Regular, Consolas, Menlo, monospace; font-style: normal; font-variant-ligatures: none; font-variant-caps: normal; font-weight: 400; letter-spacing: normal; orphans: 2; text-align: start; text-indent: 0px; text-transform: none; widows: 2; word-spacing: 0px; -webkit-text-stroke-width: 0px; white-space: pre; text-decoration-thickness: initial; text-decoration-style: initial; text-decoration-color: initial;&quot;&gt;&lt;a id=&quot;__codelineno-1-8&quot; name=&quot;__codelineno-1-8&quot; href=&quot;https://google.github.io/A2A/tutorials/python/4-agent-skills/#__codelineno-1-8&quot; style=&quot;box-sizing: inherit; -webkit-tap-highlight-color: transparent; text-decoration: none; word-break: break-word; transition: color 125ms; position: absolute; visibility: hidden;&quot;&gt;&lt;/a&gt;&lt;span class=&quot;w&quot; style=&quot;box-sizing: inherit;&quot;&gt;  &lt;/span&gt;&lt;span class=&quot;c1&quot; style=&quot;box-sizing: inherit;&quot;&gt;// skill (e.g. &quot;cooking&quot;, &quot;customer support&quot;, &quot;billing&quot;)&lt;/span&gt;&lt;br&gt;&lt;/span&gt;&lt;span id=&quot;__span-1-9&quot; style=&quot;box-sizing: inherit; font-family: &amp;quot;Roboto Mono&amp;quot;, SFMono-Regular, Consolas, Menlo, monospace; font-style: normal; font-variant-ligatures: none; font-variant-caps: normal; font-weight: 400; letter-spacing: normal; orphans: 2; text-align: start; text-indent: 0px; text-transform: none; widows: 2; word-spacing: 0px; -webkit-text-stroke-width: 0px; white-space: pre; text-decoration-thickness: initial; text-decoration-style: initial; text-decoration-color: initial;&quot;&gt;&lt;a id=&quot;__codelineno-1-9&quot; name=&quot;__codelineno-1-9&quot; href=&quot;https://google.github.io/A2A/tutorials/python/4-agent-skills/#__codelineno-1-9&quot; style=&quot;box-sizing: inherit; -webkit-tap-highlight-color: transparent; text-decoration: none; word-break: break-word; transition: color 125ms; position: absolute; visibility: hidden;&quot;&gt;&lt;/a&gt;&lt;span class=&quot;w&quot; style=&quot;box-sizing: inherit;&quot;&gt;  &lt;/span&gt;&lt;span class=&quot;nx&quot; style=&quot;box-sizing: inherit;&quot;&gt;tags&lt;/span&gt;&lt;span class=&quot;o&quot; style=&quot;box-sizing: inherit;&quot;&gt;:&lt;/span&gt;&lt;span class=&quot;w&quot; style=&quot;box-sizing: inherit;&quot;&gt; &lt;/span&gt;&lt;span class=&quot;kt&quot; style=&quot;box-sizing: inherit;&quot;&gt;string&lt;/span&gt;&lt;span class=&quot;p&quot; style=&quot;box-sizing: inherit;&quot;&gt;[];&lt;/span&gt;&lt;br&gt;&lt;/span&gt;&lt;span id=&quot;__span-1-10&quot; style=&quot;box-sizing: inherit; font-family: &amp;quot;Roboto Mono&amp;quot;, SFMono-Regular, Consolas, Menlo, monospace; font-style: normal; font-variant-ligatures: none; font-variant-caps: normal; font-weight: 400; letter-spacing: normal; orphans: 2; text-align: start; text-indent: 0px; text-transform: none; widows: 2; word-spacing: 0px; -webkit-text-stroke-width: 0px; white-space: pre; text-decoration-thickness: initial; text-decoration-style: initial; text-decoration-color: initial;&quot;&gt;&lt;a id=&quot;__codelineno-1-10&quot; name=&quot;__codelineno-1-10&quot; href=&quot;https://google.github.io/A2A/tutorials/python/4-agent-skills/#__codelineno-1-10&quot; style=&quot;box-sizing: inherit; -webkit-tap-highlight-color: transparent; text-decoration: none; word-break: break-word; transition: color 125ms; position: absolute; visibility: hidden;&quot;&gt;&lt;/a&gt;&lt;span class=&quot;w&quot; style=&quot;box-sizing: inherit;&quot;&gt;  &lt;/span&gt;&lt;span class=&quot;c1&quot; style=&quot;box-sizing: inherit;&quot;&gt;// The set of example scenarios that the skill can perform.&lt;/span&gt;&lt;br&gt;&lt;/span&gt;&lt;span id=&quot;__span-1-11&quot; style=&quot;box-sizing: inherit; font-family: &amp;quot;Roboto Mono&amp;quot;, SFMono-Regular, Consolas, Menlo, monospace; font-style: normal; font-variant-ligatures: none; font-variant-caps: normal; font-weight: 400; letter-spacing: normal; orphans: 2; text-align: start; text-indent: 0px; text-transform: none; widows: 2; word-spacing: 0px; -webkit-text-stroke-width: 0px; white-space: pre; text-decoration-thickness: initial; text-decoration-style: initial; text-decoration-color: initial;&quot;&gt;&lt;a id=&quot;__codelineno-1-11&quot; name=&quot;__codelineno-1-11&quot; href=&quot;https://google.github.io/A2A/tutorials/python/4-agent-skills/#__codelineno-1-11&quot; style=&quot;box-sizing: inherit; -webkit-tap-highlight-color: transparent; text-decoration: none; word-break: break-word; transition: color 125ms; position: absolute; visibility: hidden;&quot;&gt;&lt;/a&gt;&lt;span class=&quot;w&quot; style=&quot;box-sizing: inherit;&quot;&gt;  &lt;/span&gt;&lt;span class=&quot;c1&quot; style=&quot;box-sizing: inherit;&quot;&gt;// Will be used by the client as a hint to understand how the skill can be&lt;/span&gt;&lt;br&gt;&lt;/span&gt;&lt;span id=&quot;__span-1-12&quot; style=&quot;box-sizing: inherit; font-family: &amp;quot;Roboto Mono&amp;quot;, SFMono-Regular, Consolas, Menlo, monospace; font-style: normal; font-variant-ligatures: none; font-variant-caps: normal; font-weight: 400; letter-spacing: normal; orphans: 2; text-align: start; text-indent: 0px; text-transform: none; widows: 2; word-spacing: 0px; -webkit-text-stroke-width: 0px; white-space: pre; text-decoration-thickness: initial; text-decoration-style: initial; text-decoration-color: initial;&quot;&gt;&lt;a id=&quot;__codelineno-1-12&quot; name=&quot;__codelineno-1-12&quot; href=&quot;https://google.github.io/A2A/tutorials/python/4-agent-skills/#__codelineno-1-12&quot; style=&quot;box-sizing: inherit; -webkit-tap-highlight-color: transparent; text-decoration: none; word-break: break-word; transition: color 125ms; position: absolute; visibility: hidden;&quot;&gt;&lt;/a&gt;&lt;span class=&quot;w&quot; style=&quot;box-sizing: inherit;&quot;&gt;  &lt;/span&gt;&lt;span class=&quot;c1&quot; style=&quot;box-sizing: inherit;&quot;&gt;// used. (e.g. &quot;I need a recipe for bread&quot;)&lt;/span&gt;&lt;br&gt;&lt;/span&gt;&lt;span id=&quot;__span-1-13&quot; style=&quot;box-sizing: inherit; font-family: &amp;quot;Roboto Mono&amp;quot;, SFMono-Regular, Consolas, Menlo, monospace; font-style: normal; font-variant-ligatures: none; font-variant-caps: normal; font-weight: 400; letter-spacing: normal; orphans: 2; text-align: start; text-indent: 0px; text-transform: none; widows: 2; word-spacing: 0px; -webkit-text-stroke-width: 0px; white-space: pre; text-decoration-thickness: initial; text-decoration-style: initial; text-decoration-color: initial;&quot;&gt;&lt;a id=&quot;__codelineno-1-13&quot; name=&quot;__codelineno-1-13&quot; href=&quot;https://google.github.io/A2A/tutorials/python/4-agent-skills/#__codelineno-1-13&quot; style=&quot;box-sizing: inherit; -webkit-tap-highlight-color: transparent; text-decoration: none; word-break: break-word; transition: color 125ms; position: absolute; visibility: hidden;&quot;&gt;&lt;/a&gt;&lt;span class=&quot;w&quot; style=&quot;box-sizing: inherit;&quot;&gt;  &lt;/span&gt;&lt;span class=&quot;nx&quot; style=&quot;box-sizing: inherit;&quot;&gt;examples?&lt;/span&gt;&lt;span class=&quot;o&quot; style=&quot;box-sizing: inherit;&quot;&gt;:&lt;/span&gt;&lt;span class=&quot;w&quot; style=&quot;box-sizing: inherit;&quot;&gt; &lt;/span&gt;&lt;span class=&quot;kt&quot; style=&quot;box-sizing: inherit;&quot;&gt;string&lt;/span&gt;&lt;span class=&quot;p&quot; style=&quot;box-sizing: inherit;&quot;&gt;[];&lt;/span&gt;&lt;span class=&quot;w&quot; style=&quot;box-sizing: inherit;&quot;&gt; &lt;/span&gt;&lt;span class=&quot;c1&quot; style=&quot;box-sizing: inherit;&quot;&gt;// example prompts for tasks&lt;/span&gt;&lt;br&gt;&lt;/span&gt;&lt;span id=&quot;__span-1-14&quot; style=&quot;box-sizing: inherit; font-family: &amp;quot;Roboto Mono&amp;quot;, SFMono-Regular, Consolas, Menlo, monospace; font-style: normal; font-variant-ligatures: none; font-variant-caps: normal; font-weight: 400; letter-spacing: normal; orphans: 2; text-align: start; text-indent: 0px; text-transform: none; widows: 2; word-spacing: 0px; -webkit-text-stroke-width: 0px; white-space: pre; text-decoration-thickness: initial; text-decoration-style: initial; text-decoration-color: initial;&quot;&gt;&lt;a id=&quot;__codelineno-1-14&quot; name=&quot;__codelineno-1-14&quot; href=&quot;https://google.github.io/A2A/tutorials/python/4-agent-skills/#__codelineno-1-14&quot; style=&quot;box-sizing: inherit; -webkit-tap-highlight-color: transparent; text-decoration: none; word-break: break-word; transition: color 125ms; position: absolute; visibility: hidden;&quot;&gt;&lt;/a&gt;&lt;span class=&quot;w&quot; style=&quot;box-sizing: inherit;&quot;&gt;  &lt;/span&gt;&lt;span class=&quot;c1&quot; style=&quot;box-sizing: inherit;&quot;&gt;// The set of interaction modes that the skill supports&lt;/span&gt;&lt;br&gt;&lt;/span&gt;&lt;span id=&quot;__span-1-15&quot; style=&quot;box-sizing: inherit; font-family: &amp;quot;Roboto Mono&amp;quot;, SFMono-Regular, Consolas, Menlo, monospace; font-style: normal; font-variant-ligatures: none; font-variant-caps: normal; font-weight: 400; letter-spacing: normal; orphans: 2; text-align: start; text-indent: 0px; text-transform: none; widows: 2; word-spacing: 0px; -webkit-text-stroke-width: 0px; white-space: pre; text-decoration-thickness: initial; text-decoration-style: initial; text-decoration-color: initial;&quot;&gt;&lt;a id=&quot;__codelineno-1-15&quot; name=&quot;__codelineno-1-15&quot; href=&quot;https://google.github.io/A2A/tutorials/python/4-agent-skills/#__codelineno-1-15&quot; style=&quot;box-sizing: inherit; -webkit-tap-highlight-color: transparent; text-decoration: none; word-break: break-word; transition: color 125ms; position: absolute; visibility: hidden;&quot;&gt;&lt;/a&gt;&lt;span class=&quot;w&quot; style=&quot;box-sizing: inherit;&quot;&gt;  &lt;/span&gt;&lt;span class=&quot;c1&quot; style=&quot;box-sizing: inherit;&quot;&gt;// (if different than the default)&lt;/span&gt;&lt;br&gt;&lt;/span&gt;&lt;span id=&quot;__span-1-16&quot; style=&quot;box-sizing: inherit; font-family: &amp;quot;Roboto Mono&amp;quot;, SFMono-Regular, Consolas, Menlo, monospace; font-style: normal; font-variant-ligatures: none; font-variant-caps: normal; font-weight: 400; letter-spacing: normal; orphans: 2; text-align: start; text-indent: 0px; text-transform: none; widows: 2; word-spacing: 0px; -webkit-text-stroke-width: 0px; white-space: pre; text-decoration-thickness: initial; text-decoration-style: initial; text-decoration-color: initial;&quot;&gt;&lt;a id=&quot;__codelineno-1-16&quot; name=&quot;__codelineno-1-16&quot; href=&quot;https://google.github.io/A2A/tutorials/python/4-agent-skills/#__codelineno-1-16&quot; style=&quot;box-sizing: inherit; -webkit-tap-highlight-color: transparent; text-decoration: none; word-break: break-word; transition: color 125ms; position: absolute; visibility: hidden;&quot;&gt;&lt;/a&gt;&lt;span class=&quot;w&quot; style=&quot;box-sizing: inherit;&quot;&gt;  &lt;/span&gt;&lt;span class=&quot;nx&quot; style=&quot;box-sizing: inherit;&quot;&gt;inputModes?&lt;/span&gt;&lt;span class=&quot;o&quot; style=&quot;box-sizing: inherit;&quot;&gt;:&lt;/span&gt;&lt;span class=&quot;w&quot; style=&quot;box-sizing: inherit;&quot;&gt; &lt;/span&gt;&lt;span class=&quot;kt&quot; style=&quot;box-sizing: inherit;&quot;&gt;string&lt;/span&gt;&lt;span class=&quot;p&quot; style=&quot;box-sizing: inherit;&quot;&gt;[];&lt;/span&gt;&lt;span class=&quot;w&quot; style=&quot;box-sizing: inherit;&quot;&gt; &lt;/span&gt;&lt;span class=&quot;c1&quot; style=&quot;box-sizing: inherit;&quot;&gt;// supported mime types for input&lt;/span&gt;&lt;br&gt;&lt;/span&gt;&lt;span id=&quot;__span-1-17&quot; style=&quot;box-sizing: inherit; font-family: &amp;quot;Roboto Mono&amp;quot;, SFMono-Regular, Consolas, Menlo, monospace; font-style: normal; font-variant-ligatures: none; font-variant-caps: normal; font-weight: 400; letter-spacing: normal; orphans: 2; text-align: start; text-indent: 0px; text-transform: none; widows: 2; word-spacing: 0px; -webkit-text-stroke-width: 0px; white-space: pre; text-decoration-thickness: initial; text-decoration-style: initial; text-decoration-color: initial;&quot;&gt;&lt;a id=&quot;__codelineno-1-17&quot; name=&quot;__codelineno-1-17&quot; href=&quot;https://google.github.io/A2A/tutorials/python/4-agent-skills/#__codelineno-1-17&quot; style=&quot;box-sizing: inherit; -webkit-tap-highlight-color: transparent; text-decoration: none; word-break: break-word; transition: color 125ms; position: absolute; visibility: hidden;&quot;&gt;&lt;/a&gt;&lt;span class=&quot;w&quot; style=&quot;box-sizing: inherit;&quot;&gt;  &lt;/span&gt;&lt;span class=&quot;nx&quot; style=&quot;box-sizing: inherit;&quot;&gt;outputModes?&lt;/span&gt;&lt;span class=&quot;o&quot; style=&quot;box-sizing: inherit;&quot;&gt;:&lt;/span&gt;&lt;span class=&quot;w&quot; style=&quot;box-sizing: inherit;&quot;&gt; &lt;/span&gt;&lt;span class=&quot;kt&quot; style=&quot;box-sizing: inherit;&quot;&gt;string&lt;/span&gt;&lt;span class=&quot;p&quot; style=&quot;box-sizing: inherit;&quot;&gt;[];&lt;/span&gt;&lt;span class=&quot;w&quot; style=&quot;box-sizing: inherit;&quot;&gt; &lt;/span&gt;&lt;span class=&quot;c1&quot; style=&quot;box-sizing: inherit;&quot;&gt;// supported mime types for output&lt;/span&gt;&lt;br&gt;&lt;/span&gt;&lt;span id=&quot;__span-1-18&quot; style=&quot;box-sizing: inherit; font-family: &amp;quot;Roboto Mono&amp;quot;, SFMono-Regular, Consolas, Menlo, monospace; font-style: normal; font-variant-ligatures: none; font-variant-caps: normal; font-weight: 400; letter-spacing: normal; orphans: 2; text-align: start; text-indent: 0px; text-transform: none; widows: 2; word-spacing: 0px; -webkit-text-stroke-width: 0px; white-space: pre; text-decoration-thickness: initial; text-decoration-style: initial; text-decoration-color: initial;&quot;&gt;&lt;a id=&quot;__codelineno-1-18&quot; name=&quot;__codelineno-1-18&quot; href=&quot;https://google.github.io/A2A/tutorials/python/4-agent-skills/#__codelineno-1-18&quot; style=&quot;box-sizing: inherit; -webkit-tap-highlight-color: transparent; text-decoration: none; word-break: break-word; transition: color 125ms; position: absolute; visibility: hidden;&quot;&gt;&lt;/a&gt;&lt;span class=&quot;p&quot; style=&quot;box-sizing: inherit;&quot;&gt;}&lt;/span&gt;&lt;/span&gt;&lt;/font&gt;" link="&lt;span id=&quot;__span-1-1&quot; style=&quot;box-sizing: inherit; color: rgb(54, 70, 78); font-family: &amp;quot;Roboto Mono&amp;quot;, SFMono-Regular, Consolas, Menlo, monospace; font-size: 13.6px; font-style: normal; font-variant-ligatures: none; font-variant-caps: normal; font-weight: 400; letter-spacing: normal; orphans: 2; text-align: start; text-indent: 0px; text-transform: none; widows: 2; word-spacing: 0px; -webkit-text-stroke-width: 0px; white-space: pre; text-decoration-thickness: initial; text-decoration-style: initial; text-decoration-color: initial;&quot;&gt;&lt;span class=&quot;p&quot; style=&quot;box-sizing: inherit; color: rgba(0, 0, 0, 0.54);&quot;&gt;{&lt;/span&gt;&#xa;&lt;/span&gt;&lt;span id=&quot;__span-1-2&quot; style=&quot;box-sizing: inherit; color: rgb(54, 70, 78); font-family: &amp;quot;Roboto Mono&amp;quot;, SFMono-Regular, Consolas, Menlo, monospace; font-size: 13.6px; font-style: normal; font-variant-ligatures: none; font-variant-caps: normal; font-weight: 400; letter-spacing: normal; orphans: 2; text-align: start; text-indent: 0px; text-transform: none; widows: 2; word-spacing: 0px; -webkit-text-stroke-width: 0px; white-space: pre; text-decoration-thickness: initial; text-decoration-style: initial; text-decoration-color: initial;&quot;&gt;&lt;a id=&quot;__codelineno-1-2&quot; name=&quot;__codelineno-1-2&quot; href=&quot;https://google.github.io/A2A/tutorials/python/4-agent-skills/#__codelineno-1-2&quot; style=&quot;box-sizing: inherit; -webkit-tap-highlight-color: transparent; color: rgb(64, 81, 181); text-decoration: none; word-break: break-word; transition: color 125ms; position: absolute; visibility: hidden;&quot;&gt;&lt;/a&gt;&lt;span class=&quot;w&quot; style=&quot;box-sizing: inherit;&quot;&gt;  &lt;/span&gt;&lt;span class=&quot;nx&quot; style=&quot;box-sizing: inherit;&quot;&gt;id&lt;/span&gt;&lt;span class=&quot;o&quot; style=&quot;box-sizing: inherit; color: rgba(0, 0, 0, 0.54);&quot;&gt;:&lt;/span&gt;&lt;span class=&quot;w&quot; style=&quot;box-sizing: inherit;&quot;&gt; &lt;/span&gt;&lt;span class=&quot;kt&quot; style=&quot;box-sizing: inherit; color: rgb(63, 110, 198);&quot;&gt;string&lt;/span&gt;&lt;span class=&quot;p&quot; style=&quot;box-sizing: inherit; color: rgba(0, 0, 0, 0.54);&quot;&gt;;&lt;/span&gt;&lt;span class=&quot;w&quot; style=&quot;box-sizing: inherit;&quot;&gt; &lt;/span&gt;&lt;span class=&quot;c1&quot; style=&quot;box-sizing: inherit; color: rgba(0, 0, 0, 0.54);&quot;&gt;// unique identifier for the agent&#39;s skill&lt;/span&gt;&#xa;&lt;/span&gt;&lt;span id=&quot;__span-1-3&quot; style=&quot;box-sizing: inherit; color: rgb(54, 70, 78); font-family: &amp;quot;Roboto Mono&amp;quot;, SFMono-Regular, Consolas, Menlo, monospace; font-size: 13.6px; font-style: normal; font-variant-ligatures: none; font-variant-caps: normal; font-weight: 400; letter-spacing: normal; orphans: 2; text-align: start; text-indent: 0px; text-transform: none; widows: 2; word-spacing: 0px; -webkit-text-stroke-width: 0px; white-space: pre; text-decoration-thickness: initial; text-decoration-style: initial; text-decoration-color: initial;&quot;&gt;&lt;a id=&quot;__codelineno-1-3&quot; name=&quot;__codelineno-1-3&quot; href=&quot;https://google.github.io/A2A/tutorials/python/4-agent-skills/#__codelineno-1-3&quot; style=&quot;box-sizing: inherit; -webkit-tap-highlight-color: transparent; color: rgb(64, 81, 181); text-decoration: none; word-break: break-word; transition: color 125ms; position: absolute; visibility: hidden;&quot;&gt;&lt;/a&gt;&lt;span class=&quot;w&quot; style=&quot;box-sizing: inherit;&quot;&gt;  &lt;/span&gt;&lt;span class=&quot;nx&quot; style=&quot;box-sizing: inherit;&quot;&gt;name&lt;/span&gt;&lt;span class=&quot;o&quot; style=&quot;box-sizing: inherit; color: rgba(0, 0, 0, 0.54);&quot;&gt;:&lt;/span&gt;&lt;span class=&quot;w&quot; style=&quot;box-sizing: inherit;&quot;&gt; &lt;/span&gt;&lt;span class=&quot;kt&quot; style=&quot;box-sizing: inherit; color: rgb(63, 110, 198);&quot;&gt;string&lt;/span&gt;&lt;span class=&quot;p&quot; style=&quot;box-sizing: inherit; color: rgba(0, 0, 0, 0.54);&quot;&gt;;&lt;/span&gt;&lt;span class=&quot;w&quot; style=&quot;box-sizing: inherit;&quot;&gt; &lt;/span&gt;&lt;span class=&quot;c1&quot; style=&quot;box-sizing: inherit; color: rgba(0, 0, 0, 0.54);&quot;&gt;//human readable name of the skill&lt;/span&gt;&#xa;&lt;/span&gt;&lt;span id=&quot;__span-1-4&quot; style=&quot;box-sizing: inherit; color: rgb(54, 70, 78); font-family: &amp;quot;Roboto Mono&amp;quot;, SFMono-Regular, Consolas, Menlo, monospace; font-size: 13.6px; font-style: normal; font-variant-ligatures: none; font-variant-caps: normal; font-weight: 400; letter-spacing: normal; orphans: 2; text-align: start; text-indent: 0px; text-transform: none; widows: 2; word-spacing: 0px; -webkit-text-stroke-width: 0px; white-space: pre; text-decoration-thickness: initial; text-decoration-style: initial; text-decoration-color: initial;&quot;&gt;&lt;a id=&quot;__codelineno-1-4&quot; name=&quot;__codelineno-1-4&quot; href=&quot;https://google.github.io/A2A/tutorials/python/4-agent-skills/#__codelineno-1-4&quot; style=&quot;box-sizing: inherit; -webkit-tap-highlight-color: transparent; color: rgb(64, 81, 181); text-decoration: none; word-break: break-word; transition: color 125ms; position: absolute; visibility: hidden;&quot;&gt;&lt;/a&gt;&lt;span class=&quot;w&quot; style=&quot;box-sizing: inherit;&quot;&gt;  &lt;/span&gt;&lt;span class=&quot;c1&quot; style=&quot;box-sizing: inherit; color: rgba(0, 0, 0, 0.54);&quot;&gt;// description of the skill - will be used by the client or a human&lt;/span&gt;&#xa;&lt;/span&gt;&lt;span id=&quot;__span-1-5&quot; style=&quot;box-sizing: inherit; color: rgb(54, 70, 78); font-family: &amp;quot;Roboto Mono&amp;quot;, SFMono-Regular, Consolas, Menlo, monospace; font-size: 13.6px; font-style: normal; font-variant-ligatures: none; font-variant-caps: normal; font-weight: 400; letter-spacing: normal; orphans: 2; text-align: start; text-indent: 0px; text-transform: none; widows: 2; word-spacing: 0px; -webkit-text-stroke-width: 0px; white-space: pre; text-decoration-thickness: initial; text-decoration-style: initial; text-decoration-color: initial;&quot;&gt;&lt;a id=&quot;__codelineno-1-5&quot; name=&quot;__codelineno-1-5&quot; href=&quot;https://google.github.io/A2A/tutorials/python/4-agent-skills/#__codelineno-1-5&quot; style=&quot;box-sizing: inherit; -webkit-tap-highlight-color: transparent; color: rgb(64, 81, 181); text-decoration: none; word-break: break-word; transition: color 125ms; position: absolute; visibility: hidden;&quot;&gt;&lt;/a&gt;&lt;span class=&quot;w&quot; style=&quot;box-sizing: inherit;&quot;&gt;  &lt;/span&gt;&lt;span class=&quot;c1&quot; style=&quot;box-sizing: inherit; color: rgba(0, 0, 0, 0.54);&quot;&gt;// as a hint to understand what the skill does.&lt;/span&gt;&#xa;&lt;/span&gt;&lt;span id=&quot;__span-1-6&quot; style=&quot;box-sizing: inherit; color: rgb(54, 70, 78); font-family: &amp;quot;Roboto Mono&amp;quot;, SFMono-Regular, Consolas, Menlo, monospace; font-size: 13.6px; font-style: normal; font-variant-ligatures: none; font-variant-caps: normal; font-weight: 400; letter-spacing: normal; orphans: 2; text-align: start; text-indent: 0px; text-transform: none; widows: 2; word-spacing: 0px; -webkit-text-stroke-width: 0px; white-space: pre; text-decoration-thickness: initial; text-decoration-style: initial; text-decoration-color: initial;&quot;&gt;&lt;a id=&quot;__codelineno-1-6&quot; name=&quot;__codelineno-1-6&quot; href=&quot;https://google.github.io/A2A/tutorials/python/4-agent-skills/#__codelineno-1-6&quot; style=&quot;box-sizing: inherit; -webkit-tap-highlight-color: transparent; color: rgb(64, 81, 181); text-decoration: none; word-break: break-word; transition: color 125ms; position: absolute; visibility: hidden;&quot;&gt;&lt;/a&gt;&lt;span class=&quot;w&quot; style=&quot;box-sizing: inherit;&quot;&gt;  &lt;/span&gt;&lt;span class=&quot;nx&quot; style=&quot;box-sizing: inherit;&quot;&gt;description&lt;/span&gt;&lt;span class=&quot;o&quot; style=&quot;box-sizing: inherit; color: rgba(0, 0, 0, 0.54);&quot;&gt;:&lt;/span&gt;&lt;span class=&quot;w&quot; style=&quot;box-sizing: inherit;&quot;&gt; &lt;/span&gt;&lt;span class=&quot;kt&quot; style=&quot;box-sizing: inherit; color: rgb(63, 110, 198);&quot;&gt;string&lt;/span&gt;&lt;span class=&quot;p&quot; style=&quot;box-sizing: inherit; color: rgba(0, 0, 0, 0.54);&quot;&gt;;&lt;/span&gt;&#xa;&lt;/span&gt;&lt;span id=&quot;__span-1-7&quot; style=&quot;box-sizing: inherit; color: rgb(54, 70, 78); font-family: &amp;quot;Roboto Mono&amp;quot;, SFMono-Regular, Consolas, Menlo, monospace; font-size: 13.6px; font-style: normal; font-variant-ligatures: none; font-variant-caps: normal; font-weight: 400; letter-spacing: normal; orphans: 2; text-align: start; text-indent: 0px; text-transform: none; widows: 2; word-spacing: 0px; -webkit-text-stroke-width: 0px; white-space: pre; text-decoration-thickness: initial; text-decoration-style: initial; text-decoration-color: initial;&quot;&gt;&lt;a id=&quot;__codelineno-1-7&quot; name=&quot;__codelineno-1-7&quot; href=&quot;https://google.github.io/A2A/tutorials/python/4-agent-skills/#__codelineno-1-7&quot; style=&quot;box-sizing: inherit; -webkit-tap-highlight-color: transparent; color: rgb(64, 81, 181); text-decoration: none; word-break: break-word; transition: color 125ms; position: absolute; visibility: hidden;&quot;&gt;&lt;/a&gt;&lt;span class=&quot;w&quot; style=&quot;box-sizing: inherit;&quot;&gt;  &lt;/span&gt;&lt;span class=&quot;c1&quot; style=&quot;box-sizing: inherit; color: rgba(0, 0, 0, 0.54);&quot;&gt;// Set of tag words describing classes of capabilities for this specific&lt;/span&gt;&#xa;&lt;/span&gt;&lt;span id=&quot;__span-1-8&quot; style=&quot;box-sizing: inherit; color: rgb(54, 70, 78); font-family: &amp;quot;Roboto Mono&amp;quot;, SFMono-Regular, Consolas, Menlo, monospace; font-size: 13.6px; font-style: normal; font-variant-ligatures: none; font-variant-caps: normal; font-weight: 400; letter-spacing: normal; orphans: 2; text-align: start; text-indent: 0px; text-transform: none; widows: 2; word-spacing: 0px; -webkit-text-stroke-width: 0px; white-space: pre; text-decoration-thickness: initial; text-decoration-style: initial; text-decoration-color: initial;&quot;&gt;&lt;a id=&quot;__codelineno-1-8&quot; name=&quot;__codelineno-1-8&quot; href=&quot;https://google.github.io/A2A/tutorials/python/4-agent-skills/#__codelineno-1-8&quot; style=&quot;box-sizing: inherit; -webkit-tap-highlight-color: transparent; color: rgb(64, 81, 181); text-decoration: none; word-break: break-word; transition: color 125ms; position: absolute; visibility: hidden;&quot;&gt;&lt;/a&gt;&lt;span class=&quot;w&quot; style=&quot;box-sizing: inherit;&quot;&gt;  &lt;/span&gt;&lt;span class=&quot;c1&quot; style=&quot;box-sizing: inherit; color: rgba(0, 0, 0, 0.54);&quot;&gt;// skill (e.g. &quot;cooking&quot;, &quot;customer support&quot;, &quot;billing&quot;)&lt;/span&gt;&#xa;&lt;/span&gt;&lt;span id=&quot;__span-1-9&quot; style=&quot;box-sizing: inherit; color: rgb(54, 70, 78); font-family: &amp;quot;Roboto Mono&amp;quot;, SFMono-Regular, Consolas, Menlo, monospace; font-size: 13.6px; font-style: normal; font-variant-ligatures: none; font-variant-caps: normal; font-weight: 400; letter-spacing: normal; orphans: 2; text-align: start; text-indent: 0px; text-transform: none; widows: 2; word-spacing: 0px; -webkit-text-stroke-width: 0px; white-space: pre; text-decoration-thickness: initial; text-decoration-style: initial; text-decoration-color: initial;&quot;&gt;&lt;a id=&quot;__codelineno-1-9&quot; name=&quot;__codelineno-1-9&quot; href=&quot;https://google.github.io/A2A/tutorials/python/4-agent-skills/#__codelineno-1-9&quot; style=&quot;box-sizing: inherit; -webkit-tap-highlight-color: transparent; color: rgb(64, 81, 181); text-decoration: none; word-break: break-word; transition: color 125ms; position: absolute; visibility: hidden;&quot;&gt;&lt;/a&gt;&lt;span class=&quot;w&quot; style=&quot;box-sizing: inherit;&quot;&gt;  &lt;/span&gt;&lt;span class=&quot;nx&quot; style=&quot;box-sizing: inherit;&quot;&gt;tags&lt;/span&gt;&lt;span class=&quot;o&quot; style=&quot;box-sizing: inherit; color: rgba(0, 0, 0, 0.54);&quot;&gt;:&lt;/span&gt;&lt;span class=&quot;w&quot; style=&quot;box-sizing: inherit;&quot;&gt; &lt;/span&gt;&lt;span class=&quot;kt&quot; style=&quot;box-sizing: inherit; color: rgb(63, 110, 198);&quot;&gt;string&lt;/span&gt;&lt;span class=&quot;p&quot; style=&quot;box-sizing: inherit; color: rgba(0, 0, 0, 0.54);&quot;&gt;[];&lt;/span&gt;&#xa;&lt;/span&gt;&lt;span id=&quot;__span-1-10&quot; style=&quot;box-sizing: inherit; color: rgb(54, 70, 78); font-family: &amp;quot;Roboto Mono&amp;quot;, SFMono-Regular, Consolas, Menlo, monospace; font-size: 13.6px; font-style: normal; font-variant-ligatures: none; font-variant-caps: normal; font-weight: 400; letter-spacing: normal; orphans: 2; text-align: start; text-indent: 0px; text-transform: none; widows: 2; word-spacing: 0px; -webkit-text-stroke-width: 0px; white-space: pre; text-decoration-thickness: initial; text-decoration-style: initial; text-decoration-color: initial;&quot;&gt;&lt;a id=&quot;__codelineno-1-10&quot; name=&quot;__codelineno-1-10&quot; href=&quot;https://google.github.io/A2A/tutorials/python/4-agent-skills/#__codelineno-1-10&quot; style=&quot;box-sizing: inherit; -webkit-tap-highlight-color: transparent; color: rgb(64, 81, 181); text-decoration: none; word-break: break-word; transition: color 125ms; position: absolute; visibility: hidden;&quot;&gt;&lt;/a&gt;&lt;span class=&quot;w&quot; style=&quot;box-sizing: inherit;&quot;&gt;  &lt;/span&gt;&lt;span class=&quot;c1&quot; style=&quot;box-sizing: inherit; color: rgba(0, 0, 0, 0.54);&quot;&gt;// The set of example scenarios that the skill can perform.&lt;/span&gt;&#xa;&lt;/span&gt;&lt;span id=&quot;__span-1-11&quot; style=&quot;box-sizing: inherit; color: rgb(54, 70, 78); font-family: &amp;quot;Roboto Mono&amp;quot;, SFMono-Regular, Consolas, Menlo, monospace; font-size: 13.6px; font-style: normal; font-variant-ligatures: none; font-variant-caps: normal; font-weight: 400; letter-spacing: normal; orphans: 2; text-align: start; text-indent: 0px; text-transform: none; widows: 2; word-spacing: 0px; -webkit-text-stroke-width: 0px; white-space: pre; text-decoration-thickness: initial; text-decoration-style: initial; text-decoration-color: initial;&quot;&gt;&lt;a id=&quot;__codelineno-1-11&quot; name=&quot;__codelineno-1-11&quot; href=&quot;https://google.github.io/A2A/tutorials/python/4-agent-skills/#__codelineno-1-11&quot; style=&quot;box-sizing: inherit; -webkit-tap-highlight-color: transparent; color: rgb(64, 81, 181); text-decoration: none; word-break: break-word; transition: color 125ms; position: absolute; visibility: hidden;&quot;&gt;&lt;/a&gt;&lt;span class=&quot;w&quot; style=&quot;box-sizing: inherit;&quot;&gt;  &lt;/span&gt;&lt;span class=&quot;c1&quot; style=&quot;box-sizing: inherit; color: rgba(0, 0, 0, 0.54);&quot;&gt;// Will be used by the client as a hint to understand how the skill can be&lt;/span&gt;&#xa;&lt;/span&gt;&lt;span id=&quot;__span-1-12&quot; style=&quot;box-sizing: inherit; color: rgb(54, 70, 78); font-family: &amp;quot;Roboto Mono&amp;quot;, SFMono-Regular, Consolas, Menlo, monospace; font-size: 13.6px; font-style: normal; font-variant-ligatures: none; font-variant-caps: normal; font-weight: 400; letter-spacing: normal; orphans: 2; text-align: start; text-indent: 0px; text-transform: none; widows: 2; word-spacing: 0px; -webkit-text-stroke-width: 0px; white-space: pre; text-decoration-thickness: initial; text-decoration-style: initial; text-decoration-color: initial;&quot;&gt;&lt;a id=&quot;__codelineno-1-12&quot; name=&quot;__codelineno-1-12&quot; href=&quot;https://google.github.io/A2A/tutorials/python/4-agent-skills/#__codelineno-1-12&quot; style=&quot;box-sizing: inherit; -webkit-tap-highlight-color: transparent; color: rgb(64, 81, 181); text-decoration: none; word-break: break-word; transition: color 125ms; position: absolute; visibility: hidden;&quot;&gt;&lt;/a&gt;&lt;span class=&quot;w&quot; style=&quot;box-sizing: inherit;&quot;&gt;  &lt;/span&gt;&lt;span class=&quot;c1&quot; style=&quot;box-sizing: inherit; color: rgba(0, 0, 0, 0.54);&quot;&gt;// used. (e.g. &quot;I need a recipe for bread&quot;)&lt;/span&gt;&#xa;&lt;/span&gt;&lt;span id=&quot;__span-1-13&quot; style=&quot;box-sizing: inherit; color: rgb(54, 70, 78); font-family: &amp;quot;Roboto Mono&amp;quot;, SFMono-Regular, Consolas, Menlo, monospace; font-size: 13.6px; font-style: normal; font-variant-ligatures: none; font-variant-caps: normal; font-weight: 400; letter-spacing: normal; orphans: 2; text-align: start; text-indent: 0px; text-transform: none; widows: 2; word-spacing: 0px; -webkit-text-stroke-width: 0px; white-space: pre; text-decoration-thickness: initial; text-decoration-style: initial; text-decoration-color: initial;&quot;&gt;&lt;a id=&quot;__codelineno-1-13&quot; name=&quot;__codelineno-1-13&quot; href=&quot;https://google.github.io/A2A/tutorials/python/4-agent-skills/#__codelineno-1-13&quot; style=&quot;box-sizing: inherit; -webkit-tap-highlight-color: transparent; color: rgb(64, 81, 181); text-decoration: none; word-break: break-word; transition: color 125ms; position: absolute; visibility: hidden;&quot;&gt;&lt;/a&gt;&lt;span class=&quot;w&quot; style=&quot;box-sizing: inherit;&quot;&gt;  &lt;/span&gt;&lt;span class=&quot;nx&quot; style=&quot;box-sizing: inherit;&quot;&gt;examples?&lt;/span&gt;&lt;span class=&quot;o&quot; style=&quot;box-sizing: inherit; color: rgba(0, 0, 0, 0.54);&quot;&gt;:&lt;/span&gt;&lt;span class=&quot;w&quot; style=&quot;box-sizing: inherit;&quot;&gt; &lt;/span&gt;&lt;span class=&quot;kt&quot; style=&quot;box-sizing: inherit; color: rgb(63, 110, 198);&quot;&gt;string&lt;/span&gt;&lt;span class=&quot;p&quot; style=&quot;box-sizing: inherit; color: rgba(0, 0, 0, 0.54);&quot;&gt;[];&lt;/span&gt;&lt;span class=&quot;w&quot; style=&quot;box-sizing: inherit;&quot;&gt; &lt;/span&gt;&lt;span class=&quot;c1&quot; style=&quot;box-sizing: inherit; color: rgba(0, 0, 0, 0.54);&quot;&gt;// example prompts for tasks&lt;/span&gt;&#xa;&lt;/span&gt;&lt;span id=&quot;__span-1-14&quot; style=&quot;box-sizing: inherit; color: rgb(54, 70, 78); font-family: &amp;quot;Roboto Mono&amp;quot;, SFMono-Regular, Consolas, Menlo, monospace; font-size: 13.6px; font-style: normal; font-variant-ligatures: none; font-variant-caps: normal; font-weight: 400; letter-spacing: normal; orphans: 2; text-align: start; text-indent: 0px; text-transform: none; widows: 2; word-spacing: 0px; -webkit-text-stroke-width: 0px; white-space: pre; text-decoration-thickness: initial; text-decoration-style: initial; text-decoration-color: initial;&quot;&gt;&lt;a id=&quot;__codelineno-1-14&quot; name=&quot;__codelineno-1-14&quot; href=&quot;https://google.github.io/A2A/tutorials/python/4-agent-skills/#__codelineno-1-14&quot; style=&quot;box-sizing: inherit; -webkit-tap-highlight-color: transparent; color: rgb(64, 81, 181); text-decoration: none; word-break: break-word; transition: color 125ms; position: absolute; visibility: hidden;&quot;&gt;&lt;/a&gt;&lt;span class=&quot;w&quot; style=&quot;box-sizing: inherit;&quot;&gt;  &lt;/span&gt;&lt;span class=&quot;c1&quot; style=&quot;box-sizing: inherit; color: rgba(0, 0, 0, 0.54);&quot;&gt;// The set of interaction modes that the skill supports&lt;/span&gt;&#xa;&lt;/span&gt;&lt;span id=&quot;__span-1-15&quot; style=&quot;box-sizing: inherit; color: rgb(54, 70, 78); font-family: &amp;quot;Roboto Mono&amp;quot;, SFMono-Regular, Consolas, Menlo, monospace; font-size: 13.6px; font-style: normal; font-variant-ligatures: none; font-variant-caps: normal; font-weight: 400; letter-spacing: normal; orphans: 2; text-align: start; text-indent: 0px; text-transform: none; widows: 2; word-spacing: 0px; -webkit-text-stroke-width: 0px; white-space: pre; text-decoration-thickness: initial; text-decoration-style: initial; text-decoration-color: initial;&quot;&gt;&lt;a id=&quot;__codelineno-1-15&quot; name=&quot;__codelineno-1-15&quot; href=&quot;https://google.github.io/A2A/tutorials/python/4-agent-skills/#__codelineno-1-15&quot; style=&quot;box-sizing: inherit; -webkit-tap-highlight-color: transparent; color: rgb(64, 81, 181); text-decoration: none; word-break: break-word; transition: color 125ms; position: absolute; visibility: hidden;&quot;&gt;&lt;/a&gt;&lt;span class=&quot;w&quot; style=&quot;box-sizing: inherit;&quot;&gt;  &lt;/span&gt;&lt;span class=&quot;c1&quot; style=&quot;box-sizing: inherit; color: rgba(0, 0, 0, 0.54);&quot;&gt;// (if different than the default)&lt;/span&gt;&#xa;&lt;/span&gt;&lt;span id=&quot;__span-1-16&quot; style=&quot;box-sizing: inherit; color: rgb(54, 70, 78); font-family: &amp;quot;Roboto Mono&amp;quot;, SFMono-Regular, Consolas, Menlo, monospace; font-size: 13.6px; font-style: normal; font-variant-ligatures: none; font-variant-caps: normal; font-weight: 400; letter-spacing: normal; orphans: 2; text-align: start; text-indent: 0px; text-transform: none; widows: 2; word-spacing: 0px; -webkit-text-stroke-width: 0px; white-space: pre; text-decoration-thickness: initial; text-decoration-style: initial; text-decoration-color: initial;&quot;&gt;&lt;a id=&quot;__codelineno-1-16&quot; name=&quot;__codelineno-1-16&quot; href=&quot;https://google.github.io/A2A/tutorials/python/4-agent-skills/#__codelineno-1-16&quot; style=&quot;box-sizing: inherit; -webkit-tap-highlight-color: transparent; color: rgb(64, 81, 181); text-decoration: none; word-break: break-word; transition: color 125ms; position: absolute; visibility: hidden;&quot;&gt;&lt;/a&gt;&lt;span class=&quot;w&quot; style=&quot;box-sizing: inherit;&quot;&gt;  &lt;/span&gt;&lt;span class=&quot;nx&quot; style=&quot;box-sizing: inherit;&quot;&gt;inputModes?&lt;/span&gt;&lt;span class=&quot;o&quot; style=&quot;box-sizing: inherit; color: rgba(0, 0, 0, 0.54);&quot;&gt;:&lt;/span&gt;&lt;span class=&quot;w&quot; style=&quot;box-sizing: inherit;&quot;&gt; &lt;/span&gt;&lt;span class=&quot;kt&quot; style=&quot;box-sizing: inherit; color: rgb(63, 110, 198);&quot;&gt;string&lt;/span&gt;&lt;span class=&quot;p&quot; style=&quot;box-sizing: inherit; color: rgba(0, 0, 0, 0.54);&quot;&gt;[];&lt;/span&gt;&lt;span class=&quot;w&quot; style=&quot;box-sizing: inherit;&quot;&gt; &lt;/span&gt;&lt;span class=&quot;c1&quot; style=&quot;box-sizing: inherit; color: rgba(0, 0, 0, 0.54);&quot;&gt;// supported mime types for input&lt;/span&gt;&#xa;&lt;/span&gt;&lt;span id=&quot;__span-1-17&quot; style=&quot;box-sizing: inherit; color: rgb(54, 70, 78); font-family: &amp;quot;Roboto Mono&amp;quot;, SFMono-Regular, Consolas, Menlo, monospace; font-size: 13.6px; font-style: normal; font-variant-ligatures: none; font-variant-caps: normal; font-weight: 400; letter-spacing: normal; orphans: 2; text-align: start; text-indent: 0px; text-transform: none; widows: 2; word-spacing: 0px; -webkit-text-stroke-width: 0px; white-space: pre; text-decoration-thickness: initial; text-decoration-style: initial; text-decoration-color: initial;&quot;&gt;&lt;a id=&quot;__codelineno-1-17&quot; name=&quot;__codelineno-1-17&quot; href=&quot;https://google.github.io/A2A/tutorials/python/4-agent-skills/#__codelineno-1-17&quot; style=&quot;box-sizing: inherit; -webkit-tap-highlight-color: transparent; color: rgb(64, 81, 181); text-decoration: none; word-break: break-word; transition: color 125ms; position: absolute; visibility: hidden;&quot;&gt;&lt;/a&gt;&lt;span class=&quot;w&quot; style=&quot;box-sizing: inherit;&quot;&gt;  &lt;/span&gt;&lt;span class=&quot;nx&quot; style=&quot;box-sizing: inherit;&quot;&gt;outputModes?&lt;/span&gt;&lt;span class=&quot;o&quot; style=&quot;box-sizing: inherit; color: rgba(0, 0, 0, 0.54);&quot;&gt;:&lt;/span&gt;&lt;span class=&quot;w&quot; style=&quot;box-sizing: inherit;&quot;&gt; &lt;/span&gt;&lt;span class=&quot;kt&quot; style=&quot;box-sizing: inherit; color: rgb(63, 110, 198);&quot;&gt;string&lt;/span&gt;&lt;span class=&quot;p&quot; style=&quot;box-sizing: inherit; color: rgba(0, 0, 0, 0.54);&quot;&gt;[];&lt;/span&gt;&lt;span class=&quot;w&quot; style=&quot;box-sizing: inherit;&quot;&gt; &lt;/span&gt;&lt;span class=&quot;c1&quot; style=&quot;box-sizing: inherit; color: rgba(0, 0, 0, 0.54);&quot;&gt;// supported mime types for output&lt;/span&gt;&#xa;&lt;/span&gt;&lt;span id=&quot;__span-1-18&quot; style=&quot;box-sizing: inherit; color: rgb(54, 70, 78); font-family: &amp;quot;Roboto Mono&amp;quot;, SFMono-Regular, Consolas, Menlo, monospace; font-size: 13.6px; font-style: normal; font-variant-ligatures: none; font-variant-caps: normal; font-weight: 400; letter-spacing: normal; orphans: 2; text-align: start; text-indent: 0px; text-transform: none; widows: 2; word-spacing: 0px; -webkit-text-stroke-width: 0px; white-space: pre; text-decoration-thickness: initial; text-decoration-style: initial; text-decoration-color: initial;&quot;&gt;&lt;a id=&quot;__codelineno-1-18&quot; name=&quot;__codelineno-1-18&quot; href=&quot;https://google.github.io/A2A/tutorials/python/4-agent-skills/#__codelineno-1-18&quot; style=&quot;box-sizing: inherit; -webkit-tap-highlight-color: transparent; color: rgb(64, 81, 181); text-decoration: none; word-break: break-word; transition: color 125ms; position: absolute; visibility: hidden;&quot;&gt;&lt;/a&gt;&lt;span class=&quot;p&quot; style=&quot;box-sizing: inherit; color: rgba(0, 0, 0, 0.54);&quot;&gt;}&lt;/span&gt;&lt;/span&gt;" id="G9hAGLQ0QLvyj3-e32F3-11">
          <mxCell style="text;whiteSpace=wrap;html=1;" parent="1" vertex="1">
            <mxGeometry x="570" y="290" width="350" height="270" as="geometry" />
          </mxCell>
        </UserObject>
        <UserObject label="&lt;span id=&quot;__span-2-5&quot; style=&quot;box-sizing: inherit; font-family: &amp;quot;Roboto Mono&amp;quot;, SFMono-Regular, Consolas, Menlo, monospace; font-size: 13.6px; font-style: normal; font-variant-ligatures: none; font-variant-caps: normal; font-weight: 400; letter-spacing: normal; orphans: 2; text-align: start; text-indent: 0px; text-transform: none; widows: 2; word-spacing: 0px; -webkit-text-stroke-width: 0px; white-space: pre; text-decoration-thickness: initial; text-decoration-style: initial; text-decoration-color: initial; color: rgb(54, 70, 78);&quot;&gt;&lt;font color=&quot;rgba(0, 0, 0, 0.54)&quot;&gt;{&lt;/font&gt;&lt;font color=&quot;rgba(0, 0, 0, 0)&quot;&gt;&lt;br&gt;&lt;/font&gt;&lt;/span&gt;&lt;span id=&quot;__span-2-6&quot; style=&quot;box-sizing: inherit; color: rgb(54, 70, 78); font-family: &amp;quot;Roboto Mono&amp;quot;, SFMono-Regular, Consolas, Menlo, monospace; font-size: 13.6px; font-style: normal; font-variant-ligatures: none; font-variant-caps: normal; font-weight: 400; letter-spacing: normal; orphans: 2; text-align: start; text-indent: 0px; text-transform: none; widows: 2; word-spacing: 0px; -webkit-text-stroke-width: 0px; white-space: pre; text-decoration-thickness: initial; text-decoration-style: initial; text-decoration-color: initial;&quot;&gt;&lt;a id=&quot;__codelineno-2-6&quot; name=&quot;__codelineno-2-6&quot; href=&quot;https://google.github.io/A2A/tutorials/python/4-agent-skills/#__codelineno-2-6&quot; style=&quot;box-sizing: inherit; -webkit-tap-highlight-color: transparent; color: rgb(64, 81, 181); text-decoration: none; word-break: break-word; transition: color 125ms; position: absolute; visibility: hidden;&quot;&gt;&lt;/a&gt;    &lt;span class=&quot;nb&quot; style=&quot;box-sizing: inherit; color: rgb(110, 89, 217);&quot;&gt;id&lt;/span&gt;&lt;span class=&quot;o&quot; style=&quot;box-sizing: inherit; color: rgba(0, 0, 0, 0.54);&quot;&gt;=&lt;/span&gt;&lt;span class=&quot;s2&quot; style=&quot;box-sizing: inherit; color: rgb(28, 125, 77);&quot;&gt;&quot;my-project-echo-skill&quot;&lt;/span&gt;&lt;span class=&quot;p&quot; style=&quot;box-sizing: inherit; color: rgba(0, 0, 0, 0.54);&quot;&gt;,&lt;/span&gt;&lt;br&gt;&lt;/span&gt;&lt;span id=&quot;__span-2-7&quot; style=&quot;box-sizing: inherit; color: rgb(54, 70, 78); font-family: &amp;quot;Roboto Mono&amp;quot;, SFMono-Regular, Consolas, Menlo, monospace; font-size: 13.6px; font-style: normal; font-variant-ligatures: none; font-variant-caps: normal; font-weight: 400; letter-spacing: normal; orphans: 2; text-align: start; text-indent: 0px; text-transform: none; widows: 2; word-spacing: 0px; -webkit-text-stroke-width: 0px; white-space: pre; text-decoration-thickness: initial; text-decoration-style: initial; text-decoration-color: initial;&quot;&gt;&lt;a id=&quot;__codelineno-2-7&quot; name=&quot;__codelineno-2-7&quot; href=&quot;https://google.github.io/A2A/tutorials/python/4-agent-skills/#__codelineno-2-7&quot; style=&quot;box-sizing: inherit; -webkit-tap-highlight-color: transparent; color: rgb(64, 81, 181); text-decoration: none; word-break: break-word; transition: color 125ms; position: absolute; visibility: hidden;&quot;&gt;&lt;/a&gt;    &lt;span class=&quot;n&quot; style=&quot;box-sizing: inherit; color: rgb(54, 70, 78);&quot;&gt;name&lt;/span&gt;&lt;span class=&quot;o&quot; style=&quot;box-sizing: inherit; color: rgba(0, 0, 0, 0.54);&quot;&gt;=&lt;/span&gt;&lt;span class=&quot;s2&quot; style=&quot;box-sizing: inherit; color: rgb(28, 125, 77);&quot;&gt;&quot;Echo Tool&quot;&lt;/span&gt;&lt;span class=&quot;p&quot; style=&quot;box-sizing: inherit; color: rgba(0, 0, 0, 0.54);&quot;&gt;,&lt;/span&gt;&lt;br&gt;&lt;/span&gt;&lt;span id=&quot;__span-2-8&quot; style=&quot;box-sizing: inherit; color: rgb(54, 70, 78); font-family: &amp;quot;Roboto Mono&amp;quot;, SFMono-Regular, Consolas, Menlo, monospace; font-size: 13.6px; font-style: normal; font-variant-ligatures: none; font-variant-caps: normal; font-weight: 400; letter-spacing: normal; orphans: 2; text-align: start; text-indent: 0px; text-transform: none; widows: 2; word-spacing: 0px; -webkit-text-stroke-width: 0px; white-space: pre; text-decoration-thickness: initial; text-decoration-style: initial; text-decoration-color: initial;&quot;&gt;&lt;a id=&quot;__codelineno-2-8&quot; name=&quot;__codelineno-2-8&quot; href=&quot;https://google.github.io/A2A/tutorials/python/4-agent-skills/#__codelineno-2-8&quot; style=&quot;box-sizing: inherit; -webkit-tap-highlight-color: transparent; color: rgb(64, 81, 181); text-decoration: none; word-break: break-word; transition: color 125ms; position: absolute; visibility: hidden;&quot;&gt;&lt;/a&gt;    &lt;span class=&quot;n&quot; style=&quot;box-sizing: inherit; color: rgb(54, 70, 78);&quot;&gt;description&lt;/span&gt;&lt;span class=&quot;o&quot; style=&quot;box-sizing: inherit; color: rgba(0, 0, 0, 0.54);&quot;&gt;=&lt;/span&gt;&lt;span class=&quot;s2&quot; style=&quot;box-sizing: inherit; color: rgb(28, 125, 77);&quot;&gt;&quot;Echos the input given&quot;&lt;/span&gt;&lt;span class=&quot;p&quot; style=&quot;box-sizing: inherit; color: rgba(0, 0, 0, 0.54);&quot;&gt;,&lt;/span&gt;&lt;br&gt;&lt;/span&gt;&lt;span id=&quot;__span-2-9&quot; style=&quot;box-sizing: inherit; color: rgb(54, 70, 78); font-family: &amp;quot;Roboto Mono&amp;quot;, SFMono-Regular, Consolas, Menlo, monospace; font-size: 13.6px; font-style: normal; font-variant-ligatures: none; font-variant-caps: normal; font-weight: 400; letter-spacing: normal; orphans: 2; text-align: start; text-indent: 0px; text-transform: none; widows: 2; word-spacing: 0px; -webkit-text-stroke-width: 0px; white-space: pre; text-decoration-thickness: initial; text-decoration-style: initial; text-decoration-color: initial;&quot;&gt;&lt;a id=&quot;__codelineno-2-9&quot; name=&quot;__codelineno-2-9&quot; href=&quot;https://google.github.io/A2A/tutorials/python/4-agent-skills/#__codelineno-2-9&quot; style=&quot;box-sizing: inherit; -webkit-tap-highlight-color: transparent; color: rgb(64, 81, 181); text-decoration: none; word-break: break-word; transition: color 125ms; position: absolute; visibility: hidden;&quot;&gt;&lt;/a&gt;    &lt;span class=&quot;n&quot; style=&quot;box-sizing: inherit; color: rgb(54, 70, 78);&quot;&gt;tags&lt;/span&gt;&lt;span class=&quot;o&quot; style=&quot;box-sizing: inherit; color: rgba(0, 0, 0, 0.54);&quot;&gt;=&lt;/span&gt;&lt;span class=&quot;p&quot; style=&quot;box-sizing: inherit; color: rgba(0, 0, 0, 0.54);&quot;&gt;[&lt;/span&gt;&lt;span class=&quot;s2&quot; style=&quot;box-sizing: inherit; color: rgb(28, 125, 77);&quot;&gt;&quot;echo&quot;&lt;/span&gt;&lt;span class=&quot;p&quot; style=&quot;box-sizing: inherit; color: rgba(0, 0, 0, 0.54);&quot;&gt;,&lt;/span&gt; &lt;span class=&quot;s2&quot; style=&quot;box-sizing: inherit; color: rgb(28, 125, 77);&quot;&gt;&quot;repeater&quot;&lt;/span&gt;&lt;span class=&quot;p&quot; style=&quot;box-sizing: inherit; color: rgba(0, 0, 0, 0.54);&quot;&gt;],&lt;/span&gt;&lt;br&gt;&lt;/span&gt;&lt;span id=&quot;__span-2-10&quot; style=&quot;box-sizing: inherit; color: rgb(54, 70, 78); font-family: &amp;quot;Roboto Mono&amp;quot;, SFMono-Regular, Consolas, Menlo, monospace; font-size: 13.6px; font-style: normal; font-variant-ligatures: none; font-variant-caps: normal; font-weight: 400; letter-spacing: normal; orphans: 2; text-align: start; text-indent: 0px; text-transform: none; widows: 2; word-spacing: 0px; -webkit-text-stroke-width: 0px; white-space: pre; text-decoration-thickness: initial; text-decoration-style: initial; text-decoration-color: initial;&quot;&gt;&lt;a id=&quot;__codelineno-2-10&quot; name=&quot;__codelineno-2-10&quot; href=&quot;https://google.github.io/A2A/tutorials/python/4-agent-skills/#__codelineno-2-10&quot; style=&quot;box-sizing: inherit; -webkit-tap-highlight-color: transparent; color: rgb(64, 81, 181); text-decoration: none; word-break: break-word; transition: color 125ms; position: absolute; visibility: hidden;&quot;&gt;&lt;/a&gt;    &lt;span class=&quot;n&quot; style=&quot;box-sizing: inherit; color: rgb(54, 70, 78);&quot;&gt;examples&lt;/span&gt;&lt;span class=&quot;o&quot; style=&quot;box-sizing: inherit; color: rgba(0, 0, 0, 0.54);&quot;&gt;=&lt;/span&gt;&lt;span class=&quot;p&quot; style=&quot;box-sizing: inherit; color: rgba(0, 0, 0, 0.54);&quot;&gt;[&lt;/span&gt;&lt;span class=&quot;s2&quot; style=&quot;box-sizing: inherit; color: rgb(28, 125, 77);&quot;&gt;&quot;I will see this echoed back to me&quot;&lt;/span&gt;&lt;span class=&quot;p&quot; style=&quot;box-sizing: inherit; color: rgba(0, 0, 0, 0.54);&quot;&gt;],&lt;/span&gt;&lt;br&gt;&lt;/span&gt;&lt;span id=&quot;__span-2-11&quot; style=&quot;box-sizing: inherit; color: rgb(54, 70, 78); font-family: &amp;quot;Roboto Mono&amp;quot;, SFMono-Regular, Consolas, Menlo, monospace; font-size: 13.6px; font-style: normal; font-variant-ligatures: none; font-variant-caps: normal; font-weight: 400; letter-spacing: normal; orphans: 2; text-align: start; text-indent: 0px; text-transform: none; widows: 2; word-spacing: 0px; -webkit-text-stroke-width: 0px; white-space: pre; text-decoration-thickness: initial; text-decoration-style: initial; text-decoration-color: initial;&quot;&gt;&lt;a id=&quot;__codelineno-2-11&quot; name=&quot;__codelineno-2-11&quot; href=&quot;https://google.github.io/A2A/tutorials/python/4-agent-skills/#__codelineno-2-11&quot; style=&quot;box-sizing: inherit; -webkit-tap-highlight-color: transparent; color: rgb(64, 81, 181); text-decoration: none; word-break: break-word; transition: color 125ms; position: absolute; visibility: hidden;&quot;&gt;&lt;/a&gt;    &lt;span class=&quot;n&quot; style=&quot;box-sizing: inherit; color: rgb(54, 70, 78);&quot;&gt;inputModes&lt;/span&gt;&lt;span class=&quot;o&quot; style=&quot;box-sizing: inherit; color: rgba(0, 0, 0, 0.54);&quot;&gt;=&lt;/span&gt;&lt;span class=&quot;p&quot; style=&quot;box-sizing: inherit; color: rgba(0, 0, 0, 0.54);&quot;&gt;[&lt;/span&gt;&lt;span class=&quot;s2&quot; style=&quot;box-sizing: inherit; color: rgb(28, 125, 77);&quot;&gt;&quot;text&quot;&lt;/span&gt;&lt;span class=&quot;p&quot; style=&quot;box-sizing: inherit; color: rgba(0, 0, 0, 0.54);&quot;&gt;],&lt;/span&gt;&lt;br&gt;&lt;/span&gt;&lt;span id=&quot;__span-2-12&quot; style=&quot;box-sizing: inherit; color: rgb(54, 70, 78); font-family: &amp;quot;Roboto Mono&amp;quot;, SFMono-Regular, Consolas, Menlo, monospace; font-size: 13.6px; font-style: normal; font-variant-ligatures: none; font-variant-caps: normal; font-weight: 400; letter-spacing: normal; orphans: 2; text-align: start; text-indent: 0px; text-transform: none; widows: 2; word-spacing: 0px; -webkit-text-stroke-width: 0px; white-space: pre; text-decoration-thickness: initial; text-decoration-style: initial; text-decoration-color: initial;&quot;&gt;&lt;a id=&quot;__codelineno-2-12&quot; name=&quot;__codelineno-2-12&quot; href=&quot;https://google.github.io/A2A/tutorials/python/4-agent-skills/#__codelineno-2-12&quot; style=&quot;box-sizing: inherit; -webkit-tap-highlight-color: transparent; color: rgb(64, 81, 181); text-decoration: none; word-break: break-word; transition: color 125ms; position: absolute; visibility: hidden;&quot;&gt;&lt;/a&gt;    &lt;span class=&quot;n&quot; style=&quot;box-sizing: inherit; color: rgb(54, 70, 78);&quot;&gt;outputModes&lt;/span&gt;&lt;span class=&quot;o&quot; style=&quot;box-sizing: inherit; color: rgba(0, 0, 0, 0.54);&quot;&gt;=&lt;/span&gt;&lt;span class=&quot;p&quot; style=&quot;box-sizing: inherit; color: rgba(0, 0, 0, 0.54);&quot;&gt;[&lt;/span&gt;&lt;span class=&quot;s2&quot; style=&quot;box-sizing: inherit; color: rgb(28, 125, 77);&quot;&gt;&quot;text&quot;&lt;/span&gt;&lt;span class=&quot;p&quot; style=&quot;box-sizing: inherit; color: rgba(0, 0, 0, 0.54);&quot;&gt;],&lt;/span&gt;&lt;br&gt;&lt;/span&gt;&lt;span id=&quot;__span-2-13&quot; style=&quot;box-sizing: inherit; color: rgb(54, 70, 78); font-family: &amp;quot;Roboto Mono&amp;quot;, SFMono-Regular, Consolas, Menlo, monospace; font-size: 13.6px; font-style: normal; font-variant-ligatures: none; font-variant-caps: normal; font-weight: 400; letter-spacing: normal; orphans: 2; text-align: start; text-indent: 0px; text-transform: none; widows: 2; word-spacing: 0px; -webkit-text-stroke-width: 0px; white-space: pre; text-decoration-thickness: initial; text-decoration-style: initial; text-decoration-color: initial;&quot;&gt;&lt;a id=&quot;__codelineno-2-13&quot; name=&quot;__codelineno-2-13&quot; href=&quot;https://google.github.io/A2A/tutorials/python/4-agent-skills/#__codelineno-2-13&quot; style=&quot;box-sizing: inherit; -webkit-tap-highlight-color: transparent; color: rgb(64, 81, 181); text-decoration: none; word-break: break-word; transition: color 125ms; position: absolute; visibility: hidden;&quot;&gt;&lt;/a&gt;}&lt;/span&gt;" link="&lt;span id=&quot;__span-2-5&quot; style=&quot;box-sizing: inherit; color: rgb(54, 70, 78); font-family: &amp;quot;Roboto Mono&amp;quot;, SFMono-Regular, Consolas, Menlo, monospace; font-size: 13.6px; font-style: normal; font-variant-ligatures: none; font-variant-caps: normal; font-weight: 400; letter-spacing: normal; orphans: 2; text-align: start; text-indent: 0px; text-transform: none; widows: 2; word-spacing: 0px; -webkit-text-stroke-width: 0px; white-space: pre; text-decoration-thickness: initial; text-decoration-style: initial; text-decoration-color: initial;&quot;&gt;&lt;span class=&quot;p&quot; style=&quot;box-sizing: inherit; color: rgba(0, 0, 0, 0.54);&quot;&gt;(&lt;/span&gt;&#xa;&lt;/span&gt;&lt;span id=&quot;__span-2-6&quot; style=&quot;box-sizing: inherit; color: rgb(54, 70, 78); font-family: &amp;quot;Roboto Mono&amp;quot;, SFMono-Regular, Consolas, Menlo, monospace; font-size: 13.6px; font-style: normal; font-variant-ligatures: none; font-variant-caps: normal; font-weight: 400; letter-spacing: normal; orphans: 2; text-align: start; text-indent: 0px; text-transform: none; widows: 2; word-spacing: 0px; -webkit-text-stroke-width: 0px; white-space: pre; text-decoration-thickness: initial; text-decoration-style: initial; text-decoration-color: initial;&quot;&gt;&lt;a id=&quot;__codelineno-2-6&quot; name=&quot;__codelineno-2-6&quot; href=&quot;https://google.github.io/A2A/tutorials/python/4-agent-skills/#__codelineno-2-6&quot; style=&quot;box-sizing: inherit; -webkit-tap-highlight-color: transparent; color: rgb(64, 81, 181); text-decoration: none; word-break: break-word; transition: color 125ms; position: absolute; visibility: hidden;&quot;&gt;&lt;/a&gt;    &lt;span class=&quot;nb&quot; style=&quot;box-sizing: inherit; color: rgb(110, 89, 217);&quot;&gt;id&lt;/span&gt;&lt;span class=&quot;o&quot; style=&quot;box-sizing: inherit; color: rgba(0, 0, 0, 0.54);&quot;&gt;=&lt;/span&gt;&lt;span class=&quot;s2&quot; style=&quot;box-sizing: inherit; color: rgb(28, 125, 77);&quot;&gt;&quot;my-project-echo-skill&quot;&lt;/span&gt;&lt;span class=&quot;p&quot; style=&quot;box-sizing: inherit; color: rgba(0, 0, 0, 0.54);&quot;&gt;,&lt;/span&gt;&#xa;&lt;/span&gt;&lt;span id=&quot;__span-2-7&quot; style=&quot;box-sizing: inherit; color: rgb(54, 70, 78); font-family: &amp;quot;Roboto Mono&amp;quot;, SFMono-Regular, Consolas, Menlo, monospace; font-size: 13.6px; font-style: normal; font-variant-ligatures: none; font-variant-caps: normal; font-weight: 400; letter-spacing: normal; orphans: 2; text-align: start; text-indent: 0px; text-transform: none; widows: 2; word-spacing: 0px; -webkit-text-stroke-width: 0px; white-space: pre; text-decoration-thickness: initial; text-decoration-style: initial; text-decoration-color: initial;&quot;&gt;&lt;a id=&quot;__codelineno-2-7&quot; name=&quot;__codelineno-2-7&quot; href=&quot;https://google.github.io/A2A/tutorials/python/4-agent-skills/#__codelineno-2-7&quot; style=&quot;box-sizing: inherit; -webkit-tap-highlight-color: transparent; color: rgb(64, 81, 181); text-decoration: none; word-break: break-word; transition: color 125ms; position: absolute; visibility: hidden;&quot;&gt;&lt;/a&gt;    &lt;span class=&quot;n&quot; style=&quot;box-sizing: inherit; color: rgb(54, 70, 78);&quot;&gt;name&lt;/span&gt;&lt;span class=&quot;o&quot; style=&quot;box-sizing: inherit; color: rgba(0, 0, 0, 0.54);&quot;&gt;=&lt;/span&gt;&lt;span class=&quot;s2&quot; style=&quot;box-sizing: inherit; color: rgb(28, 125, 77);&quot;&gt;&quot;Echo Tool&quot;&lt;/span&gt;&lt;span class=&quot;p&quot; style=&quot;box-sizing: inherit; color: rgba(0, 0, 0, 0.54);&quot;&gt;,&lt;/span&gt;&#xa;&lt;/span&gt;&lt;span id=&quot;__span-2-8&quot; style=&quot;box-sizing: inherit; color: rgb(54, 70, 78); font-family: &amp;quot;Roboto Mono&amp;quot;, SFMono-Regular, Consolas, Menlo, monospace; font-size: 13.6px; font-style: normal; font-variant-ligatures: none; font-variant-caps: normal; font-weight: 400; letter-spacing: normal; orphans: 2; text-align: start; text-indent: 0px; text-transform: none; widows: 2; word-spacing: 0px; -webkit-text-stroke-width: 0px; white-space: pre; text-decoration-thickness: initial; text-decoration-style: initial; text-decoration-color: initial;&quot;&gt;&lt;a id=&quot;__codelineno-2-8&quot; name=&quot;__codelineno-2-8&quot; href=&quot;https://google.github.io/A2A/tutorials/python/4-agent-skills/#__codelineno-2-8&quot; style=&quot;box-sizing: inherit; -webkit-tap-highlight-color: transparent; color: rgb(64, 81, 181); text-decoration: none; word-break: break-word; transition: color 125ms; position: absolute; visibility: hidden;&quot;&gt;&lt;/a&gt;    &lt;span class=&quot;n&quot; style=&quot;box-sizing: inherit; color: rgb(54, 70, 78);&quot;&gt;description&lt;/span&gt;&lt;span class=&quot;o&quot; style=&quot;box-sizing: inherit; color: rgba(0, 0, 0, 0.54);&quot;&gt;=&lt;/span&gt;&lt;span class=&quot;s2&quot; style=&quot;box-sizing: inherit; color: rgb(28, 125, 77);&quot;&gt;&quot;Echos the input given&quot;&lt;/span&gt;&lt;span class=&quot;p&quot; style=&quot;box-sizing: inherit; color: rgba(0, 0, 0, 0.54);&quot;&gt;,&lt;/span&gt;&#xa;&lt;/span&gt;&lt;span id=&quot;__span-2-9&quot; style=&quot;box-sizing: inherit; color: rgb(54, 70, 78); font-family: &amp;quot;Roboto Mono&amp;quot;, SFMono-Regular, Consolas, Menlo, monospace; font-size: 13.6px; font-style: normal; font-variant-ligatures: none; font-variant-caps: normal; font-weight: 400; letter-spacing: normal; orphans: 2; text-align: start; text-indent: 0px; text-transform: none; widows: 2; word-spacing: 0px; -webkit-text-stroke-width: 0px; white-space: pre; text-decoration-thickness: initial; text-decoration-style: initial; text-decoration-color: initial;&quot;&gt;&lt;a id=&quot;__codelineno-2-9&quot; name=&quot;__codelineno-2-9&quot; href=&quot;https://google.github.io/A2A/tutorials/python/4-agent-skills/#__codelineno-2-9&quot; style=&quot;box-sizing: inherit; -webkit-tap-highlight-color: transparent; color: rgb(64, 81, 181); text-decoration: none; word-break: break-word; transition: color 125ms; position: absolute; visibility: hidden;&quot;&gt;&lt;/a&gt;    &lt;span class=&quot;n&quot; style=&quot;box-sizing: inherit; color: rgb(54, 70, 78);&quot;&gt;tags&lt;/span&gt;&lt;span class=&quot;o&quot; style=&quot;box-sizing: inherit; color: rgba(0, 0, 0, 0.54);&quot;&gt;=&lt;/span&gt;&lt;span class=&quot;p&quot; style=&quot;box-sizing: inherit; color: rgba(0, 0, 0, 0.54);&quot;&gt;[&lt;/span&gt;&lt;span class=&quot;s2&quot; style=&quot;box-sizing: inherit; color: rgb(28, 125, 77);&quot;&gt;&quot;echo&quot;&lt;/span&gt;&lt;span class=&quot;p&quot; style=&quot;box-sizing: inherit; color: rgba(0, 0, 0, 0.54);&quot;&gt;,&lt;/span&gt; &lt;span class=&quot;s2&quot; style=&quot;box-sizing: inherit; color: rgb(28, 125, 77);&quot;&gt;&quot;repeater&quot;&lt;/span&gt;&lt;span class=&quot;p&quot; style=&quot;box-sizing: inherit; color: rgba(0, 0, 0, 0.54);&quot;&gt;],&lt;/span&gt;&#xa;&lt;/span&gt;&lt;span id=&quot;__span-2-10&quot; style=&quot;box-sizing: inherit; color: rgb(54, 70, 78); font-family: &amp;quot;Roboto Mono&amp;quot;, SFMono-Regular, Consolas, Menlo, monospace; font-size: 13.6px; font-style: normal; font-variant-ligatures: none; font-variant-caps: normal; font-weight: 400; letter-spacing: normal; orphans: 2; text-align: start; text-indent: 0px; text-transform: none; widows: 2; word-spacing: 0px; -webkit-text-stroke-width: 0px; white-space: pre; text-decoration-thickness: initial; text-decoration-style: initial; text-decoration-color: initial;&quot;&gt;&lt;a id=&quot;__codelineno-2-10&quot; name=&quot;__codelineno-2-10&quot; href=&quot;https://google.github.io/A2A/tutorials/python/4-agent-skills/#__codelineno-2-10&quot; style=&quot;box-sizing: inherit; -webkit-tap-highlight-color: transparent; color: rgb(64, 81, 181); text-decoration: none; word-break: break-word; transition: color 125ms; position: absolute; visibility: hidden;&quot;&gt;&lt;/a&gt;    &lt;span class=&quot;n&quot; style=&quot;box-sizing: inherit; color: rgb(54, 70, 78);&quot;&gt;examples&lt;/span&gt;&lt;span class=&quot;o&quot; style=&quot;box-sizing: inherit; color: rgba(0, 0, 0, 0.54);&quot;&gt;=&lt;/span&gt;&lt;span class=&quot;p&quot; style=&quot;box-sizing: inherit; color: rgba(0, 0, 0, 0.54);&quot;&gt;[&lt;/span&gt;&lt;span class=&quot;s2&quot; style=&quot;box-sizing: inherit; color: rgb(28, 125, 77);&quot;&gt;&quot;I will see this echoed back to me&quot;&lt;/span&gt;&lt;span class=&quot;p&quot; style=&quot;box-sizing: inherit; color: rgba(0, 0, 0, 0.54);&quot;&gt;],&lt;/span&gt;&#xa;&lt;/span&gt;&lt;span id=&quot;__span-2-11&quot; style=&quot;box-sizing: inherit; color: rgb(54, 70, 78); font-family: &amp;quot;Roboto Mono&amp;quot;, SFMono-Regular, Consolas, Menlo, monospace; font-size: 13.6px; font-style: normal; font-variant-ligatures: none; font-variant-caps: normal; font-weight: 400; letter-spacing: normal; orphans: 2; text-align: start; text-indent: 0px; text-transform: none; widows: 2; word-spacing: 0px; -webkit-text-stroke-width: 0px; white-space: pre; text-decoration-thickness: initial; text-decoration-style: initial; text-decoration-color: initial;&quot;&gt;&lt;a id=&quot;__codelineno-2-11&quot; name=&quot;__codelineno-2-11&quot; href=&quot;https://google.github.io/A2A/tutorials/python/4-agent-skills/#__codelineno-2-11&quot; style=&quot;box-sizing: inherit; -webkit-tap-highlight-color: transparent; color: rgb(64, 81, 181); text-decoration: none; word-break: break-word; transition: color 125ms; position: absolute; visibility: hidden;&quot;&gt;&lt;/a&gt;    &lt;span class=&quot;n&quot; style=&quot;box-sizing: inherit; color: rgb(54, 70, 78);&quot;&gt;inputModes&lt;/span&gt;&lt;span class=&quot;o&quot; style=&quot;box-sizing: inherit; color: rgba(0, 0, 0, 0.54);&quot;&gt;=&lt;/span&gt;&lt;span class=&quot;p&quot; style=&quot;box-sizing: inherit; color: rgba(0, 0, 0, 0.54);&quot;&gt;[&lt;/span&gt;&lt;span class=&quot;s2&quot; style=&quot;box-sizing: inherit; color: rgb(28, 125, 77);&quot;&gt;&quot;text&quot;&lt;/span&gt;&lt;span class=&quot;p&quot; style=&quot;box-sizing: inherit; color: rgba(0, 0, 0, 0.54);&quot;&gt;],&lt;/span&gt;&#xa;&lt;/span&gt;&lt;span id=&quot;__span-2-12&quot; style=&quot;box-sizing: inherit; color: rgb(54, 70, 78); font-family: &amp;quot;Roboto Mono&amp;quot;, SFMono-Regular, Consolas, Menlo, monospace; font-size: 13.6px; font-style: normal; font-variant-ligatures: none; font-variant-caps: normal; font-weight: 400; letter-spacing: normal; orphans: 2; text-align: start; text-indent: 0px; text-transform: none; widows: 2; word-spacing: 0px; -webkit-text-stroke-width: 0px; white-space: pre; text-decoration-thickness: initial; text-decoration-style: initial; text-decoration-color: initial;&quot;&gt;&lt;a id=&quot;__codelineno-2-12&quot; name=&quot;__codelineno-2-12&quot; href=&quot;https://google.github.io/A2A/tutorials/python/4-agent-skills/#__codelineno-2-12&quot; style=&quot;box-sizing: inherit; -webkit-tap-highlight-color: transparent; color: rgb(64, 81, 181); text-decoration: none; word-break: break-word; transition: color 125ms; position: absolute; visibility: hidden;&quot;&gt;&lt;/a&gt;    &lt;span class=&quot;n&quot; style=&quot;box-sizing: inherit; color: rgb(54, 70, 78);&quot;&gt;outputModes&lt;/span&gt;&lt;span class=&quot;o&quot; style=&quot;box-sizing: inherit; color: rgba(0, 0, 0, 0.54);&quot;&gt;=&lt;/span&gt;&lt;span class=&quot;p&quot; style=&quot;box-sizing: inherit; color: rgba(0, 0, 0, 0.54);&quot;&gt;[&lt;/span&gt;&lt;span class=&quot;s2&quot; style=&quot;box-sizing: inherit; color: rgb(28, 125, 77);&quot;&gt;&quot;text&quot;&lt;/span&gt;&lt;span class=&quot;p&quot; style=&quot;box-sizing: inherit; color: rgba(0, 0, 0, 0.54);&quot;&gt;],&lt;/span&gt;&#xa;&lt;/span&gt;&lt;span id=&quot;__span-2-13&quot; style=&quot;box-sizing: inherit; color: rgb(54, 70, 78); font-family: &amp;quot;Roboto Mono&amp;quot;, SFMono-Regular, Consolas, Menlo, monospace; font-size: 13.6px; font-style: normal; font-variant-ligatures: none; font-variant-caps: normal; font-weight: 400; letter-spacing: normal; orphans: 2; text-align: start; text-indent: 0px; text-transform: none; widows: 2; word-spacing: 0px; -webkit-text-stroke-width: 0px; white-space: pre; text-decoration-thickness: initial; text-decoration-style: initial; text-decoration-color: initial;&quot;&gt;&lt;a id=&quot;__codelineno-2-13&quot; name=&quot;__codelineno-2-13&quot; href=&quot;https://google.github.io/A2A/tutorials/python/4-agent-skills/#__codelineno-2-13&quot; style=&quot;box-sizing: inherit; -webkit-tap-highlight-color: transparent; color: rgb(64, 81, 181); text-decoration: none; word-break: break-word; transition: color 125ms; position: absolute; visibility: hidden;&quot;&gt;&lt;/a&gt;  &lt;span class=&quot;p&quot; style=&quot;box-sizing: inherit; color: rgba(0, 0, 0, 0.54);&quot;&gt;)&lt;/span&gt;&lt;/span&gt;" id="G9hAGLQ0QLvyj3-e32F3-12">
          <mxCell style="text;whiteSpace=wrap;html=1;" parent="1" vertex="1">
            <mxGeometry x="100" y="350" width="410" height="170" as="geometry" />
          </mxCell>
        </UserObject>
        <mxCell id="G9hAGLQ0QLvyj3-e32F3-13" value="&lt;p style=&quot;margin: 0px; margin-top: 4px; text-align: center; text-decoration: underline;&quot;&gt;&lt;strong&gt;Research&lt;/strong&gt;&lt;/p&gt;&lt;p style=&quot;margin: 0px; margin-top: 4px; text-align: center; text-decoration: underline;&quot;&gt;&lt;strong&gt;Agent&lt;br&gt;&lt;/strong&gt;&lt;/p&gt;&lt;hr&gt;&lt;p style=&quot;margin: 0px; margin-left: 8px;&quot;&gt;&lt;br&gt;&lt;/p&gt;" style="verticalAlign=middle;align=center;overflow=fill;fontSize=12;fontFamily=Helvetica;html=1;rounded=1;fontStyle=1;strokeWidth=3;" parent="1" vertex="1">
          <mxGeometry x="70" y="640" width="470" height="320" as="geometry" />
        </mxCell>
        <mxCell id="G9hAGLQ0QLvyj3-e32F3-14" value="1" style="ellipse;whiteSpace=wrap;html=1;aspect=fixed;rotation=0;strokeColor=#82b366;gradientDirection=east;fillColor=#d5e8d4;rounded=0;pointerEvents=0;fontFamily=Helvetica;fontSize=16;spacingTop=4;spacingBottom=4;spacingLeft=4;spacingRight=4;points=[];fontStyle=1" parent="1" vertex="1">
          <mxGeometry x="80" y="700" width="30" height="30" as="geometry" />
        </mxCell>
        <mxCell id="G9hAGLQ0QLvyj3-e32F3-15" value="Declare Capabilities" style="text;html=1;align=center;verticalAlign=middle;whiteSpace=wrap;rounded=0;" parent="1" vertex="1">
          <mxGeometry x="110" y="700" width="120" height="30" as="geometry" />
        </mxCell>
        <mxCell id="G9hAGLQ0QLvyj3-e32F3-18" value="" style="verticalLabelPosition=bottom;verticalAlign=top;html=1;shape=mxgraph.basic.tick;fillColor=#d5e8d4;strokeColor=#82b366;" parent="1" vertex="1">
          <mxGeometry x="230" y="705" width="20" height="20" as="geometry" />
        </mxCell>
        <mxCell id="G9hAGLQ0QLvyj3-e32F3-19" value="&lt;span style=&quot;font-weight: normal;&quot;&gt;2&lt;/span&gt;" style="ellipse;whiteSpace=wrap;html=1;aspect=fixed;rotation=0;gradientColor=#223548;strokeColor=none;gradientDirection=east;fillColor=#5b738b;rounded=0;pointerEvents=0;fontFamily=Helvetica;fontSize=16;fontColor=#FFFFFF;spacingTop=4;spacingBottom=4;spacingLeft=4;spacingRight=4;points=[];fontStyle=1" parent="1" vertex="1">
          <mxGeometry x="80" y="740" width="30" height="30" as="geometry" />
        </mxCell>
        <mxCell id="G9hAGLQ0QLvyj3-e32F3-20" value="Create Agent Card" style="text;html=1;align=center;verticalAlign=middle;whiteSpace=wrap;rounded=0;" parent="1" vertex="1">
          <mxGeometry x="110" y="740" width="120" height="30" as="geometry" />
        </mxCell>
        <UserObject label="&lt;span id=&quot;__span-2-5&quot; style=&quot;box-sizing: inherit; font-family: &amp;quot;Roboto Mono&amp;quot;, SFMono-Regular, Consolas, Menlo, monospace; font-size: 13.6px; font-style: normal; font-variant-ligatures: none; font-variant-caps: normal; font-weight: 400; letter-spacing: normal; orphans: 2; text-align: start; text-indent: 0px; text-transform: none; widows: 2; word-spacing: 0px; -webkit-text-stroke-width: 0px; white-space: pre; text-decoration-thickness: initial; text-decoration-style: initial; text-decoration-color: initial; color: rgb(54, 70, 78);&quot;&gt;&lt;font color=&quot;rgba(0, 0, 0, 0.54)&quot;&gt;{&lt;/font&gt;&lt;font style=&quot;color: rgb(255, 0, 0);&quot;&gt;&lt;br&gt;&lt;/font&gt;&lt;/span&gt;&lt;span id=&quot;__span-2-6&quot; style=&quot;box-sizing: inherit; color: rgb(54, 70, 78); font-family: &amp;quot;Roboto Mono&amp;quot;, SFMono-Regular, Consolas, Menlo, monospace; font-size: 13.6px; font-style: normal; font-variant-ligatures: none; font-variant-caps: normal; font-weight: 400; letter-spacing: normal; orphans: 2; text-align: start; text-indent: 0px; text-transform: none; widows: 2; word-spacing: 0px; -webkit-text-stroke-width: 0px; white-space: pre; text-decoration-thickness: initial; text-decoration-style: initial; text-decoration-color: initial;&quot;&gt;&lt;a id=&quot;__codelineno-2-6&quot; name=&quot;__codelineno-2-6&quot; href=&quot;https://google.github.io/A2A/tutorials/python/5-add-agent-card/#__codelineno-2-6&quot; style=&quot;box-sizing: inherit; -webkit-tap-highlight-color: transparent; color: rgb(64, 81, 181); text-decoration: none; word-break: break-word; transition: color 125ms; position: absolute; visibility: hidden;&quot;&gt;&lt;/a&gt;    &lt;span class=&quot;n&quot; style=&quot;box-sizing: inherit; color: rgb(54, 70, 78);&quot;&gt;name&lt;/span&gt;&lt;span class=&quot;o&quot; style=&quot;box-sizing: inherit; color: rgba(0, 0, 0, 0.54);&quot;&gt;=&lt;/span&gt;&lt;span class=&quot;s2&quot; style=&quot;box-sizing: inherit; color: rgb(28, 125, 77);&quot;&gt;&quot;Echo Agent&quot;&lt;/span&gt;&lt;span class=&quot;p&quot; style=&quot;box-sizing: inherit; color: rgba(0, 0, 0, 0.54);&quot;&gt;,&lt;/span&gt;&lt;br&gt;&lt;/span&gt;&lt;span id=&quot;__span-2-7&quot; style=&quot;box-sizing: inherit; color: rgb(54, 70, 78); font-family: &amp;quot;Roboto Mono&amp;quot;, SFMono-Regular, Consolas, Menlo, monospace; font-size: 13.6px; font-style: normal; font-variant-ligatures: none; font-variant-caps: normal; font-weight: 400; letter-spacing: normal; orphans: 2; text-align: start; text-indent: 0px; text-transform: none; widows: 2; word-spacing: 0px; -webkit-text-stroke-width: 0px; white-space: pre; text-decoration-thickness: initial; text-decoration-style: initial; text-decoration-color: initial;&quot;&gt;&lt;a id=&quot;__codelineno-2-7&quot; name=&quot;__codelineno-2-7&quot; href=&quot;https://google.github.io/A2A/tutorials/python/5-add-agent-card/#__codelineno-2-7&quot; style=&quot;box-sizing: inherit; -webkit-tap-highlight-color: transparent; color: rgb(64, 81, 181); text-decoration: none; word-break: break-word; transition: color 125ms; position: absolute; visibility: hidden;&quot;&gt;&lt;/a&gt;    &lt;span class=&quot;n&quot; style=&quot;box-sizing: inherit; color: rgb(54, 70, 78);&quot;&gt;description&lt;/span&gt;&lt;span class=&quot;o&quot; style=&quot;box-sizing: inherit; color: rgba(0, 0, 0, 0.54);&quot;&gt;=&lt;/span&gt;&lt;span class=&quot;s2&quot; style=&quot;box-sizing: inherit; color: rgb(28, 125, 77);&quot;&gt;&quot;This agent echos the input given&quot;&lt;/span&gt;&lt;span class=&quot;p&quot; style=&quot;box-sizing: inherit; color: rgba(0, 0, 0, 0.54);&quot;&gt;,&lt;/span&gt;&lt;br&gt;&lt;/span&gt;&lt;span id=&quot;__span-2-8&quot; style=&quot;box-sizing: inherit; color: rgb(54, 70, 78); font-family: &amp;quot;Roboto Mono&amp;quot;, SFMono-Regular, Consolas, Menlo, monospace; font-size: 13.6px; font-style: normal; font-variant-ligatures: none; font-variant-caps: normal; font-weight: 400; letter-spacing: normal; orphans: 2; text-align: start; text-indent: 0px; text-transform: none; widows: 2; word-spacing: 0px; -webkit-text-stroke-width: 0px; white-space: pre; text-decoration-thickness: initial; text-decoration-style: initial; text-decoration-color: initial;&quot;&gt;&lt;a id=&quot;__codelineno-2-8&quot; name=&quot;__codelineno-2-8&quot; href=&quot;https://google.github.io/A2A/tutorials/python/5-add-agent-card/#__codelineno-2-8&quot; style=&quot;box-sizing: inherit; -webkit-tap-highlight-color: transparent; color: rgb(64, 81, 181); text-decoration: none; word-break: break-word; transition: color 125ms; position: absolute; visibility: hidden;&quot;&gt;&lt;/a&gt;    &lt;span class=&quot;n&quot; style=&quot;box-sizing: inherit; color: rgb(54, 70, 78);&quot;&gt;url&lt;/span&gt;&lt;span class=&quot;o&quot; style=&quot;box-sizing: inherit; color: rgba(0, 0, 0, 0.54);&quot;&gt;=&lt;/span&gt;&lt;span class=&quot;sa&quot; style=&quot;box-sizing: inherit;&quot;&gt;f&lt;/span&gt;&lt;span class=&quot;s2&quot; style=&quot;box-sizing: inherit; color: rgb(28, 125, 77);&quot;&gt;&quot;http://&lt;/span&gt;&lt;span class=&quot;si&quot; style=&quot;box-sizing: inherit; color: rgb(28, 125, 77);&quot;&gt;{&lt;/span&gt;&lt;span class=&quot;n&quot; style=&quot;box-sizing: inherit; color: rgb(54, 70, 78);&quot;&gt;host&lt;/span&gt;&lt;span class=&quot;si&quot; style=&quot;box-sizing: inherit; color: rgb(28, 125, 77);&quot;&gt;}&lt;/span&gt;&lt;span class=&quot;s2&quot; style=&quot;box-sizing: inherit; color: rgb(28, 125, 77);&quot;&gt;:&lt;/span&gt;&lt;span class=&quot;si&quot; style=&quot;box-sizing: inherit; color: rgb(28, 125, 77);&quot;&gt;{&lt;/span&gt;&lt;span class=&quot;n&quot; style=&quot;box-sizing: inherit; color: rgb(54, 70, 78);&quot;&gt;port&lt;/span&gt;&lt;span class=&quot;si&quot; style=&quot;box-sizing: inherit; color: rgb(28, 125, 77);&quot;&gt;}&lt;/span&gt;&lt;span class=&quot;s2&quot; style=&quot;box-sizing: inherit; color: rgb(28, 125, 77);&quot;&gt;/&quot;&lt;/span&gt;&lt;span class=&quot;p&quot; style=&quot;box-sizing: inherit; color: rgba(0, 0, 0, 0.54);&quot;&gt;,&lt;/span&gt;&lt;br&gt;&lt;/span&gt;&lt;span id=&quot;__span-2-9&quot; style=&quot;box-sizing: inherit; color: rgb(54, 70, 78); font-family: &amp;quot;Roboto Mono&amp;quot;, SFMono-Regular, Consolas, Menlo, monospace; font-size: 13.6px; font-style: normal; font-variant-ligatures: none; font-variant-caps: normal; font-weight: 400; letter-spacing: normal; orphans: 2; text-align: start; text-indent: 0px; text-transform: none; widows: 2; word-spacing: 0px; -webkit-text-stroke-width: 0px; white-space: pre; text-decoration-thickness: initial; text-decoration-style: initial; text-decoration-color: initial;&quot;&gt;&lt;a id=&quot;__codelineno-2-9&quot; name=&quot;__codelineno-2-9&quot; href=&quot;https://google.github.io/A2A/tutorials/python/5-add-agent-card/#__codelineno-2-9&quot; style=&quot;box-sizing: inherit; -webkit-tap-highlight-color: transparent; color: rgb(64, 81, 181); text-decoration: none; word-break: break-word; transition: color 125ms; position: absolute; visibility: hidden;&quot;&gt;&lt;/a&gt;    &lt;span class=&quot;n&quot; style=&quot;box-sizing: inherit; color: rgb(54, 70, 78);&quot;&gt;version&lt;/span&gt;&lt;span class=&quot;o&quot; style=&quot;box-sizing: inherit; color: rgba(0, 0, 0, 0.54);&quot;&gt;=&lt;/span&gt;&lt;span class=&quot;s2&quot; style=&quot;box-sizing: inherit; color: rgb(28, 125, 77);&quot;&gt;&quot;0.1.0&quot;&lt;/span&gt;&lt;span class=&quot;p&quot; style=&quot;box-sizing: inherit; color: rgba(0, 0, 0, 0.54);&quot;&gt;,&lt;/span&gt;&lt;br&gt;&lt;/span&gt;&lt;span id=&quot;__span-2-10&quot; style=&quot;box-sizing: inherit; color: rgb(54, 70, 78); font-family: &amp;quot;Roboto Mono&amp;quot;, SFMono-Regular, Consolas, Menlo, monospace; font-size: 13.6px; font-style: normal; font-variant-ligatures: none; font-variant-caps: normal; font-weight: 400; letter-spacing: normal; orphans: 2; text-align: start; text-indent: 0px; text-transform: none; widows: 2; word-spacing: 0px; -webkit-text-stroke-width: 0px; white-space: pre; text-decoration-thickness: initial; text-decoration-style: initial; text-decoration-color: initial;&quot;&gt;&lt;a id=&quot;__codelineno-2-10&quot; name=&quot;__codelineno-2-10&quot; href=&quot;https://google.github.io/A2A/tutorials/python/5-add-agent-card/#__codelineno-2-10&quot; style=&quot;box-sizing: inherit; -webkit-tap-highlight-color: transparent; color: rgb(64, 81, 181); text-decoration: none; word-break: break-word; transition: color 125ms; position: absolute; visibility: hidden;&quot;&gt;&lt;/a&gt;    &lt;span class=&quot;n&quot; style=&quot;box-sizing: inherit; color: rgb(54, 70, 78);&quot;&gt;defaultInputModes&lt;/span&gt;&lt;span class=&quot;o&quot; style=&quot;box-sizing: inherit; color: rgba(0, 0, 0, 0.54);&quot;&gt;=&lt;/span&gt;&lt;span class=&quot;p&quot; style=&quot;box-sizing: inherit; color: rgba(0, 0, 0, 0.54);&quot;&gt;[&lt;/span&gt;&lt;span class=&quot;s2&quot; style=&quot;box-sizing: inherit; color: rgb(28, 125, 77);&quot;&gt;&quot;text&quot;&lt;/span&gt;&lt;span class=&quot;p&quot; style=&quot;box-sizing: inherit; color: rgba(0, 0, 0, 0.54);&quot;&gt;],&lt;/span&gt;&lt;br&gt;&lt;/span&gt;&lt;span id=&quot;__span-2-11&quot; style=&quot;box-sizing: inherit; color: rgb(54, 70, 78); font-family: &amp;quot;Roboto Mono&amp;quot;, SFMono-Regular, Consolas, Menlo, monospace; font-size: 13.6px; font-style: normal; font-variant-ligatures: none; font-variant-caps: normal; font-weight: 400; letter-spacing: normal; orphans: 2; text-align: start; text-indent: 0px; text-transform: none; widows: 2; word-spacing: 0px; -webkit-text-stroke-width: 0px; white-space: pre; text-decoration-thickness: initial; text-decoration-style: initial; text-decoration-color: initial;&quot;&gt;&lt;a id=&quot;__codelineno-2-11&quot; name=&quot;__codelineno-2-11&quot; href=&quot;https://google.github.io/A2A/tutorials/python/5-add-agent-card/#__codelineno-2-11&quot; style=&quot;box-sizing: inherit; -webkit-tap-highlight-color: transparent; color: rgb(64, 81, 181); text-decoration: none; word-break: break-word; transition: color 125ms; position: absolute; visibility: hidden;&quot;&gt;&lt;/a&gt;    &lt;span class=&quot;n&quot; style=&quot;box-sizing: inherit; color: rgb(54, 70, 78);&quot;&gt;defaultOutputModes&lt;/span&gt;&lt;span class=&quot;o&quot; style=&quot;box-sizing: inherit; color: rgba(0, 0, 0, 0.54);&quot;&gt;=&lt;/span&gt;&lt;span class=&quot;p&quot; style=&quot;box-sizing: inherit; color: rgba(0, 0, 0, 0.54);&quot;&gt;[&lt;/span&gt;&lt;span class=&quot;s2&quot; style=&quot;box-sizing: inherit; color: rgb(28, 125, 77);&quot;&gt;&quot;text&quot;&lt;/span&gt;&lt;span class=&quot;p&quot; style=&quot;box-sizing: inherit; color: rgba(0, 0, 0, 0.54);&quot;&gt;],&lt;/span&gt;&lt;br&gt;&lt;/span&gt;&lt;span id=&quot;__span-2-12&quot; style=&quot;box-sizing: inherit; font-family: &amp;quot;Roboto Mono&amp;quot;, SFMono-Regular, Consolas, Menlo, monospace; font-size: 13.6px; font-style: normal; font-variant-ligatures: none; font-variant-caps: normal; font-weight: 400; letter-spacing: normal; orphans: 2; text-align: start; text-indent: 0px; text-transform: none; widows: 2; word-spacing: 0px; -webkit-text-stroke-width: 0px; white-space: pre; text-decoration-thickness: initial; text-decoration-style: initial; text-decoration-color: initial;&quot;&gt;&lt;a id=&quot;__codelineno-2-12&quot; name=&quot;__codelineno-2-12&quot; href=&quot;https://google.github.io/A2A/tutorials/python/5-add-agent-card/#__codelineno-2-12&quot; style=&quot;color: rgb(64, 81, 181); box-sizing: inherit; -webkit-tap-highlight-color: transparent; text-decoration: none; word-break: break-word; transition: color 125ms; position: absolute; visibility: hidden;&quot;&gt;&lt;/a&gt;&lt;font style=&quot;color: rgb(255, 0, 0);&quot;&gt;    &lt;/font&gt;&lt;span class=&quot;n&quot; style=&quot;color: rgb(54, 70, 78); box-sizing: inherit;&quot;&gt;capabilities&lt;/span&gt;&lt;span class=&quot;o&quot; style=&quot;color: rgba(0, 0, 0, 0.54); box-sizing: inherit;&quot;&gt;=&lt;/span&gt;&lt;span class=&quot;n&quot; style=&quot;box-sizing: inherit; color: rgb(54, 70, 78);&quot;&gt;&lt;font style=&quot;color: rgb(255, 0, 0);&quot;&gt;from point 1&lt;/font&gt;&lt;/span&gt;&lt;span class=&quot;p&quot; style=&quot;color: rgba(0, 0, 0, 0.54); box-sizing: inherit;&quot;&gt;,&lt;/span&gt;&lt;font style=&quot;color: rgb(255, 0, 0);&quot;&gt;&lt;br&gt;&lt;/font&gt;&lt;/span&gt;&lt;span id=&quot;__span-2-13&quot; style=&quot;box-sizing: inherit; color: rgb(54, 70, 78); font-family: &amp;quot;Roboto Mono&amp;quot;, SFMono-Regular, Consolas, Menlo, monospace; font-size: 13.6px; font-style: normal; font-variant-ligatures: none; font-variant-caps: normal; font-weight: 400; letter-spacing: normal; orphans: 2; text-align: start; text-indent: 0px; text-transform: none; widows: 2; word-spacing: 0px; -webkit-text-stroke-width: 0px; white-space: pre; text-decoration-thickness: initial; text-decoration-style: initial; text-decoration-color: initial;&quot;&gt;&lt;a id=&quot;__codelineno-2-13&quot; name=&quot;__codelineno-2-13&quot; href=&quot;https://google.github.io/A2A/tutorials/python/5-add-agent-card/#__codelineno-2-13&quot; style=&quot;box-sizing: inherit; -webkit-tap-highlight-color: transparent; color: rgb(64, 81, 181); text-decoration: none; word-break: break-word; transition: color 125ms; position: absolute; visibility: hidden;&quot;&gt;&lt;/a&gt;    &lt;span class=&quot;n&quot; style=&quot;box-sizing: inherit; color: rgb(54, 70, 78);&quot;&gt;skills&lt;/span&gt;&lt;span class=&quot;o&quot; style=&quot;box-sizing: inherit; color: rgba(0, 0, 0, 0.54);&quot;&gt;=&lt;/span&gt;&lt;span class=&quot;p&quot; style=&quot;box-sizing: inherit; color: rgba(0, 0, 0, 0.54);&quot;&gt;[&lt;/span&gt;&lt;span class=&quot;n&quot; style=&quot;box-sizing: inherit; color: rgb(54, 70, 78);&quot;&gt;skill&lt;/span&gt;&lt;span class=&quot;p&quot; style=&quot;box-sizing: inherit; color: rgba(0, 0, 0, 0.54);&quot;&gt;]&lt;/span&gt;&lt;br&gt;&lt;/span&gt;&lt;span id=&quot;__span-2-14&quot; style=&quot;box-sizing: inherit; color: rgb(54, 70, 78); font-family: &amp;quot;Roboto Mono&amp;quot;, SFMono-Regular, Consolas, Menlo, monospace; font-size: 13.6px; font-style: normal; font-variant-ligatures: none; font-variant-caps: normal; font-weight: 400; letter-spacing: normal; orphans: 2; text-align: start; text-indent: 0px; text-transform: none; widows: 2; word-spacing: 0px; -webkit-text-stroke-width: 0px; white-space: pre; text-decoration-thickness: initial; text-decoration-style: initial; text-decoration-color: initial;&quot;&gt;&lt;a id=&quot;__codelineno-2-14&quot; name=&quot;__codelineno-2-14&quot; href=&quot;https://google.github.io/A2A/tutorials/python/5-add-agent-card/#__codelineno-2-14&quot; style=&quot;box-sizing: inherit; -webkit-tap-highlight-color: transparent; color: rgb(64, 81, 181); text-decoration: none; word-break: break-word; transition: color 125ms; position: absolute; visibility: hidden;&quot;&gt;&lt;/a&gt;}&lt;/span&gt;" link="&lt;span id=&quot;__span-2-5&quot; style=&quot;box-sizing: inherit; color: rgb(54, 70, 78); font-family: &amp;quot;Roboto Mono&amp;quot;, SFMono-Regular, Consolas, Menlo, monospace; font-size: 13.6px; font-style: normal; font-variant-ligatures: none; font-variant-caps: normal; font-weight: 400; letter-spacing: normal; orphans: 2; text-align: start; text-indent: 0px; text-transform: none; widows: 2; word-spacing: 0px; -webkit-text-stroke-width: 0px; white-space: pre; text-decoration-thickness: initial; text-decoration-style: initial; text-decoration-color: initial;&quot;&gt;&lt;span class=&quot;p&quot; style=&quot;box-sizing: inherit; color: rgba(0, 0, 0, 0.54);&quot;&gt;(&lt;/span&gt;&#xa;&lt;/span&gt;&lt;span id=&quot;__span-2-6&quot; style=&quot;box-sizing: inherit; color: rgb(54, 70, 78); font-family: &amp;quot;Roboto Mono&amp;quot;, SFMono-Regular, Consolas, Menlo, monospace; font-size: 13.6px; font-style: normal; font-variant-ligatures: none; font-variant-caps: normal; font-weight: 400; letter-spacing: normal; orphans: 2; text-align: start; text-indent: 0px; text-transform: none; widows: 2; word-spacing: 0px; -webkit-text-stroke-width: 0px; white-space: pre; text-decoration-thickness: initial; text-decoration-style: initial; text-decoration-color: initial;&quot;&gt;&lt;a id=&quot;__codelineno-2-6&quot; name=&quot;__codelineno-2-6&quot; href=&quot;https://google.github.io/A2A/tutorials/python/5-add-agent-card/#__codelineno-2-6&quot; style=&quot;box-sizing: inherit; -webkit-tap-highlight-color: transparent; color: rgb(64, 81, 181); text-decoration: none; word-break: break-word; transition: color 125ms; position: absolute; visibility: hidden;&quot;&gt;&lt;/a&gt;    &lt;span class=&quot;n&quot; style=&quot;box-sizing: inherit; color: rgb(54, 70, 78);&quot;&gt;name&lt;/span&gt;&lt;span class=&quot;o&quot; style=&quot;box-sizing: inherit; color: rgba(0, 0, 0, 0.54);&quot;&gt;=&lt;/span&gt;&lt;span class=&quot;s2&quot; style=&quot;box-sizing: inherit; color: rgb(28, 125, 77);&quot;&gt;&quot;Echo Agent&quot;&lt;/span&gt;&lt;span class=&quot;p&quot; style=&quot;box-sizing: inherit; color: rgba(0, 0, 0, 0.54);&quot;&gt;,&lt;/span&gt;&#xa;&lt;/span&gt;&lt;span id=&quot;__span-2-7&quot; style=&quot;box-sizing: inherit; color: rgb(54, 70, 78); font-family: &amp;quot;Roboto Mono&amp;quot;, SFMono-Regular, Consolas, Menlo, monospace; font-size: 13.6px; font-style: normal; font-variant-ligatures: none; font-variant-caps: normal; font-weight: 400; letter-spacing: normal; orphans: 2; text-align: start; text-indent: 0px; text-transform: none; widows: 2; word-spacing: 0px; -webkit-text-stroke-width: 0px; white-space: pre; text-decoration-thickness: initial; text-decoration-style: initial; text-decoration-color: initial;&quot;&gt;&lt;a id=&quot;__codelineno-2-7&quot; name=&quot;__codelineno-2-7&quot; href=&quot;https://google.github.io/A2A/tutorials/python/5-add-agent-card/#__codelineno-2-7&quot; style=&quot;box-sizing: inherit; -webkit-tap-highlight-color: transparent; color: rgb(64, 81, 181); text-decoration: none; word-break: break-word; transition: color 125ms; position: absolute; visibility: hidden;&quot;&gt;&lt;/a&gt;    &lt;span class=&quot;n&quot; style=&quot;box-sizing: inherit; color: rgb(54, 70, 78);&quot;&gt;description&lt;/span&gt;&lt;span class=&quot;o&quot; style=&quot;box-sizing: inherit; color: rgba(0, 0, 0, 0.54);&quot;&gt;=&lt;/span&gt;&lt;span class=&quot;s2&quot; style=&quot;box-sizing: inherit; color: rgb(28, 125, 77);&quot;&gt;&quot;This agent echos the input given&quot;&lt;/span&gt;&lt;span class=&quot;p&quot; style=&quot;box-sizing: inherit; color: rgba(0, 0, 0, 0.54);&quot;&gt;,&lt;/span&gt;&#xa;&lt;/span&gt;&lt;span id=&quot;__span-2-8&quot; style=&quot;box-sizing: inherit; color: rgb(54, 70, 78); font-family: &amp;quot;Roboto Mono&amp;quot;, SFMono-Regular, Consolas, Menlo, monospace; font-size: 13.6px; font-style: normal; font-variant-ligatures: none; font-variant-caps: normal; font-weight: 400; letter-spacing: normal; orphans: 2; text-align: start; text-indent: 0px; text-transform: none; widows: 2; word-spacing: 0px; -webkit-text-stroke-width: 0px; white-space: pre; text-decoration-thickness: initial; text-decoration-style: initial; text-decoration-color: initial;&quot;&gt;&lt;a id=&quot;__codelineno-2-8&quot; name=&quot;__codelineno-2-8&quot; href=&quot;https://google.github.io/A2A/tutorials/python/5-add-agent-card/#__codelineno-2-8&quot; style=&quot;box-sizing: inherit; -webkit-tap-highlight-color: transparent; color: rgb(64, 81, 181); text-decoration: none; word-break: break-word; transition: color 125ms; position: absolute; visibility: hidden;&quot;&gt;&lt;/a&gt;    &lt;span class=&quot;n&quot; style=&quot;box-sizing: inherit; color: rgb(54, 70, 78);&quot;&gt;url&lt;/span&gt;&lt;span class=&quot;o&quot; style=&quot;box-sizing: inherit; color: rgba(0, 0, 0, 0.54);&quot;&gt;=&lt;/span&gt;&lt;span class=&quot;sa&quot; style=&quot;box-sizing: inherit;&quot;&gt;f&lt;/span&gt;&lt;span class=&quot;s2&quot; style=&quot;box-sizing: inherit; color: rgb(28, 125, 77);&quot;&gt;&quot;http://&lt;/span&gt;&lt;span class=&quot;si&quot; style=&quot;box-sizing: inherit; color: rgb(28, 125, 77);&quot;&gt;{&lt;/span&gt;&lt;span class=&quot;n&quot; style=&quot;box-sizing: inherit; color: rgb(54, 70, 78);&quot;&gt;host&lt;/span&gt;&lt;span class=&quot;si&quot; style=&quot;box-sizing: inherit; color: rgb(28, 125, 77);&quot;&gt;}&lt;/span&gt;&lt;span class=&quot;s2&quot; style=&quot;box-sizing: inherit; color: rgb(28, 125, 77);&quot;&gt;:&lt;/span&gt;&lt;span class=&quot;si&quot; style=&quot;box-sizing: inherit; color: rgb(28, 125, 77);&quot;&gt;{&lt;/span&gt;&lt;span class=&quot;n&quot; style=&quot;box-sizing: inherit; color: rgb(54, 70, 78);&quot;&gt;port&lt;/span&gt;&lt;span class=&quot;si&quot; style=&quot;box-sizing: inherit; color: rgb(28, 125, 77);&quot;&gt;}&lt;/span&gt;&lt;span class=&quot;s2&quot; style=&quot;box-sizing: inherit; color: rgb(28, 125, 77);&quot;&gt;/&quot;&lt;/span&gt;&lt;span class=&quot;p&quot; style=&quot;box-sizing: inherit; color: rgba(0, 0, 0, 0.54);&quot;&gt;,&lt;/span&gt;&#xa;&lt;/span&gt;&lt;span id=&quot;__span-2-9&quot; style=&quot;box-sizing: inherit; color: rgb(54, 70, 78); font-family: &amp;quot;Roboto Mono&amp;quot;, SFMono-Regular, Consolas, Menlo, monospace; font-size: 13.6px; font-style: normal; font-variant-ligatures: none; font-variant-caps: normal; font-weight: 400; letter-spacing: normal; orphans: 2; text-align: start; text-indent: 0px; text-transform: none; widows: 2; word-spacing: 0px; -webkit-text-stroke-width: 0px; white-space: pre; text-decoration-thickness: initial; text-decoration-style: initial; text-decoration-color: initial;&quot;&gt;&lt;a id=&quot;__codelineno-2-9&quot; name=&quot;__codelineno-2-9&quot; href=&quot;https://google.github.io/A2A/tutorials/python/5-add-agent-card/#__codelineno-2-9&quot; style=&quot;box-sizing: inherit; -webkit-tap-highlight-color: transparent; color: rgb(64, 81, 181); text-decoration: none; word-break: break-word; transition: color 125ms; position: absolute; visibility: hidden;&quot;&gt;&lt;/a&gt;    &lt;span class=&quot;n&quot; style=&quot;box-sizing: inherit; color: rgb(54, 70, 78);&quot;&gt;version&lt;/span&gt;&lt;span class=&quot;o&quot; style=&quot;box-sizing: inherit; color: rgba(0, 0, 0, 0.54);&quot;&gt;=&lt;/span&gt;&lt;span class=&quot;s2&quot; style=&quot;box-sizing: inherit; color: rgb(28, 125, 77);&quot;&gt;&quot;0.1.0&quot;&lt;/span&gt;&lt;span class=&quot;p&quot; style=&quot;box-sizing: inherit; color: rgba(0, 0, 0, 0.54);&quot;&gt;,&lt;/span&gt;&#xa;&lt;/span&gt;&lt;span id=&quot;__span-2-10&quot; style=&quot;box-sizing: inherit; color: rgb(54, 70, 78); font-family: &amp;quot;Roboto Mono&amp;quot;, SFMono-Regular, Consolas, Menlo, monospace; font-size: 13.6px; font-style: normal; font-variant-ligatures: none; font-variant-caps: normal; font-weight: 400; letter-spacing: normal; orphans: 2; text-align: start; text-indent: 0px; text-transform: none; widows: 2; word-spacing: 0px; -webkit-text-stroke-width: 0px; white-space: pre; text-decoration-thickness: initial; text-decoration-style: initial; text-decoration-color: initial;&quot;&gt;&lt;a id=&quot;__codelineno-2-10&quot; name=&quot;__codelineno-2-10&quot; href=&quot;https://google.github.io/A2A/tutorials/python/5-add-agent-card/#__codelineno-2-10&quot; style=&quot;box-sizing: inherit; -webkit-tap-highlight-color: transparent; color: rgb(64, 81, 181); text-decoration: none; word-break: break-word; transition: color 125ms; position: absolute; visibility: hidden;&quot;&gt;&lt;/a&gt;    &lt;span class=&quot;n&quot; style=&quot;box-sizing: inherit; color: rgb(54, 70, 78);&quot;&gt;defaultInputModes&lt;/span&gt;&lt;span class=&quot;o&quot; style=&quot;box-sizing: inherit; color: rgba(0, 0, 0, 0.54);&quot;&gt;=&lt;/span&gt;&lt;span class=&quot;p&quot; style=&quot;box-sizing: inherit; color: rgba(0, 0, 0, 0.54);&quot;&gt;[&lt;/span&gt;&lt;span class=&quot;s2&quot; style=&quot;box-sizing: inherit; color: rgb(28, 125, 77);&quot;&gt;&quot;text&quot;&lt;/span&gt;&lt;span class=&quot;p&quot; style=&quot;box-sizing: inherit; color: rgba(0, 0, 0, 0.54);&quot;&gt;],&lt;/span&gt;&#xa;&lt;/span&gt;&lt;span id=&quot;__span-2-11&quot; style=&quot;box-sizing: inherit; color: rgb(54, 70, 78); font-family: &amp;quot;Roboto Mono&amp;quot;, SFMono-Regular, Consolas, Menlo, monospace; font-size: 13.6px; font-style: normal; font-variant-ligatures: none; font-variant-caps: normal; font-weight: 400; letter-spacing: normal; orphans: 2; text-align: start; text-indent: 0px; text-transform: none; widows: 2; word-spacing: 0px; -webkit-text-stroke-width: 0px; white-space: pre; text-decoration-thickness: initial; text-decoration-style: initial; text-decoration-color: initial;&quot;&gt;&lt;a id=&quot;__codelineno-2-11&quot; name=&quot;__codelineno-2-11&quot; href=&quot;https://google.github.io/A2A/tutorials/python/5-add-agent-card/#__codelineno-2-11&quot; style=&quot;box-sizing: inherit; -webkit-tap-highlight-color: transparent; color: rgb(64, 81, 181); text-decoration: none; word-break: break-word; transition: color 125ms; position: absolute; visibility: hidden;&quot;&gt;&lt;/a&gt;    &lt;span class=&quot;n&quot; style=&quot;box-sizing: inherit; color: rgb(54, 70, 78);&quot;&gt;defaultOutputModes&lt;/span&gt;&lt;span class=&quot;o&quot; style=&quot;box-sizing: inherit; color: rgba(0, 0, 0, 0.54);&quot;&gt;=&lt;/span&gt;&lt;span class=&quot;p&quot; style=&quot;box-sizing: inherit; color: rgba(0, 0, 0, 0.54);&quot;&gt;[&lt;/span&gt;&lt;span class=&quot;s2&quot; style=&quot;box-sizing: inherit; color: rgb(28, 125, 77);&quot;&gt;&quot;text&quot;&lt;/span&gt;&lt;span class=&quot;p&quot; style=&quot;box-sizing: inherit; color: rgba(0, 0, 0, 0.54);&quot;&gt;],&lt;/span&gt;&#xa;&lt;/span&gt;&lt;span id=&quot;__span-2-12&quot; style=&quot;box-sizing: inherit; color: rgb(54, 70, 78); font-family: &amp;quot;Roboto Mono&amp;quot;, SFMono-Regular, Consolas, Menlo, monospace; font-size: 13.6px; font-style: normal; font-variant-ligatures: none; font-variant-caps: normal; font-weight: 400; letter-spacing: normal; orphans: 2; text-align: start; text-indent: 0px; text-transform: none; widows: 2; word-spacing: 0px; -webkit-text-stroke-width: 0px; white-space: pre; text-decoration-thickness: initial; text-decoration-style: initial; text-decoration-color: initial;&quot;&gt;&lt;a id=&quot;__codelineno-2-12&quot; name=&quot;__codelineno-2-12&quot; href=&quot;https://google.github.io/A2A/tutorials/python/5-add-agent-card/#__codelineno-2-12&quot; style=&quot;box-sizing: inherit; -webkit-tap-highlight-color: transparent; color: rgb(64, 81, 181); text-decoration: none; word-break: break-word; transition: color 125ms; position: absolute; visibility: hidden;&quot;&gt;&lt;/a&gt;    &lt;span class=&quot;n&quot; style=&quot;box-sizing: inherit; color: rgb(54, 70, 78);&quot;&gt;capabilities&lt;/span&gt;&lt;span class=&quot;o&quot; style=&quot;box-sizing: inherit; color: rgba(0, 0, 0, 0.54);&quot;&gt;=&lt;/span&gt;&lt;span class=&quot;n&quot; style=&quot;box-sizing: inherit; color: rgb(54, 70, 78);&quot;&gt;capabilities&lt;/span&gt;&lt;span class=&quot;p&quot; style=&quot;box-sizing: inherit; color: rgba(0, 0, 0, 0.54);&quot;&gt;,&lt;/span&gt;&#xa;&lt;/span&gt;&lt;span id=&quot;__span-2-13&quot; style=&quot;box-sizing: inherit; color: rgb(54, 70, 78); font-family: &amp;quot;Roboto Mono&amp;quot;, SFMono-Regular, Consolas, Menlo, monospace; font-size: 13.6px; font-style: normal; font-variant-ligatures: none; font-variant-caps: normal; font-weight: 400; letter-spacing: normal; orphans: 2; text-align: start; text-indent: 0px; text-transform: none; widows: 2; word-spacing: 0px; -webkit-text-stroke-width: 0px; white-space: pre; text-decoration-thickness: initial; text-decoration-style: initial; text-decoration-color: initial;&quot;&gt;&lt;a id=&quot;__codelineno-2-13&quot; name=&quot;__codelineno-2-13&quot; href=&quot;https://google.github.io/A2A/tutorials/python/5-add-agent-card/#__codelineno-2-13&quot; style=&quot;box-sizing: inherit; -webkit-tap-highlight-color: transparent; color: rgb(64, 81, 181); text-decoration: none; word-break: break-word; transition: color 125ms; position: absolute; visibility: hidden;&quot;&gt;&lt;/a&gt;    &lt;span class=&quot;n&quot; style=&quot;box-sizing: inherit; color: rgb(54, 70, 78);&quot;&gt;skills&lt;/span&gt;&lt;span class=&quot;o&quot; style=&quot;box-sizing: inherit; color: rgba(0, 0, 0, 0.54);&quot;&gt;=&lt;/span&gt;&lt;span class=&quot;p&quot; style=&quot;box-sizing: inherit; color: rgba(0, 0, 0, 0.54);&quot;&gt;[&lt;/span&gt;&lt;span class=&quot;n&quot; style=&quot;box-sizing: inherit; color: rgb(54, 70, 78);&quot;&gt;skill&lt;/span&gt;&lt;span class=&quot;p&quot; style=&quot;box-sizing: inherit; color: rgba(0, 0, 0, 0.54);&quot;&gt;]&lt;/span&gt;&#xa;&lt;/span&gt;&lt;span id=&quot;__span-2-14&quot; style=&quot;box-sizing: inherit; color: rgb(54, 70, 78); font-family: &amp;quot;Roboto Mono&amp;quot;, SFMono-Regular, Consolas, Menlo, monospace; font-size: 13.6px; font-style: normal; font-variant-ligatures: none; font-variant-caps: normal; font-weight: 400; letter-spacing: normal; orphans: 2; text-align: start; text-indent: 0px; text-transform: none; widows: 2; word-spacing: 0px; -webkit-text-stroke-width: 0px; white-space: pre; text-decoration-thickness: initial; text-decoration-style: initial; text-decoration-color: initial;&quot;&gt;&lt;a id=&quot;__codelineno-2-14&quot; name=&quot;__codelineno-2-14&quot; href=&quot;https://google.github.io/A2A/tutorials/python/5-add-agent-card/#__codelineno-2-14&quot; style=&quot;box-sizing: inherit; -webkit-tap-highlight-color: transparent; color: rgb(64, 81, 181); text-decoration: none; word-break: break-word; transition: color 125ms; position: absolute; visibility: hidden;&quot;&gt;&lt;/a&gt;  &lt;span class=&quot;p&quot; style=&quot;box-sizing: inherit; color: rgba(0, 0, 0, 0.54);&quot;&gt;)&lt;/span&gt;&lt;/span&gt;" id="G9hAGLQ0QLvyj3-e32F3-21">
          <mxCell style="text;whiteSpace=wrap;html=1;" parent="1" vertex="1">
            <mxGeometry x="110" y="760" width="390" height="190" as="geometry" />
          </mxCell>
        </UserObject>
        <mxCell id="G9hAGLQ0QLvyj3-e32F3-26" value="&lt;p style=&quot;margin: 0px; margin-top: 4px; text-align: center; text-decoration: underline;&quot;&gt;&lt;strong&gt;Research&lt;/strong&gt;&lt;/p&gt;&lt;p style=&quot;margin: 0px; margin-top: 4px; text-align: center; text-decoration: underline;&quot;&gt;&lt;strong&gt;Agent&lt;br&gt;&lt;/strong&gt;&lt;/p&gt;&lt;hr&gt;&lt;p style=&quot;margin: 0px; margin-left: 8px;&quot;&gt;&lt;br&gt;&lt;/p&gt;" style="verticalAlign=middle;align=center;overflow=fill;fontSize=12;fontFamily=Helvetica;html=1;rounded=1;fontStyle=1;strokeWidth=3;" parent="1" vertex="1">
          <mxGeometry x="70" y="1020" width="470" height="320" as="geometry" />
        </mxCell>
        <mxCell id="G9hAGLQ0QLvyj3-e32F3-27" value="1" style="ellipse;whiteSpace=wrap;html=1;aspect=fixed;rotation=0;strokeColor=#82b366;gradientDirection=east;fillColor=#d5e8d4;rounded=0;pointerEvents=0;fontFamily=Helvetica;fontSize=16;spacingTop=4;spacingBottom=4;spacingLeft=4;spacingRight=4;points=[];fontStyle=1" parent="1" vertex="1">
          <mxGeometry x="80" y="1080" width="30" height="30" as="geometry" />
        </mxCell>
        <mxCell id="G9hAGLQ0QLvyj3-e32F3-28" value="Declare Capabilities" style="text;html=1;align=center;verticalAlign=middle;whiteSpace=wrap;rounded=0;" parent="1" vertex="1">
          <mxGeometry x="110" y="1080" width="120" height="30" as="geometry" />
        </mxCell>
        <mxCell id="G9hAGLQ0QLvyj3-e32F3-29" value="" style="verticalLabelPosition=bottom;verticalAlign=top;html=1;shape=mxgraph.basic.tick;fillColor=#d5e8d4;strokeColor=#82b366;" parent="1" vertex="1">
          <mxGeometry x="230" y="1085" width="20" height="20" as="geometry" />
        </mxCell>
        <mxCell id="G9hAGLQ0QLvyj3-e32F3-35" value="2" style="ellipse;whiteSpace=wrap;html=1;aspect=fixed;rotation=0;strokeColor=#82b366;gradientDirection=east;fillColor=#d5e8d4;rounded=0;pointerEvents=0;fontFamily=Helvetica;fontSize=16;spacingTop=4;spacingBottom=4;spacingLeft=4;spacingRight=4;points=[];fontStyle=1" parent="1" vertex="1">
          <mxGeometry x="80" y="1120" width="30" height="30" as="geometry" />
        </mxCell>
        <mxCell id="G9hAGLQ0QLvyj3-e32F3-36" value="Create Agent Card" style="text;html=1;align=center;verticalAlign=middle;whiteSpace=wrap;rounded=0;" parent="1" vertex="1">
          <mxGeometry x="110" y="1120" width="110" height="30" as="geometry" />
        </mxCell>
        <mxCell id="G9hAGLQ0QLvyj3-e32F3-37" value="" style="verticalLabelPosition=bottom;verticalAlign=top;html=1;shape=mxgraph.basic.tick;fillColor=#d5e8d4;strokeColor=#82b366;" parent="1" vertex="1">
          <mxGeometry x="230" y="1125" width="20" height="20" as="geometry" />
        </mxCell>
        <mxCell id="G9hAGLQ0QLvyj3-e32F3-38" value="3" style="ellipse;whiteSpace=wrap;html=1;aspect=fixed;rotation=0;gradientColor=#223548;strokeColor=none;gradientDirection=east;fillColor=#5b738b;rounded=0;pointerEvents=0;fontFamily=Helvetica;fontSize=16;fontColor=#FFFFFF;spacingTop=4;spacingBottom=4;spacingLeft=4;spacingRight=4;points=[];fontStyle=1" parent="1" vertex="1">
          <mxGeometry x="80" y="1160" width="30" height="30" as="geometry" />
        </mxCell>
        <mxCell id="G9hAGLQ0QLvyj3-e32F3-39" value="Create &lt;font style=&quot;font-size: 12px;&quot;&gt;&lt;span style=&quot;color: rgba(0, 0, 0, 0.87); font-family: &amp;quot;Google Sans&amp;quot;, -apple-system, BlinkMacSystemFont, Helvetica, Arial, sans-serif; text-align: start; background-color: rgb(255, 255, 255);&quot;&gt;task manager to handle incoming requests&lt;/span&gt;&lt;/font&gt;" style="text;html=1;align=center;verticalAlign=middle;whiteSpace=wrap;rounded=0;" parent="1" vertex="1">
          <mxGeometry x="110" y="1160" width="280" height="30" as="geometry" />
        </mxCell>
        <mxCell id="G9hAGLQ0QLvyj3-e32F3-40" value="&lt;p style=&quot;margin: 0px; margin-top: 4px; text-align: center; text-decoration: underline;&quot;&gt;&lt;strong&gt;Research&lt;/strong&gt;&lt;/p&gt;&lt;p style=&quot;margin: 0px; margin-top: 4px; text-align: center; text-decoration: underline;&quot;&gt;&lt;strong&gt;Agent&lt;br&gt;&lt;/strong&gt;&lt;/p&gt;&lt;hr&gt;&lt;p style=&quot;margin: 0px; margin-left: 8px;&quot;&gt;&lt;br&gt;&lt;/p&gt;" style="verticalAlign=middle;align=center;overflow=fill;fontSize=12;fontFamily=Helvetica;html=1;rounded=1;fontStyle=1;strokeWidth=3;" parent="1" vertex="1">
          <mxGeometry x="70" y="1410" width="470" height="320" as="geometry" />
        </mxCell>
        <mxCell id="G9hAGLQ0QLvyj3-e32F3-41" value="1" style="ellipse;whiteSpace=wrap;html=1;aspect=fixed;rotation=0;strokeColor=#82b366;gradientDirection=east;fillColor=#d5e8d4;rounded=0;pointerEvents=0;fontFamily=Helvetica;fontSize=16;spacingTop=4;spacingBottom=4;spacingLeft=4;spacingRight=4;points=[];fontStyle=1" parent="1" vertex="1">
          <mxGeometry x="80" y="1470" width="30" height="30" as="geometry" />
        </mxCell>
        <mxCell id="G9hAGLQ0QLvyj3-e32F3-42" value="Declare Capabilities" style="text;html=1;align=center;verticalAlign=middle;whiteSpace=wrap;rounded=0;" parent="1" vertex="1">
          <mxGeometry x="110" y="1470" width="120" height="30" as="geometry" />
        </mxCell>
        <mxCell id="G9hAGLQ0QLvyj3-e32F3-43" value="" style="verticalLabelPosition=bottom;verticalAlign=top;html=1;shape=mxgraph.basic.tick;fillColor=#d5e8d4;strokeColor=#82b366;" parent="1" vertex="1">
          <mxGeometry x="230" y="1475" width="20" height="20" as="geometry" />
        </mxCell>
        <mxCell id="G9hAGLQ0QLvyj3-e32F3-44" value="2" style="ellipse;whiteSpace=wrap;html=1;aspect=fixed;rotation=0;strokeColor=#82b366;gradientDirection=east;fillColor=#d5e8d4;rounded=0;pointerEvents=0;fontFamily=Helvetica;fontSize=16;spacingTop=4;spacingBottom=4;spacingLeft=4;spacingRight=4;points=[];fontStyle=1" parent="1" vertex="1">
          <mxGeometry x="80" y="1510" width="30" height="30" as="geometry" />
        </mxCell>
        <mxCell id="G9hAGLQ0QLvyj3-e32F3-45" value="Create Agent Card" style="text;html=1;align=center;verticalAlign=middle;whiteSpace=wrap;rounded=0;" parent="1" vertex="1">
          <mxGeometry x="110" y="1510" width="110" height="30" as="geometry" />
        </mxCell>
        <mxCell id="G9hAGLQ0QLvyj3-e32F3-46" value="" style="verticalLabelPosition=bottom;verticalAlign=top;html=1;shape=mxgraph.basic.tick;fillColor=#d5e8d4;strokeColor=#82b366;" parent="1" vertex="1">
          <mxGeometry x="230" y="1515" width="20" height="20" as="geometry" />
        </mxCell>
        <mxCell id="G9hAGLQ0QLvyj3-e32F3-47" value="3" style="ellipse;whiteSpace=wrap;html=1;aspect=fixed;rotation=0;strokeColor=#82b366;gradientDirection=east;fillColor=#d5e8d4;rounded=0;pointerEvents=0;fontFamily=Helvetica;fontSize=16;spacingTop=4;spacingBottom=4;spacingLeft=4;spacingRight=4;points=[];fontStyle=1" parent="1" vertex="1">
          <mxGeometry x="80" y="1550" width="30" height="30" as="geometry" />
        </mxCell>
        <mxCell id="G9hAGLQ0QLvyj3-e32F3-48" value="Create &lt;font style=&quot;font-size: 12px;&quot;&gt;&lt;span style=&quot;color: rgba(0, 0, 0, 0.87); font-family: &amp;quot;Google Sans&amp;quot;, -apple-system, BlinkMacSystemFont, Helvetica, Arial, sans-serif; text-align: start; background-color: rgb(255, 255, 255);&quot;&gt;task manager to handle incoming requests&lt;/span&gt;&lt;/font&gt;" style="text;html=1;align=center;verticalAlign=middle;whiteSpace=wrap;rounded=0;" parent="1" vertex="1">
          <mxGeometry x="110" y="1550" width="280" height="30" as="geometry" />
        </mxCell>
        <mxCell id="G9hAGLQ0QLvyj3-e32F3-49" value="" style="verticalLabelPosition=bottom;verticalAlign=top;html=1;shape=mxgraph.basic.tick;fillColor=#d5e8d4;strokeColor=#82b366;" parent="1" vertex="1">
          <mxGeometry x="390" y="1550" width="20" height="20" as="geometry" />
        </mxCell>
        <mxCell id="G9hAGLQ0QLvyj3-e32F3-50" value="4" style="ellipse;whiteSpace=wrap;html=1;aspect=fixed;rotation=0;gradientColor=#223548;strokeColor=none;gradientDirection=east;fillColor=#5b738b;rounded=0;pointerEvents=0;fontFamily=Helvetica;fontSize=16;fontColor=#FFFFFF;spacingTop=4;spacingBottom=4;spacingLeft=4;spacingRight=4;points=[];fontStyle=1" parent="1" vertex="1">
          <mxGeometry x="80" y="1590" width="30" height="30" as="geometry" />
        </mxCell>
        <mxCell id="G9hAGLQ0QLvyj3-e32F3-51" value="Create Agent&amp;nbsp;&lt;font style=&quot;font-size: 12px;&quot;&gt;&lt;span style=&quot;color: rgba(0, 0, 0, 0.87); font-family: &amp;quot;Google Sans&amp;quot;, -apple-system, BlinkMacSystemFont, Helvetica, Arial, sans-serif; text-align: start; background-color: rgb(255, 255, 255);&quot;&gt;Server&amp;nbsp;&lt;/span&gt;&lt;/font&gt;" style="text;html=1;align=center;verticalAlign=middle;whiteSpace=wrap;rounded=0;" parent="1" vertex="1">
          <mxGeometry x="110" y="1590" width="130" height="30" as="geometry" />
        </mxCell>
        <UserObject label="&lt;span id=&quot;__span-2-9&quot; style=&quot;box-sizing: inherit; font-family: &amp;quot;Roboto Mono&amp;quot;, SFMono-Regular, Consolas, Menlo, monospace; font-size: 13.6px; font-style: normal; font-variant-ligatures: none; font-variant-caps: normal; font-weight: 400; letter-spacing: normal; orphans: 2; text-align: start; text-indent: 0px; text-transform: none; widows: 2; word-spacing: 0px; -webkit-text-stroke-width: 0px; white-space: pre; text-decoration-thickness: initial; text-decoration-style: initial; text-decoration-color: initial; color: rgb(54, 70, 78);&quot;&gt;&lt;font color=&quot;rgba(0, 0, 0, 0.54)&quot;&gt;{&lt;/font&gt;&lt;font color=&quot;rgba(0, 0, 0, 0)&quot;&gt;&lt;br&gt;&lt;/font&gt;&lt;/span&gt;&lt;span id=&quot;__span-2-10&quot; style=&quot;box-sizing: inherit; color: rgb(54, 70, 78); font-family: &amp;quot;Roboto Mono&amp;quot;, SFMono-Regular, Consolas, Menlo, monospace; font-size: 13.6px; font-style: normal; font-variant-ligatures: none; font-variant-caps: normal; font-weight: 400; letter-spacing: normal; orphans: 2; text-align: start; text-indent: 0px; text-transform: none; widows: 2; word-spacing: 0px; -webkit-text-stroke-width: 0px; white-space: pre; text-decoration-thickness: initial; text-decoration-style: initial; text-decoration-color: initial;&quot;&gt;&lt;a id=&quot;__codelineno-2-10&quot; name=&quot;__codelineno-2-10&quot; href=&quot;https://google.github.io/A2A/tutorials/python/6-start-server/#__codelineno-2-10&quot; style=&quot;box-sizing: inherit; -webkit-tap-highlight-color: transparent; color: rgb(64, 81, 181); text-decoration: none; word-break: break-word; transition: color 125ms; position: absolute; visibility: hidden;&quot;&gt;&lt;/a&gt; &lt;span class=&quot;n&quot; style=&quot;box-sizing: inherit; color: rgb(54, 70, 78);&quot;&gt;agent_card&lt;/span&gt;&lt;span class=&quot;o&quot; style=&quot;box-sizing: inherit; color: rgba(0, 0, 0, 0.54);&quot;&gt;=&lt;/span&gt;&lt;span class=&quot;n&quot; style=&quot;box-sizing: inherit; color: rgb(54, 70, 78);&quot;&gt;agent_card&lt;/span&gt;&lt;span class=&quot;p&quot; style=&quot;box-sizing: inherit; color: rgba(0, 0, 0, 0.54);&quot;&gt;,&lt;/span&gt;&lt;br&gt;&lt;/span&gt;&lt;span id=&quot;__span-2-11&quot; style=&quot;box-sizing: inherit; color: rgb(54, 70, 78); font-family: &amp;quot;Roboto Mono&amp;quot;, SFMono-Regular, Consolas, Menlo, monospace; font-size: 13.6px; font-style: normal; font-variant-ligatures: none; font-variant-caps: normal; font-weight: 400; letter-spacing: normal; orphans: 2; text-align: start; text-indent: 0px; text-transform: none; widows: 2; word-spacing: 0px; -webkit-text-stroke-width: 0px; white-space: pre; text-decoration-thickness: initial; text-decoration-style: initial; text-decoration-color: initial;&quot;&gt;&lt;a id=&quot;__codelineno-2-11&quot; name=&quot;__codelineno-2-11&quot; href=&quot;https://google.github.io/A2A/tutorials/python/6-start-server/#__codelineno-2-11&quot; style=&quot;box-sizing: inherit; -webkit-tap-highlight-color: transparent; color: rgb(64, 81, 181); text-decoration: none; word-break: break-word; transition: color 125ms; position: absolute; visibility: hidden;&quot;&gt;&lt;/a&gt; &lt;span class=&quot;n&quot; style=&quot;box-sizing: inherit; color: rgb(54, 70, 78);&quot;&gt;task_manager&lt;/span&gt;&lt;span class=&quot;o&quot; style=&quot;box-sizing: inherit; color: rgba(0, 0, 0, 0.54);&quot;&gt;=&lt;/span&gt;&lt;span class=&quot;n&quot; style=&quot;box-sizing: inherit; color: rgb(54, 70, 78);&quot;&gt;task_manager&lt;/span&gt;&lt;span class=&quot;p&quot; style=&quot;box-sizing: inherit; color: rgba(0, 0, 0, 0.54);&quot;&gt;,&lt;/span&gt;&lt;br&gt;&lt;/span&gt;&lt;span id=&quot;__span-2-12&quot; style=&quot;box-sizing: inherit; color: rgb(54, 70, 78); font-family: &amp;quot;Roboto Mono&amp;quot;, SFMono-Regular, Consolas, Menlo, monospace; font-size: 13.6px; font-style: normal; font-variant-ligatures: none; font-variant-caps: normal; font-weight: 400; letter-spacing: normal; orphans: 2; text-align: start; text-indent: 0px; text-transform: none; widows: 2; word-spacing: 0px; -webkit-text-stroke-width: 0px; white-space: pre; text-decoration-thickness: initial; text-decoration-style: initial; text-decoration-color: initial;&quot;&gt;&lt;a id=&quot;__codelineno-2-12&quot; name=&quot;__codelineno-2-12&quot; href=&quot;https://google.github.io/A2A/tutorials/python/6-start-server/#__codelineno-2-12&quot; style=&quot;box-sizing: inherit; -webkit-tap-highlight-color: transparent; color: rgb(64, 81, 181); text-decoration: none; word-break: break-word; transition: color 125ms; position: absolute; visibility: hidden;&quot;&gt;&lt;/a&gt; &lt;span class=&quot;n&quot; style=&quot;box-sizing: inherit; color: rgb(54, 70, 78);&quot;&gt;host&lt;/span&gt;&lt;span class=&quot;o&quot; style=&quot;box-sizing: inherit; color: rgba(0, 0, 0, 0.54);&quot;&gt;=&lt;/span&gt;&lt;span class=&quot;n&quot; style=&quot;box-sizing: inherit; color: rgb(54, 70, 78);&quot;&gt;host&lt;/span&gt;&lt;span class=&quot;p&quot; style=&quot;box-sizing: inherit; color: rgba(0, 0, 0, 0.54);&quot;&gt;,&lt;/span&gt;&lt;br&gt;&lt;/span&gt;&lt;span id=&quot;__span-2-13&quot; style=&quot;box-sizing: inherit; color: rgb(54, 70, 78); font-family: &amp;quot;Roboto Mono&amp;quot;, SFMono-Regular, Consolas, Menlo, monospace; font-size: 13.6px; font-style: normal; font-variant-ligatures: none; font-variant-caps: normal; font-weight: 400; letter-spacing: normal; orphans: 2; text-align: start; text-indent: 0px; text-transform: none; widows: 2; word-spacing: 0px; -webkit-text-stroke-width: 0px; white-space: pre; text-decoration-thickness: initial; text-decoration-style: initial; text-decoration-color: initial;&quot;&gt;&lt;a id=&quot;__codelineno-2-13&quot; name=&quot;__codelineno-2-13&quot; href=&quot;https://google.github.io/A2A/tutorials/python/6-start-server/#__codelineno-2-13&quot; style=&quot;box-sizing: inherit; -webkit-tap-highlight-color: transparent; color: rgb(64, 81, 181); text-decoration: none; word-break: break-word; transition: color 125ms; position: absolute; visibility: hidden;&quot;&gt;&lt;/a&gt; &lt;span class=&quot;n&quot; style=&quot;box-sizing: inherit; color: rgb(54, 70, 78);&quot;&gt;port&lt;/span&gt;&lt;span class=&quot;o&quot; style=&quot;box-sizing: inherit; color: rgba(0, 0, 0, 0.54);&quot;&gt;=&lt;/span&gt;&lt;span class=&quot;n&quot; style=&quot;box-sizing: inherit; color: rgb(54, 70, 78);&quot;&gt;port&lt;/span&gt;&lt;span class=&quot;p&quot; style=&quot;box-sizing: inherit; color: rgba(0, 0, 0, 0.54);&quot;&gt;,&lt;/span&gt;&lt;br&gt;&lt;/span&gt;&lt;span id=&quot;__span-2-14&quot; style=&quot;box-sizing: inherit; color: rgb(54, 70, 78); font-family: &amp;quot;Roboto Mono&amp;quot;, SFMono-Regular, Consolas, Menlo, monospace; font-size: 13.6px; font-style: normal; font-variant-ligatures: none; font-variant-caps: normal; font-weight: 400; letter-spacing: normal; orphans: 2; text-align: start; text-indent: 0px; text-transform: none; widows: 2; word-spacing: 0px; -webkit-text-stroke-width: 0px; white-space: pre; text-decoration-thickness: initial; text-decoration-style: initial; text-decoration-color: initial;&quot;&gt;&lt;a id=&quot;__codelineno-2-14&quot; name=&quot;__codelineno-2-14&quot; href=&quot;https://google.github.io/A2A/tutorials/python/6-start-server/#__codelineno-2-14&quot; style=&quot;box-sizing: inherit; -webkit-tap-highlight-color: transparent; color: rgb(64, 81, 181); text-decoration: none; word-break: break-word; transition: color 125ms; position: absolute; visibility: hidden;&quot;&gt;&lt;/a&gt;}&lt;/span&gt;" link="&lt;span id=&quot;__span-2-9&quot; style=&quot;box-sizing: inherit; color: rgb(54, 70, 78); font-family: &amp;quot;Roboto Mono&amp;quot;, SFMono-Regular, Consolas, Menlo, monospace; font-size: 13.6px; font-style: normal; font-variant-ligatures: none; font-variant-caps: normal; font-weight: 400; letter-spacing: normal; orphans: 2; text-align: start; text-indent: 0px; text-transform: none; widows: 2; word-spacing: 0px; -webkit-text-stroke-width: 0px; white-space: pre; text-decoration-thickness: initial; text-decoration-style: initial; text-decoration-color: initial;&quot;&gt;&lt;span class=&quot;p&quot; style=&quot;box-sizing: inherit; color: rgba(0, 0, 0, 0.54);&quot;&gt;(&lt;/span&gt;&#xa;&lt;/span&gt;&lt;span id=&quot;__span-2-10&quot; style=&quot;box-sizing: inherit; color: rgb(54, 70, 78); font-family: &amp;quot;Roboto Mono&amp;quot;, SFMono-Regular, Consolas, Menlo, monospace; font-size: 13.6px; font-style: normal; font-variant-ligatures: none; font-variant-caps: normal; font-weight: 400; letter-spacing: normal; orphans: 2; text-align: start; text-indent: 0px; text-transform: none; widows: 2; word-spacing: 0px; -webkit-text-stroke-width: 0px; white-space: pre; text-decoration-thickness: initial; text-decoration-style: initial; text-decoration-color: initial;&quot;&gt;&lt;a id=&quot;__codelineno-2-10&quot; name=&quot;__codelineno-2-10&quot; href=&quot;https://google.github.io/A2A/tutorials/python/6-start-server/#__codelineno-2-10&quot; style=&quot;box-sizing: inherit; -webkit-tap-highlight-color: transparent; color: rgb(64, 81, 181); text-decoration: none; word-break: break-word; transition: color 125ms; position: absolute; visibility: hidden;&quot;&gt;&lt;/a&gt;    &lt;span class=&quot;n&quot; style=&quot;box-sizing: inherit; color: rgb(54, 70, 78);&quot;&gt;agent_card&lt;/span&gt;&lt;span class=&quot;o&quot; style=&quot;box-sizing: inherit; color: rgba(0, 0, 0, 0.54);&quot;&gt;=&lt;/span&gt;&lt;span class=&quot;n&quot; style=&quot;box-sizing: inherit; color: rgb(54, 70, 78);&quot;&gt;agent_card&lt;/span&gt;&lt;span class=&quot;p&quot; style=&quot;box-sizing: inherit; color: rgba(0, 0, 0, 0.54);&quot;&gt;,&lt;/span&gt;&#xa;&lt;/span&gt;&lt;span id=&quot;__span-2-11&quot; style=&quot;box-sizing: inherit; color: rgb(54, 70, 78); font-family: &amp;quot;Roboto Mono&amp;quot;, SFMono-Regular, Consolas, Menlo, monospace; font-size: 13.6px; font-style: normal; font-variant-ligatures: none; font-variant-caps: normal; font-weight: 400; letter-spacing: normal; orphans: 2; text-align: start; text-indent: 0px; text-transform: none; widows: 2; word-spacing: 0px; -webkit-text-stroke-width: 0px; white-space: pre; text-decoration-thickness: initial; text-decoration-style: initial; text-decoration-color: initial;&quot;&gt;&lt;a id=&quot;__codelineno-2-11&quot; name=&quot;__codelineno-2-11&quot; href=&quot;https://google.github.io/A2A/tutorials/python/6-start-server/#__codelineno-2-11&quot; style=&quot;box-sizing: inherit; -webkit-tap-highlight-color: transparent; color: rgb(64, 81, 181); text-decoration: none; word-break: break-word; transition: color 125ms; position: absolute; visibility: hidden;&quot;&gt;&lt;/a&gt;    &lt;span class=&quot;n&quot; style=&quot;box-sizing: inherit; color: rgb(54, 70, 78);&quot;&gt;task_manager&lt;/span&gt;&lt;span class=&quot;o&quot; style=&quot;box-sizing: inherit; color: rgba(0, 0, 0, 0.54);&quot;&gt;=&lt;/span&gt;&lt;span class=&quot;n&quot; style=&quot;box-sizing: inherit; color: rgb(54, 70, 78);&quot;&gt;task_manager&lt;/span&gt;&lt;span class=&quot;p&quot; style=&quot;box-sizing: inherit; color: rgba(0, 0, 0, 0.54);&quot;&gt;,&lt;/span&gt;&#xa;&lt;/span&gt;&lt;span id=&quot;__span-2-12&quot; style=&quot;box-sizing: inherit; color: rgb(54, 70, 78); font-family: &amp;quot;Roboto Mono&amp;quot;, SFMono-Regular, Consolas, Menlo, monospace; font-size: 13.6px; font-style: normal; font-variant-ligatures: none; font-variant-caps: normal; font-weight: 400; letter-spacing: normal; orphans: 2; text-align: start; text-indent: 0px; text-transform: none; widows: 2; word-spacing: 0px; -webkit-text-stroke-width: 0px; white-space: pre; text-decoration-thickness: initial; text-decoration-style: initial; text-decoration-color: initial;&quot;&gt;&lt;a id=&quot;__codelineno-2-12&quot; name=&quot;__codelineno-2-12&quot; href=&quot;https://google.github.io/A2A/tutorials/python/6-start-server/#__codelineno-2-12&quot; style=&quot;box-sizing: inherit; -webkit-tap-highlight-color: transparent; color: rgb(64, 81, 181); text-decoration: none; word-break: break-word; transition: color 125ms; position: absolute; visibility: hidden;&quot;&gt;&lt;/a&gt;    &lt;span class=&quot;n&quot; style=&quot;box-sizing: inherit; color: rgb(54, 70, 78);&quot;&gt;host&lt;/span&gt;&lt;span class=&quot;o&quot; style=&quot;box-sizing: inherit; color: rgba(0, 0, 0, 0.54);&quot;&gt;=&lt;/span&gt;&lt;span class=&quot;n&quot; style=&quot;box-sizing: inherit; color: rgb(54, 70, 78);&quot;&gt;host&lt;/span&gt;&lt;span class=&quot;p&quot; style=&quot;box-sizing: inherit; color: rgba(0, 0, 0, 0.54);&quot;&gt;,&lt;/span&gt;&#xa;&lt;/span&gt;&lt;span id=&quot;__span-2-13&quot; style=&quot;box-sizing: inherit; color: rgb(54, 70, 78); font-family: &amp;quot;Roboto Mono&amp;quot;, SFMono-Regular, Consolas, Menlo, monospace; font-size: 13.6px; font-style: normal; font-variant-ligatures: none; font-variant-caps: normal; font-weight: 400; letter-spacing: normal; orphans: 2; text-align: start; text-indent: 0px; text-transform: none; widows: 2; word-spacing: 0px; -webkit-text-stroke-width: 0px; white-space: pre; text-decoration-thickness: initial; text-decoration-style: initial; text-decoration-color: initial;&quot;&gt;&lt;a id=&quot;__codelineno-2-13&quot; name=&quot;__codelineno-2-13&quot; href=&quot;https://google.github.io/A2A/tutorials/python/6-start-server/#__codelineno-2-13&quot; style=&quot;box-sizing: inherit; -webkit-tap-highlight-color: transparent; color: rgb(64, 81, 181); text-decoration: none; word-break: break-word; transition: color 125ms; position: absolute; visibility: hidden;&quot;&gt;&lt;/a&gt;    &lt;span class=&quot;n&quot; style=&quot;box-sizing: inherit; color: rgb(54, 70, 78);&quot;&gt;port&lt;/span&gt;&lt;span class=&quot;o&quot; style=&quot;box-sizing: inherit; color: rgba(0, 0, 0, 0.54);&quot;&gt;=&lt;/span&gt;&lt;span class=&quot;n&quot; style=&quot;box-sizing: inherit; color: rgb(54, 70, 78);&quot;&gt;port&lt;/span&gt;&lt;span class=&quot;p&quot; style=&quot;box-sizing: inherit; color: rgba(0, 0, 0, 0.54);&quot;&gt;,&lt;/span&gt;&#xa;&lt;/span&gt;&lt;span id=&quot;__span-2-14&quot; style=&quot;box-sizing: inherit; color: rgb(54, 70, 78); font-family: &amp;quot;Roboto Mono&amp;quot;, SFMono-Regular, Consolas, Menlo, monospace; font-size: 13.6px; font-style: normal; font-variant-ligatures: none; font-variant-caps: normal; font-weight: 400; letter-spacing: normal; orphans: 2; text-align: start; text-indent: 0px; text-transform: none; widows: 2; word-spacing: 0px; -webkit-text-stroke-width: 0px; white-space: pre; text-decoration-thickness: initial; text-decoration-style: initial; text-decoration-color: initial;&quot;&gt;&lt;a id=&quot;__codelineno-2-14&quot; name=&quot;__codelineno-2-14&quot; href=&quot;https://google.github.io/A2A/tutorials/python/6-start-server/#__codelineno-2-14&quot; style=&quot;box-sizing: inherit; -webkit-tap-highlight-color: transparent; color: rgb(64, 81, 181); text-decoration: none; word-break: break-word; transition: color 125ms; position: absolute; visibility: hidden;&quot;&gt;&lt;/a&gt;  &lt;span class=&quot;p&quot; style=&quot;box-sizing: inherit; color: rgba(0, 0, 0, 0.54);&quot;&gt;)&lt;/span&gt;&lt;/span&gt;" id="G9hAGLQ0QLvyj3-e32F3-52">
          <mxCell style="text;whiteSpace=wrap;html=1;" parent="1" vertex="1">
            <mxGeometry x="120" y="1610" width="260" height="110" as="geometry" />
          </mxCell>
        </UserObject>
        <mxCell id="G9hAGLQ0QLvyj3-e32F3-57" value="" style="curved=1;endArrow=classic;html=1;rounded=0;exitX=0.32;exitY=0.992;exitDx=0;exitDy=0;exitPerimeter=0;" parent="1" edge="1">
          <mxGeometry width="50" height="50" relative="1" as="geometry">
            <mxPoint x="259.0000000000001" y="725" as="sourcePoint" />
            <mxPoint x="339" y="895" as="targetPoint" />
            <Array as="points">
              <mxPoint x="425.4" y="820.1600000000001" />
              <mxPoint x="425.4" y="870.1600000000001" />
            </Array>
          </mxGeometry>
        </mxCell>
        <mxCell id="G9hAGLQ0QLvyj3-e32F3-59" value="" style="curved=1;endArrow=classic;html=1;rounded=0;" parent="1" edge="1">
          <mxGeometry width="50" height="50" relative="1" as="geometry">
            <mxPoint x="250" y="1530" as="sourcePoint" />
            <mxPoint x="260" y="1630" as="targetPoint" />
            <Array as="points">
              <mxPoint x="346.4" y="1605.16" />
            </Array>
          </mxGeometry>
        </mxCell>
        <mxCell id="G9hAGLQ0QLvyj3-e32F3-60" value="" style="curved=1;endArrow=classic;html=1;rounded=0;" parent="1" edge="1">
          <mxGeometry width="50" height="50" relative="1" as="geometry">
            <mxPoint x="407" y="1567" as="sourcePoint" />
            <mxPoint x="317" y="1657" as="targetPoint" />
            <Array as="points">
              <mxPoint x="523.4" y="1622.16" />
            </Array>
          </mxGeometry>
        </mxCell>
        <mxCell id="G9hAGLQ0QLvyj3-e32F3-61" value="&lt;p style=&quot;margin: 0px; margin-top: 4px; text-align: center; text-decoration: underline;&quot;&gt;&lt;strong&gt;Research&lt;/strong&gt;&lt;/p&gt;&lt;p style=&quot;margin: 0px; margin-top: 4px; text-align: center; text-decoration: underline;&quot;&gt;&lt;strong&gt;Agent&lt;br&gt;&lt;/strong&gt;&lt;/p&gt;&lt;hr&gt;&lt;p style=&quot;margin: 0px; margin-left: 8px;&quot;&gt;&lt;br&gt;&lt;/p&gt;" style="verticalAlign=middle;align=center;overflow=fill;fontSize=12;fontFamily=Helvetica;html=1;rounded=1;fontStyle=1;strokeWidth=3;" parent="1" vertex="1">
          <mxGeometry x="70" y="1780" width="470" height="320" as="geometry" />
        </mxCell>
        <mxCell id="G9hAGLQ0QLvyj3-e32F3-62" value="1" style="ellipse;whiteSpace=wrap;html=1;aspect=fixed;rotation=0;strokeColor=#82b366;gradientDirection=east;fillColor=#d5e8d4;rounded=0;pointerEvents=0;fontFamily=Helvetica;fontSize=16;spacingTop=4;spacingBottom=4;spacingLeft=4;spacingRight=4;points=[];fontStyle=1" parent="1" vertex="1">
          <mxGeometry x="80" y="1840" width="30" height="30" as="geometry" />
        </mxCell>
        <mxCell id="G9hAGLQ0QLvyj3-e32F3-63" value="Declare Capabilities" style="text;html=1;align=center;verticalAlign=middle;whiteSpace=wrap;rounded=0;" parent="1" vertex="1">
          <mxGeometry x="110" y="1840" width="120" height="30" as="geometry" />
        </mxCell>
        <mxCell id="G9hAGLQ0QLvyj3-e32F3-64" value="" style="verticalLabelPosition=bottom;verticalAlign=top;html=1;shape=mxgraph.basic.tick;fillColor=#d5e8d4;strokeColor=#82b366;" parent="1" vertex="1">
          <mxGeometry x="230" y="1845" width="20" height="20" as="geometry" />
        </mxCell>
        <mxCell id="G9hAGLQ0QLvyj3-e32F3-65" value="2" style="ellipse;whiteSpace=wrap;html=1;aspect=fixed;rotation=0;strokeColor=#82b366;gradientDirection=east;fillColor=#d5e8d4;rounded=0;pointerEvents=0;fontFamily=Helvetica;fontSize=16;spacingTop=4;spacingBottom=4;spacingLeft=4;spacingRight=4;points=[];fontStyle=1" parent="1" vertex="1">
          <mxGeometry x="80" y="1880" width="30" height="30" as="geometry" />
        </mxCell>
        <mxCell id="G9hAGLQ0QLvyj3-e32F3-66" value="Create Agent Card" style="text;html=1;align=center;verticalAlign=middle;whiteSpace=wrap;rounded=0;" parent="1" vertex="1">
          <mxGeometry x="110" y="1880" width="110" height="30" as="geometry" />
        </mxCell>
        <mxCell id="G9hAGLQ0QLvyj3-e32F3-67" value="" style="verticalLabelPosition=bottom;verticalAlign=top;html=1;shape=mxgraph.basic.tick;fillColor=#d5e8d4;strokeColor=#82b366;" parent="1" vertex="1">
          <mxGeometry x="230" y="1885" width="20" height="20" as="geometry" />
        </mxCell>
        <mxCell id="G9hAGLQ0QLvyj3-e32F3-68" value="3" style="ellipse;whiteSpace=wrap;html=1;aspect=fixed;rotation=0;strokeColor=#82b366;gradientDirection=east;fillColor=#d5e8d4;rounded=0;pointerEvents=0;fontFamily=Helvetica;fontSize=16;spacingTop=4;spacingBottom=4;spacingLeft=4;spacingRight=4;points=[];fontStyle=1" parent="1" vertex="1">
          <mxGeometry x="80" y="1920" width="30" height="30" as="geometry" />
        </mxCell>
        <mxCell id="G9hAGLQ0QLvyj3-e32F3-69" value="Create &lt;font style=&quot;font-size: 12px;&quot;&gt;&lt;span style=&quot;color: rgba(0, 0, 0, 0.87); font-family: &amp;quot;Google Sans&amp;quot;, -apple-system, BlinkMacSystemFont, Helvetica, Arial, sans-serif; text-align: start; background-color: rgb(255, 255, 255);&quot;&gt;task manager to handle incoming requests&lt;/span&gt;&lt;/font&gt;" style="text;html=1;align=center;verticalAlign=middle;whiteSpace=wrap;rounded=0;" parent="1" vertex="1">
          <mxGeometry x="110" y="1920" width="280" height="30" as="geometry" />
        </mxCell>
        <mxCell id="G9hAGLQ0QLvyj3-e32F3-70" value="" style="verticalLabelPosition=bottom;verticalAlign=top;html=1;shape=mxgraph.basic.tick;fillColor=#d5e8d4;strokeColor=#82b366;" parent="1" vertex="1">
          <mxGeometry x="390" y="1920" width="20" height="20" as="geometry" />
        </mxCell>
        <mxCell id="G9hAGLQ0QLvyj3-e32F3-71" value="4" style="ellipse;whiteSpace=wrap;html=1;aspect=fixed;rotation=0;strokeColor=#82b366;gradientDirection=east;fillColor=#d5e8d4;rounded=0;pointerEvents=0;fontFamily=Helvetica;fontSize=16;spacingTop=4;spacingBottom=4;spacingLeft=4;spacingRight=4;points=[];fontStyle=1" parent="1" vertex="1">
          <mxGeometry x="80" y="1960" width="30" height="30" as="geometry" />
        </mxCell>
        <mxCell id="G9hAGLQ0QLvyj3-e32F3-72" value="Create Agent&amp;nbsp;&lt;font style=&quot;font-size: 12px;&quot;&gt;&lt;span style=&quot;color: rgba(0, 0, 0, 0.87); font-family: &amp;quot;Google Sans&amp;quot;, -apple-system, BlinkMacSystemFont, Helvetica, Arial, sans-serif; text-align: start; background-color: rgb(255, 255, 255);&quot;&gt;Server&amp;nbsp;&lt;/span&gt;&lt;/font&gt;" style="text;html=1;align=center;verticalAlign=middle;whiteSpace=wrap;rounded=0;" parent="1" vertex="1">
          <mxGeometry x="110" y="1960" width="130" height="30" as="geometry" />
        </mxCell>
        <mxCell id="G9hAGLQ0QLvyj3-e32F3-76" value="" style="verticalLabelPosition=bottom;verticalAlign=top;html=1;shape=mxgraph.basic.tick;fillColor=#d5e8d4;strokeColor=#82b366;" parent="1" vertex="1">
          <mxGeometry x="240" y="1965" width="20" height="20" as="geometry" />
        </mxCell>
      </root>
    </mxGraphModel>
  </diagram>
</mxfile>
